<svg width="26" height="29" viewBox="0 0 26 29" fill="none" xmlns="http://www.w3.org/2000/svg">
<path d="M24.4298 14.1563C24.428 14.7896 24.098 15.2775 23.9211 15.5133C23.7029 15.8041 23.425 16.0846 23.1374 16.3431C22.5563 16.8654 21.7673 17.4494 20.8767 18.0525C19.0843 19.2662 16.7161 20.6648 14.3557 21.9626C11.9926 23.2618 9.60226 24.4793 7.7543 25.3265C6.83638 25.7474 6.0192 26.0924 5.39406 26.309C5.09126 26.414 4.77139 26.5105 4.48221 26.5594C4.3454 26.5825 4.13034 26.6106 3.89033 26.5879C3.71375 26.5712 3.10292 26.4908 2.69696 25.9068C2.44261 25.5407 2.3852 25.1471 2.36465 24.9762C2.33795 24.7539 2.33678 24.5246 2.34407 24.3169C2.35882 23.8975 2.41591 23.3973 2.49174 22.8779C2.64458 21.831 2.89767 20.5339 3.14651 19.2958C3.39962 18.0364 3.64773 16.8427 3.80748 15.9363C3.8539 15.6729 3.88886 15.4486 3.91486 15.2647C3.78211 15.1343 3.65798 15.0059 3.55169 14.8867C3.24372 14.5414 2.93921 14.1525 2.67783 13.8002C2.41411 13.4448 2.18125 13.1087 2.01449 12.8628C1.93078 12.7394 1.86251 12.6373 1.81515 12.5654C1.79146 12.5294 1.77275 12.5003 1.75972 12.4802C1.75334 12.4704 1.74874 12.4623 1.74514 12.4568C1.74333 12.4539 1.74136 12.4516 1.74028 12.4499L1.73931 12.448L1.73833 12.448L1.73834 12.447C1.45195 12.0015 1.42155 11.4379 1.65859 10.9643C1.89553 10.491 2.36448 10.1777 2.89239 10.1397L2.89532 10.1397C2.89821 10.1395 2.90318 10.1393 2.90997 10.1388C2.92402 10.1377 2.94648 10.1356 2.97542 10.1331C3.03347 10.1281 3.11845 10.1203 3.22158 10.1094C3.42355 10.088 3.68373 10.0548 3.94355 10.0109C3.94287 10.0077 3.94132 10.0043 3.94064 10.0011C3.80456 9.36763 3.60609 8.54867 3.39455 7.67727C3.1859 6.8178 2.96567 5.91158 2.79828 5.1404C2.64503 4.43439 2.49154 3.65333 2.49147 3.14635C2.49148 2.63127 2.73314 2.11465 3.2092 1.79488C3.58359 1.54358 3.96616 1.50828 4.15047 1.50167C4.53741 1.48785 4.93102 1.58257 5.21642 1.6639C5.84531 1.84314 6.66764 2.1764 7.57024 2.58567C9.40179 3.41616 11.8125 4.67484 14.203 6.03236C16.5936 7.38995 19.0052 8.86949 20.8329 10.149C21.7413 10.785 22.5442 11.398 23.1334 11.9397C23.4249 12.2077 23.704 12.495 23.922 12.7887C24.0946 13.0212 24.4315 13.5168 24.4298 14.1563Z" fill="#565948" stroke="white" stroke-width="3" stroke-linejoin="round"/>
<path d="M19.7077 14.1417C19.7077 13.1154 7.65057 5.76031 7.47832 6.44451C7.30608 7.1287 8.33954 10.2076 8.33954 10.5497C8.33954 10.8918 6.78934 12.6023 6.78934 13.1154C6.78934 13.6286 7.82281 14.6548 8.1673 14.6548C8.51179 14.6548 10.062 11.2339 10.5787 11.2339C11.0955 11.2339 15.5738 13.7996 15.5738 14.1417C15.5738 14.4838 12.8179 16.1943 12.4734 16.1943C12.1289 16.1943 11.0955 13.9707 10.9232 13.9707C10.751 13.9707 9.88975 14.9969 9.88975 15.168C9.88975 15.339 9.54526 17.7337 9.54526 17.9048C9.54526 18.0758 6.96157 21.6679 6.78934 22.181C6.61711 22.6941 19.7077 15.168 19.7077 14.1417Z" fill="#D6B588"/>
</svg>
