<svg width="352" height="54" viewBox="0 0 352 54" fill="none" xmlns="http://www.w3.org/2000/svg">
<path d="M332.3 0.5C339.021 0.5 342.381 0.5 344.948 1.80792C347.206 2.9584 349.042 4.79417 350.192 7.05211C351.5 9.61905 351.5 12.9794 351.5 19.7V34.3C351.5 41.0206 351.5 44.3809 350.192 46.9479C349.042 49.2058 347.206 51.0416 344.948 52.1921C342.381 53.5 339.021 53.5 332.3 53.5L19.7 53.5C12.9794 53.5 9.61905 53.5 7.05211 52.1921C4.79417 51.0416 2.9584 49.2058 1.80792 46.9479C0.5 44.3809 0.5 41.0206 0.5 34.3L0.5 19.7C0.5 12.9794 0.5 9.61905 1.80792 7.05211C2.9584 4.79417 4.79417 2.9584 7.05211 1.80792C9.61905 0.5 12.9794 0.5 19.7 0.5L332.3 0.5Z" fill="#EBC797"/>
<path d="M1.80792 7.05211L1.36242 6.82512L1.80792 7.05211ZM7.05211 1.80792L6.82512 1.36242L7.05211 1.80792ZM7.05211 52.1921L6.82512 52.6376L7.05211 52.1921ZM350.192 46.9479L350.638 47.1749L350.192 46.9479ZM344.948 52.1921L344.721 51.7466L344.948 52.1921ZM350.192 7.05211L349.747 7.27911L350.192 7.05211ZM344.948 1.80792L345.175 1.36242L344.948 1.80792ZM0 21.16C0 21.4361 0.223858 21.66 0.5 21.66C0.776142 21.66 1 21.4361 1 21.16H0.5H0ZM1 23.1067C1 22.8305 0.776142 22.6067 0.5 22.6067C0.223858 22.6067 0 22.8305 0 23.1067H0.5H1ZM0 26.0267C0 26.3028 0.223858 26.5267 0.5 26.5267C0.776142 26.5267 1 26.3028 1 26.0267H0.5H0ZM1 27.9733C1 27.6972 0.776142 27.4733 0.5 27.4733C0.223858 27.4733 0 27.6972 0 27.9733H0.5H1ZM0 30.8933C0 31.1695 0.223858 31.3933 0.5 31.3933C0.776142 31.3933 1 31.1695 1 30.8933H0.5H0ZM1 32.84C1 32.5639 0.776142 32.34 0.5 32.34C0.223858 32.34 0 32.5639 0 32.84H0.5H1ZM0.000371933 35.5832C0.000620157 35.8593 0.224679 36.083 0.500821 36.0827C0.776963 36.0825 1.00062 35.8584 1.00037 35.5823L0.500372 35.5827L0.000371933 35.5832ZM1.00543 37.2892C1.00379 37.013 0.778613 36.7905 0.502475 36.7921C0.226338 36.7938 0.00381061 37.0189 0.00544724 37.2951L0.505438 37.2921L1.00543 37.2892ZM0.0445354 39.8704C0.0523893 40.1464 0.282523 40.3638 0.558554 40.356C0.834585 40.3481 1.05198 40.118 1.04413 39.8419L0.544333 39.8562L0.0445354 39.8704ZM1.11808 41.5321C1.10078 41.2565 0.863342 41.0471 0.587742 41.0644C0.312142 41.0817 0.102747 41.3192 0.120046 41.5948L0.619064 41.5635L1.11808 41.5321ZM0.410694 44.1972C0.459078 44.4691 0.718695 44.6503 0.990566 44.6019C1.26244 44.5535 1.44361 44.2939 1.39522 44.022L0.90296 44.1096L0.410694 44.1972ZM1.78928 45.6077C1.70168 45.3458 1.41837 45.2045 1.15649 45.2921C0.894612 45.3797 0.753325 45.663 0.84092 45.9249L1.3151 45.7663L1.78928 45.6077ZM1.9459 48.1979C2.09387 48.431 2.40282 48.5001 2.63598 48.3521C2.86913 48.2041 2.9382 47.8952 2.79023 47.662L2.36807 47.9299L1.9459 48.1979ZM3.63909 48.8304C3.46307 48.6176 3.14789 48.5878 2.93512 48.7638C2.72236 48.9399 2.69257 49.255 2.86859 49.4678L3.25384 49.1491L3.63909 48.8304ZM4.53219 51.1314C4.74496 51.3074 5.06013 51.2776 5.23616 51.0649C5.41218 50.8521 5.38239 50.5369 5.16962 50.3609L4.8509 50.7462L4.53219 51.1314ZM6.33796 51.2098C6.10481 51.0618 5.79585 51.1309 5.64789 51.364C5.49992 51.5972 5.56899 51.9061 5.80214 52.0541L6.07005 51.6319L6.33796 51.2098ZM8.07513 53.1591C8.33701 53.2467 8.62032 53.1054 8.70791 52.8435C8.79551 52.5816 8.65422 52.2983 8.39234 52.2107L8.23373 52.6849L8.07513 53.1591ZM9.97801 52.6048C9.70613 52.5564 9.44652 52.7376 9.39813 53.0094C9.34975 53.2813 9.53092 53.5409 9.80279 53.5893L9.8904 53.097L9.97801 52.6048ZM12.4052 53.88C12.6808 53.8973 12.9183 53.6879 12.9356 53.4123C12.9529 53.1367 12.7435 52.8992 12.4679 52.8819L12.4366 53.3809L12.4052 53.88ZM14.1581 52.9559C13.882 52.948 13.6519 53.1654 13.6441 53.4414C13.6362 53.7175 13.8536 53.9476 14.1296 53.9555L14.1439 53.4557L14.1581 52.9559ZM16.7049 53.9946C16.9811 53.9962 17.2062 53.7737 17.2079 53.4975C17.2095 53.2214 16.987 52.9962 16.7109 52.9946L16.7079 53.4946L16.7049 53.9946ZM18.4177 52.9996C18.1416 52.9994 17.9175 53.223 17.9173 53.4992C17.917 53.7753 18.1407 53.9994 18.4168 53.9996L18.4173 53.4996L18.4177 52.9996ZM21.1886 54C21.4647 54 21.6886 53.7761 21.6886 53.5C21.6886 53.2239 21.4647 53 21.1886 53V53.5V54ZM23.1734 53C22.8972 53 22.6734 53.2239 22.6734 53.5C22.6734 53.7761 22.8972 54 23.1734 54V53.5V53ZM26.1505 54C26.4266 54 26.6505 53.7761 26.6505 53.5C26.6505 53.2239 26.4266 53 26.1505 53V53.5V54ZM28.1353 53C27.8591 53 27.6353 53.2239 27.6353 53.5C27.6353 53.7761 27.8591 54 28.1353 54V53.5V53ZM31.1124 54C31.3885 54 31.6124 53.7761 31.6124 53.5C31.6124 53.2239 31.3885 53 31.1124 53V53.5V54ZM33.0972 53C32.821 53 32.5972 53.2239 32.5972 53.5C32.5972 53.7761 32.821 54 33.0972 54V53.5V53ZM36.0743 54C36.3504 54 36.5743 53.7761 36.5743 53.5C36.5743 53.2239 36.3504 53 36.0743 53V53.5V54ZM38.0591 53C37.7829 53 37.5591 53.2239 37.5591 53.5C37.5591 53.7761 37.7829 54 38.0591 54V53.5V53ZM41.0362 54C41.3124 54 41.5362 53.7761 41.5362 53.5C41.5362 53.2239 41.3124 53 41.0362 53V53.5V54ZM43.021 53C42.7448 53 42.521 53.2239 42.521 53.5C42.521 53.7761 42.7448 54 43.021 54V53.5V53ZM45.9981 54C46.2743 54 46.4981 53.7761 46.4981 53.5C46.4981 53.2239 46.2743 53 45.9981 53V53.5V54ZM47.9829 53C47.7067 53 47.4829 53.2239 47.4829 53.5C47.4829 53.7761 47.7067 54 47.9829 54V53.5V53ZM50.96 54C51.2362 54 51.46 53.7761 51.46 53.5C51.46 53.2239 51.2362 53 50.96 53V53.5V54ZM52.9448 53C52.6686 53 52.4448 53.2239 52.4448 53.5C52.4448 53.7761 52.6686 54 52.9448 54V53.5V53ZM55.9219 54C56.1981 54 56.4219 53.7761 56.4219 53.5C56.4219 53.2239 56.1981 53 55.9219 53V53.5V54ZM57.9067 53C57.6305 53 57.4067 53.2239 57.4067 53.5C57.4067 53.7761 57.6305 54 57.9067 54V53.5V53ZM60.8838 54C61.16 54 61.3838 53.7761 61.3838 53.5C61.3838 53.2239 61.16 53 60.8838 53V53.5V54ZM62.8686 53C62.5924 53 62.3686 53.2239 62.3686 53.5C62.3686 53.7761 62.5924 54 62.8686 54V53.5V53ZM65.8457 54C66.1219 54 66.3457 53.7761 66.3457 53.5C66.3457 53.2239 66.1219 53 65.8457 53V53.5V54ZM67.8305 53C67.5543 53 67.3305 53.2239 67.3305 53.5C67.3305 53.7761 67.5543 54 67.8305 54V53.5V53ZM70.8076 54C71.0838 54 71.3076 53.7761 71.3076 53.5C71.3076 53.2239 71.0838 53 70.8076 53V53.5V54ZM72.7924 53C72.5163 53 72.2924 53.2239 72.2924 53.5C72.2924 53.7761 72.5163 54 72.7924 54V53.5V53ZM75.7695 54C76.0457 54 76.2695 53.7761 76.2695 53.5C76.2695 53.2239 76.0457 53 75.7695 53V53.5V54ZM77.7543 53C77.4781 53 77.2543 53.2239 77.2543 53.5C77.2543 53.7761 77.4781 54 77.7543 54V53.5V53ZM80.7314 54C81.0076 54 81.2314 53.7761 81.2314 53.5C81.2314 53.2239 81.0076 53 80.7314 53V53.5V54ZM82.7162 53C82.44 53 82.2162 53.2239 82.2162 53.5C82.2162 53.7761 82.44 54 82.7162 54V53.5V53ZM85.6933 54C85.9695 54 86.1933 53.7761 86.1933 53.5C86.1933 53.2239 85.9695 53 85.6933 53V53.5V54ZM87.6781 53C87.402 53 87.1781 53.2239 87.1781 53.5C87.1781 53.7761 87.402 54 87.6781 54V53.5V53ZM90.6552 54C90.9314 54 91.1552 53.7761 91.1552 53.5C91.1552 53.2239 90.9314 53 90.6552 53V53.5V54ZM92.64 53C92.3639 53 92.14 53.2239 92.14 53.5C92.14 53.7761 92.3639 54 92.64 54V53.5V53ZM95.6171 54C95.8933 54 96.1171 53.7761 96.1171 53.5C96.1171 53.2239 95.8933 53 95.6171 53V53.5V54ZM97.6019 53C97.3258 53 97.1019 53.2239 97.1019 53.5C97.1019 53.7761 97.3258 54 97.6019 54V53.5V53ZM100.579 54C100.855 54 101.079 53.7761 101.079 53.5C101.079 53.2239 100.855 53 100.579 53V53.5V54ZM102.564 53C102.288 53 102.064 53.2239 102.064 53.5C102.064 53.7761 102.288 54 102.564 54V53.5V53ZM105.541 54C105.817 54 106.041 53.7761 106.041 53.5C106.041 53.2239 105.817 53 105.541 53V53.5V54ZM107.526 53C107.25 53 107.026 53.2239 107.026 53.5C107.026 53.7761 107.25 54 107.526 54V53.5V53ZM110.503 54C110.779 54 111.003 53.7761 111.003 53.5C111.003 53.2239 110.779 53 110.503 53V53.5V54ZM112.488 53C112.211 53 111.988 53.2239 111.988 53.5C111.988 53.7761 112.211 54 112.488 54V53.5V53ZM115.465 54C115.741 54 115.965 53.7761 115.965 53.5C115.965 53.2239 115.741 53 115.465 53V53.5V54ZM117.45 53C117.173 53 116.95 53.2239 116.95 53.5C116.95 53.7761 117.173 54 117.45 54V53.5V53ZM120.427 54C120.703 54 120.927 53.7761 120.927 53.5C120.927 53.2239 120.703 53 120.427 53V53.5V54ZM122.411 53C122.135 53 121.911 53.2239 121.911 53.5C121.911 53.7761 122.135 54 122.411 54V53.5V53ZM125.389 54C125.665 54 125.889 53.7761 125.889 53.5C125.889 53.2239 125.665 53 125.389 53V53.5V54ZM127.373 53C127.097 53 126.873 53.2239 126.873 53.5C126.873 53.7761 127.097 54 127.373 54V53.5V53ZM130.35 54C130.627 54 130.85 53.7761 130.85 53.5C130.85 53.2239 130.627 53 130.35 53V53.5V54ZM132.335 53C132.059 53 131.835 53.2239 131.835 53.5C131.835 53.7761 132.059 54 132.335 54V53.5V53ZM135.312 54C135.589 54 135.812 53.7761 135.812 53.5C135.812 53.2239 135.589 53 135.312 53V53.5V54ZM137.297 53C137.021 53 136.797 53.2239 136.797 53.5C136.797 53.7761 137.021 54 137.297 54V53.5V53ZM140.274 54C140.55 54 140.774 53.7761 140.774 53.5C140.774 53.2239 140.55 53 140.274 53V53.5V54ZM142.259 53C141.983 53 141.759 53.2239 141.759 53.5C141.759 53.7761 141.983 54 142.259 54V53.5V53ZM145.236 54C145.512 54 145.736 53.7761 145.736 53.5C145.736 53.2239 145.512 53 145.236 53V53.5V54ZM147.221 53C146.945 53 146.721 53.2239 146.721 53.5C146.721 53.7761 146.945 54 147.221 54V53.5V53ZM150.198 54C150.474 54 150.698 53.7761 150.698 53.5C150.698 53.2239 150.474 53 150.198 53V53.5V54ZM152.183 53C151.907 53 151.683 53.2239 151.683 53.5C151.683 53.7761 151.907 54 152.183 54V53.5V53ZM155.16 54C155.436 54 155.66 53.7761 155.66 53.5C155.66 53.2239 155.436 53 155.16 53V53.5V54ZM157.145 53C156.869 53 156.645 53.2239 156.645 53.5C156.645 53.7761 156.869 54 157.145 54V53.5V53ZM160.122 54C160.398 54 160.622 53.7761 160.622 53.5C160.622 53.2239 160.398 53 160.122 53V53.5V54ZM162.107 53C161.831 53 161.607 53.2239 161.607 53.5C161.607 53.7761 161.831 54 162.107 54V53.5V53ZM165.084 54C165.36 54 165.584 53.7761 165.584 53.5C165.584 53.2239 165.36 53 165.084 53V53.5V54ZM167.069 53C166.792 53 166.569 53.2239 166.569 53.5C166.569 53.7761 166.792 54 167.069 54V53.5V53ZM170.046 54C170.322 54 170.546 53.7761 170.546 53.5C170.546 53.2239 170.322 53 170.046 53V53.5V54ZM172.03 53C171.754 53 171.53 53.2239 171.53 53.5C171.53 53.7761 171.754 54 172.03 54V53.5V53ZM175.008 54C175.284 54 175.508 53.7761 175.508 53.5C175.508 53.2239 175.284 53 175.008 53V53.5V54ZM176.992 53C176.716 53 176.492 53.2239 176.492 53.5C176.492 53.7761 176.716 54 176.992 54V53.5V53ZM179.97 54C180.246 54 180.47 53.7761 180.47 53.5C180.47 53.2239 180.246 53 179.97 53V53.5V54ZM181.954 53C181.678 53 181.454 53.2239 181.454 53.5C181.454 53.7761 181.678 54 181.954 54V53.5V53ZM184.931 54C185.208 54 185.431 53.7761 185.431 53.5C185.431 53.2239 185.208 53 184.931 53V53.5V54ZM186.916 53C186.64 53 186.416 53.2239 186.416 53.5C186.416 53.7761 186.64 54 186.916 54V53.5V53ZM189.893 54C190.169 54 190.393 53.7761 190.393 53.5C190.393 53.2239 190.169 53 189.893 53V53.5V54ZM191.878 53C191.602 53 191.378 53.2239 191.378 53.5C191.378 53.7761 191.602 54 191.878 54V53.5V53ZM194.855 54C195.131 54 195.355 53.7761 195.355 53.5C195.355 53.2239 195.131 53 194.855 53V53.5V54ZM196.84 53C196.564 53 196.34 53.2239 196.34 53.5C196.34 53.7761 196.564 54 196.84 54V53.5V53ZM199.817 54C200.093 54 200.317 53.7761 200.317 53.5C200.317 53.2239 200.093 53 199.817 53V53.5V54ZM201.802 53C201.526 53 201.302 53.2239 201.302 53.5C201.302 53.7761 201.526 54 201.802 54V53.5V53ZM204.779 54C205.055 54 205.279 53.7761 205.279 53.5C205.279 53.2239 205.055 53 204.779 53V53.5V54ZM206.764 53C206.488 53 206.264 53.2239 206.264 53.5C206.264 53.7761 206.488 54 206.764 54V53.5V53ZM209.741 54C210.017 54 210.241 53.7761 210.241 53.5C210.241 53.2239 210.017 53 209.741 53V53.5V54ZM211.726 53C211.45 53 211.226 53.2239 211.226 53.5C211.226 53.7761 211.45 54 211.726 54V53.5V53ZM214.703 54C214.979 54 215.203 53.7761 215.203 53.5C215.203 53.2239 214.979 53 214.703 53V53.5V54ZM216.688 53C216.411 53 216.188 53.2239 216.188 53.5C216.188 53.7761 216.411 54 216.688 54V53.5V53ZM219.665 54C219.941 54 220.165 53.7761 220.165 53.5C220.165 53.2239 219.941 53 219.665 53V53.5V54ZM221.649 53C221.373 53 221.149 53.2239 221.149 53.5C221.149 53.7761 221.373 54 221.649 54V53.5V53ZM224.627 54C224.903 54 225.127 53.7761 225.127 53.5C225.127 53.2239 224.903 53 224.627 53V53.5V54ZM226.611 53C226.335 53 226.111 53.2239 226.111 53.5C226.111 53.7761 226.335 54 226.611 54V53.5V53ZM229.589 54C229.865 54 230.089 53.7761 230.089 53.5C230.089 53.2239 229.865 53 229.589 53V53.5V54ZM231.573 53C231.297 53 231.073 53.2239 231.073 53.5C231.073 53.7761 231.297 54 231.573 54V53.5V53ZM234.55 54C234.827 54 235.05 53.7761 235.05 53.5C235.05 53.2239 234.827 53 234.55 53V53.5V54ZM236.535 53C236.259 53 236.035 53.2239 236.035 53.5C236.035 53.7761 236.259 54 236.535 54V53.5V53ZM239.512 54C239.788 54 240.012 53.7761 240.012 53.5C240.012 53.2239 239.788 53 239.512 53V53.5V54ZM241.497 53C241.221 53 240.997 53.2239 240.997 53.5C240.997 53.7761 241.221 54 241.497 54V53.5V53ZM244.474 54C244.75 54 244.974 53.7761 244.974 53.5C244.974 53.2239 244.75 53 244.474 53V53.5V54ZM246.459 53C246.183 53 245.959 53.2239 245.959 53.5C245.959 53.7761 246.183 54 246.459 54V53.5V53ZM249.436 54C249.712 54 249.936 53.7761 249.936 53.5C249.936 53.2239 249.712 53 249.436 53V53.5V54ZM251.421 53C251.145 53 250.921 53.2239 250.921 53.5C250.921 53.7761 251.145 54 251.421 54V53.5V53ZM254.398 54C254.674 54 254.898 53.7761 254.898 53.5C254.898 53.2239 254.674 53 254.398 53V53.5V54ZM256.383 53C256.107 53 255.883 53.2239 255.883 53.5C255.883 53.7761 256.107 54 256.383 54V53.5V53ZM259.36 54C259.636 54 259.86 53.7761 259.86 53.5C259.86 53.2239 259.636 53 259.36 53V53.5V54ZM261.345 53C261.069 53 260.845 53.2239 260.845 53.5C260.845 53.7761 261.069 54 261.345 54V53.5V53ZM264.322 54C264.598 54 264.822 53.7761 264.822 53.5C264.822 53.2239 264.598 53 264.322 53V53.5V54ZM266.307 53C266.03 53 265.807 53.2239 265.807 53.5C265.807 53.7761 266.03 54 266.307 54V53.5V53ZM269.284 54C269.56 54 269.784 53.7761 269.784 53.5C269.784 53.2239 269.56 53 269.284 53V53.5V54ZM271.268 53C270.992 53 270.768 53.2239 270.768 53.5C270.768 53.7761 270.992 54 271.268 54V53.5V53ZM274.246 54C274.522 54 274.746 53.7761 274.746 53.5C274.746 53.2239 274.522 53 274.246 53V53.5V54ZM276.23 53C275.954 53 275.73 53.2239 275.73 53.5C275.73 53.7761 275.954 54 276.23 54V53.5V53ZM279.207 54C279.484 54 279.707 53.7761 279.707 53.5C279.707 53.2239 279.484 53 279.207 53V53.5V54ZM281.192 53C280.916 53 280.692 53.2239 280.692 53.5C280.692 53.7761 280.916 54 281.192 54V53.5V53ZM284.169 54C284.446 54 284.669 53.7761 284.669 53.5C284.669 53.2239 284.446 53 284.169 53V53.5V54ZM286.154 53C285.878 53 285.654 53.2239 285.654 53.5C285.654 53.7761 285.878 54 286.154 54V53.5V53ZM289.131 54C289.407 54 289.631 53.7761 289.631 53.5C289.631 53.2239 289.407 53 289.131 53V53.5V54ZM291.116 53C290.84 53 290.616 53.2239 290.616 53.5C290.616 53.7761 290.84 54 291.116 54V53.5V53ZM294.093 54C294.369 54 294.593 53.7761 294.593 53.5C294.593 53.2239 294.369 53 294.093 53V53.5V54ZM296.078 53C295.802 53 295.578 53.2239 295.578 53.5C295.578 53.7761 295.802 54 296.078 54V53.5V53ZM299.055 54C299.331 54 299.555 53.7761 299.555 53.5C299.555 53.2239 299.331 53 299.055 53V53.5V54ZM301.04 53C300.764 53 300.54 53.2239 300.54 53.5C300.54 53.7761 300.764 54 301.04 54V53.5V53ZM304.017 54C304.293 54 304.517 53.7761 304.517 53.5C304.517 53.2239 304.293 53 304.017 53V53.5V54ZM306.002 53C305.726 53 305.502 53.2239 305.502 53.5C305.502 53.7761 305.726 54 306.002 54V53.5V53ZM308.979 54C309.255 54 309.479 53.7761 309.479 53.5C309.479 53.2239 309.255 53 308.979 53V53.5V54ZM310.964 53C310.688 53 310.464 53.2239 310.464 53.5C310.464 53.7761 310.688 54 310.964 54V53.5V53ZM313.941 54C314.217 54 314.441 53.7761 314.441 53.5C314.441 53.2239 314.217 53 313.941 53V53.5V54ZM315.926 53C315.65 53 315.426 53.2239 315.426 53.5C315.426 53.7761 315.65 54 315.926 54V53.5V53ZM318.903 54C319.179 54 319.403 53.7761 319.403 53.5C319.403 53.2239 319.179 53 318.903 53V53.5V54ZM320.888 53C320.611 53 320.388 53.2239 320.388 53.5C320.388 53.7761 320.611 54 320.888 54V53.5V53ZM323.865 54C324.141 54 324.365 53.7761 324.365 53.5C324.365 53.2239 324.141 53 323.865 53V53.5V54ZM325.849 53C325.573 53 325.349 53.2239 325.349 53.5C325.349 53.7761 325.573 54 325.849 54V53.5V53ZM328.827 54C329.103 54 329.327 53.7761 329.327 53.5C329.327 53.2239 329.103 53 328.827 53V53.5V54ZM330.811 53C330.535 53 330.311 53.2239 330.311 53.5C330.311 53.7761 330.535 54 330.811 54V53.5V53ZM333.583 53.9996C333.859 53.9994 334.083 53.7753 334.083 53.4992C334.082 53.223 333.858 52.9994 333.582 52.9996L333.583 53.4996L333.583 53.9996ZM335.289 52.9946C335.013 52.9962 334.79 53.2214 334.792 53.4975C334.794 53.7737 335.019 53.9962 335.295 53.9946L335.292 53.4946L335.289 52.9946ZM337.87 53.9555C338.146 53.9476 338.364 53.7175 338.356 53.4414C338.348 53.1654 338.118 52.948 337.842 52.9559L337.856 53.4557L337.87 53.9555ZM339.532 52.8819C339.257 52.8992 339.047 53.1367 339.064 53.4123C339.082 53.6879 339.319 53.8973 339.595 53.88L339.563 53.3809L339.532 52.8819ZM342.197 53.5893C342.469 53.5409 342.65 53.2813 342.602 53.0094C342.553 52.7376 342.294 52.5564 342.022 52.6048L342.11 53.097L342.197 53.5893ZM343.608 52.2107C343.346 52.2983 343.204 52.5816 343.292 52.8435C343.38 53.1054 343.663 53.2467 343.925 53.1591L343.766 52.6849L343.608 52.2107ZM346.198 52.0541C346.431 51.9061 346.5 51.5972 346.352 51.364C346.204 51.1309 345.895 51.0618 345.662 51.2098L345.93 51.6319L346.198 52.0541ZM346.83 50.3609C346.618 50.5369 346.588 50.8521 346.764 51.0649C346.94 51.2776 347.255 51.3074 347.468 51.1314L347.149 50.7462L346.83 50.3609ZM349.131 49.4678C349.307 49.255 349.278 48.9399 349.065 48.7638C348.852 48.5878 348.537 48.6176 348.361 48.8304L348.746 49.1491L349.131 49.4678ZM349.21 47.662C349.062 47.8952 349.131 48.2041 349.364 48.3521C349.597 48.5001 349.906 48.431 350.054 48.1979L349.632 47.9299L349.21 47.662ZM351.159 45.9249C351.247 45.663 351.105 45.3797 350.844 45.2921C350.582 45.2045 350.298 45.3458 350.211 45.6077L350.685 45.7663L351.159 45.9249ZM350.605 44.022C350.556 44.2939 350.738 44.5535 351.009 44.6019C351.281 44.6503 351.541 44.4691 351.589 44.1972L351.097 44.1096L350.605 44.022ZM351.88 41.5948C351.897 41.3192 351.688 41.0817 351.412 41.0644C351.137 41.0471 350.899 41.2565 350.882 41.5321L351.381 41.5635L351.88 41.5948ZM350.956 39.8419C350.948 40.118 351.165 40.3481 351.441 40.356C351.717 40.3638 351.948 40.1464 351.955 39.8704L351.456 39.8562L350.956 39.8419ZM351.995 37.2951C351.996 37.0189 351.774 36.7938 351.498 36.7921C351.221 36.7905 350.996 37.013 350.995 37.2892L351.495 37.2921L351.995 37.2951ZM351 35.5823C350.999 35.8584 351.223 36.0825 351.499 36.0827C351.775 36.083 351.999 35.8593 352 35.5832L351.5 35.5827L351 35.5823ZM352 32.84C352 32.5639 351.776 32.34 351.5 32.34C351.224 32.34 351 32.5639 351 32.84H351.5H352ZM351 30.8933C351 31.1695 351.224 31.3933 351.5 31.3933C351.776 31.3933 352 31.1695 352 30.8933H351.5H351ZM352 27.9733C352 27.6972 351.776 27.4733 351.5 27.4733C351.224 27.4733 351 27.6972 351 27.9733H351.5H352ZM351 26.0267C351 26.3028 351.224 26.5267 351.5 26.5267C351.776 26.5267 352 26.3028 352 26.0267H351.5H351ZM352 23.1067C352 22.8305 351.776 22.6067 351.5 22.6067C351.224 22.6067 351 22.8305 351 23.1067H351.5H352ZM351 21.16C351 21.4361 351.224 21.66 351.5 21.66C351.776 21.66 352 21.4361 352 21.16H351.5H351ZM352 18.4168C351.999 18.1407 351.775 17.917 351.499 17.9173C351.223 17.9175 350.999 18.1416 351 18.4177L351.5 18.4173L352 18.4168ZM350.995 16.7108C350.996 16.987 351.221 17.2095 351.498 17.2079C351.774 17.2062 351.996 16.9811 351.995 16.7049L351.495 16.7079L350.995 16.7108ZM351.955 14.1296C351.948 13.8536 351.717 13.6362 351.441 13.644C351.165 13.6519 350.948 13.882 350.956 14.1581L351.456 14.1438L351.955 14.1296ZM350.882 12.4679C350.899 12.7435 351.137 12.9529 351.412 12.9356C351.688 12.9183 351.897 12.6808 351.88 12.4052L351.381 12.4366L350.882 12.4679ZM351.589 9.80279C351.541 9.53092 351.281 9.34975 351.009 9.39813C350.738 9.44651 350.556 9.70613 350.605 9.978L351.097 9.8904L351.589 9.80279ZM350.211 8.39233C350.298 8.65422 350.582 8.7955 350.844 8.70791C351.105 8.62031 351.247 8.33701 351.159 8.07513L350.685 8.23373L350.211 8.39233ZM350.054 5.80214C349.906 5.56898 349.597 5.49992 349.364 5.64789C349.131 5.79585 349.062 6.10481 349.21 6.33796L349.632 6.07005L350.054 5.80214ZM348.361 5.16962C348.537 5.38239 348.852 5.41218 349.065 5.23616C349.278 5.06013 349.307 4.74496 349.131 4.53218L348.746 4.8509L348.361 5.16962ZM347.468 2.86859C347.255 2.69257 346.94 2.72235 346.764 2.93512C346.588 3.1479 346.618 3.46307 346.83 3.6391L347.149 3.25384L347.468 2.86859ZM345.662 2.79023C345.895 2.93819 346.204 2.86913 346.352 2.63598C346.5 2.40282 346.431 2.09386 346.198 1.9459L345.93 2.36807L345.662 2.79023ZM343.925 0.840919C343.663 0.753323 343.38 0.894611 343.292 1.15649C343.204 1.41837 343.346 1.70168 343.608 1.78928L343.766 1.3151L343.925 0.840919ZM342.022 1.39523C342.294 1.44361 342.553 1.26244 342.602 0.990566C342.65 0.718693 342.469 0.459076 342.197 0.410694L342.11 0.902958L342.022 1.39523ZM339.595 0.120045C339.319 0.102749 339.082 0.312141 339.064 0.587742C339.047 0.863342 339.257 1.10078 339.532 1.11808L339.563 0.619064L339.595 0.120045ZM337.842 1.04413C338.118 1.05198 338.348 0.834583 338.356 0.558556C338.364 0.282524 338.146 0.0523911 337.87 0.0445366L337.856 0.544334L337.842 1.04413ZM335.295 0.00544739C335.019 0.00381088 334.794 0.226337 334.792 0.502476C334.79 0.778614 335.013 1.00379 335.289 1.00543L335.292 0.50544L335.295 0.00544739ZM333.582 1.00037C333.858 1.00062 334.082 0.776962 334.083 0.50082C334.083 0.224678 333.859 0.000621796 333.583 0.000370026L333.583 0.50037L333.582 1.00037ZM330.811 0C330.535 0 330.311 0.223858 330.311 0.5C330.311 0.776142 330.535 1 330.811 1V0.5V0ZM328.827 1C329.103 1 329.327 0.776142 329.327 0.5C329.327 0.223858 329.103 0 328.827 0V0.5V1ZM325.85 0C325.573 0 325.35 0.223858 325.35 0.5C325.35 0.776142 325.573 1 325.85 1V0.5V0ZM323.865 1C324.141 1 324.365 0.776142 324.365 0.5C324.365 0.223858 324.141 0 323.865 0V0.5V1ZM320.888 0C320.611 0 320.388 0.223858 320.388 0.5C320.388 0.776142 320.611 1 320.888 1V0.5V0ZM318.903 1C319.179 1 319.403 0.776142 319.403 0.5C319.403 0.223858 319.179 0 318.903 0V0.5V1ZM315.926 0C315.65 0 315.426 0.223858 315.426 0.5C315.426 0.776142 315.65 1 315.926 1V0.5V0ZM313.941 1C314.217 1 314.441 0.776142 314.441 0.5C314.441 0.223858 314.217 0 313.941 0V0.5V1ZM310.964 0C310.688 0 310.464 0.223858 310.464 0.5C310.464 0.776142 310.688 1 310.964 1V0.5V0ZM308.979 1C309.255 1 309.479 0.776142 309.479 0.5C309.479 0.223858 309.255 0 308.979 0V0.5V1ZM306.002 0C305.726 0 305.502 0.223858 305.502 0.5C305.502 0.776142 305.726 1 306.002 1V0.5V0ZM304.017 1C304.293 1 304.517 0.776142 304.517 0.5C304.517 0.223858 304.293 0 304.017 0V0.5V1ZM301.04 0C300.764 0 300.54 0.223858 300.54 0.5C300.54 0.776142 300.764 1 301.04 1V0.5V0ZM299.055 1C299.331 1 299.555 0.776142 299.555 0.5C299.555 0.223858 299.331 0 299.055 0V0.5V1ZM296.078 0C295.802 0 295.578 0.223858 295.578 0.5C295.578 0.776142 295.802 1 296.078 1V0.5V0ZM294.093 1C294.369 1 294.593 0.776142 294.593 0.5C294.593 0.223858 294.369 0 294.093 0V0.5V1ZM291.116 0C290.84 0 290.616 0.223858 290.616 0.5C290.616 0.776142 290.84 1 291.116 1V0.5V0ZM289.131 1C289.408 1 289.631 0.776142 289.631 0.5C289.631 0.223858 289.408 0 289.131 0V0.5V1ZM286.154 0C285.878 0 285.654 0.223858 285.654 0.5C285.654 0.776142 285.878 1 286.154 1V0.5V0ZM284.17 1C284.446 1 284.67 0.776142 284.67 0.5C284.67 0.223858 284.446 0 284.17 0V0.5V1ZM281.192 0C280.916 0 280.692 0.223858 280.692 0.5C280.692 0.776142 280.916 1 281.192 1V0.5V0ZM279.208 1C279.484 1 279.708 0.776142 279.708 0.5C279.708 0.223858 279.484 0 279.208 0V0.5V1ZM276.23 0C275.954 0 275.73 0.223858 275.73 0.5C275.73 0.776142 275.954 1 276.23 1V0.5V0ZM274.246 1C274.522 1 274.746 0.776142 274.746 0.5C274.746 0.223858 274.522 0 274.246 0V0.5V1ZM271.269 0C270.992 0 270.769 0.223858 270.769 0.5C270.769 0.776142 270.992 1 271.269 1V0.5V0ZM269.284 1C269.56 1 269.784 0.776142 269.784 0.5C269.784 0.223858 269.56 0 269.284 0V0.5V1ZM266.307 0C266.031 0 265.807 0.223858 265.807 0.5C265.807 0.776142 266.031 1 266.307 1V0.5V0ZM264.322 1C264.598 1 264.822 0.776142 264.822 0.5C264.822 0.223858 264.598 0 264.322 0V0.5V1ZM261.345 0C261.069 0 260.845 0.223858 260.845 0.5C260.845 0.776142 261.069 1 261.345 1V0.5V0ZM259.36 1C259.636 1 259.86 0.776142 259.86 0.5C259.86 0.223858 259.636 0 259.36 0V0.5V1ZM256.383 0C256.107 0 255.883 0.223858 255.883 0.5C255.883 0.776142 256.107 1 256.383 1V0.5V0ZM254.398 1C254.674 1 254.898 0.776142 254.898 0.5C254.898 0.223858 254.674 0 254.398 0V0.5V1ZM251.421 0C251.145 0 250.921 0.223858 250.921 0.5C250.921 0.776142 251.145 1 251.421 1V0.5V0ZM249.436 1C249.712 1 249.936 0.776142 249.936 0.5C249.936 0.223858 249.712 0 249.436 0V0.5V1ZM246.459 0C246.183 0 245.959 0.223858 245.959 0.5C245.959 0.776142 246.183 1 246.459 1V0.5V0ZM244.474 1C244.75 1 244.974 0.776142 244.974 0.5C244.974 0.223858 244.75 0 244.474 0V0.5V1ZM241.497 0C241.221 0 240.997 0.223858 240.997 0.5C240.997 0.776142 241.221 1 241.497 1V0.5V0ZM239.512 1C239.789 1 240.012 0.776142 240.012 0.5C240.012 0.223858 239.789 0 239.512 0V0.5V1ZM236.535 0C236.259 0 236.035 0.223858 236.035 0.5C236.035 0.776142 236.259 1 236.535 1V0.5V0ZM234.55 1C234.827 1 235.05 0.776142 235.05 0.5C235.05 0.223858 234.827 0 234.55 0V0.5V1ZM231.573 0C231.297 0 231.073 0.223858 231.073 0.5C231.073 0.776142 231.297 1 231.573 1V0.5V0ZM229.589 1C229.865 1 230.089 0.776142 230.089 0.5C230.089 0.223858 229.865 0 229.589 0V0.5V1ZM226.611 0C226.335 0 226.111 0.223858 226.111 0.5C226.111 0.776142 226.335 1 226.611 1V0.5V0ZM224.627 1C224.903 1 225.127 0.776142 225.127 0.5C225.127 0.223858 224.903 0 224.627 0V0.5V1ZM221.65 0C221.373 0 221.15 0.223858 221.15 0.5C221.15 0.776142 221.373 1 221.65 1V0.5V0ZM219.665 1C219.941 1 220.165 0.776142 220.165 0.5C220.165 0.223858 219.941 0 219.665 0V0.5V1ZM216.688 0C216.411 0 216.188 0.223858 216.188 0.5C216.188 0.776142 216.411 1 216.688 1V0.5V0ZM214.703 1C214.979 1 215.203 0.776142 215.203 0.5C215.203 0.223858 214.979 0 214.703 0V0.5V1ZM211.726 0C211.45 0 211.226 0.223858 211.226 0.5C211.226 0.776142 211.45 1 211.726 1V0.5V0ZM209.741 1C210.017 1 210.241 0.776142 210.241 0.5C210.241 0.223858 210.017 0 209.741 0V0.5V1ZM206.764 0C206.488 0 206.264 0.223858 206.264 0.5C206.264 0.776142 206.488 1 206.764 1V0.5V0ZM204.779 1C205.055 1 205.279 0.776142 205.279 0.5C205.279 0.223858 205.055 0 204.779 0V0.5V1ZM201.802 0C201.526 0 201.302 0.223858 201.302 0.5C201.302 0.776142 201.526 1 201.802 1V0.5V0ZM199.817 1C200.093 1 200.317 0.776142 200.317 0.5C200.317 0.223858 200.093 0 199.817 0V0.5V1ZM196.84 0C196.564 0 196.34 0.223858 196.34 0.5C196.34 0.776142 196.564 1 196.84 1V0.5V0ZM194.855 1C195.131 1 195.355 0.776142 195.355 0.5C195.355 0.223858 195.131 0 194.855 0V0.5V1ZM191.878 0C191.602 0 191.378 0.223858 191.378 0.5C191.378 0.776142 191.602 1 191.878 1V0.5V0ZM189.893 1C190.169 1 190.393 0.776142 190.393 0.5C190.393 0.223858 190.169 0 189.893 0V0.5V1ZM186.916 0C186.64 0 186.416 0.223858 186.416 0.5C186.416 0.776142 186.64 1 186.916 1V0.5V0ZM184.931 1C185.208 1 185.431 0.776142 185.431 0.5C185.431 0.223858 185.208 0 184.931 0V0.5V1ZM181.954 0C181.678 0 181.454 0.223858 181.454 0.5C181.454 0.776142 181.678 1 181.954 1V0.5V0ZM179.97 1C180.246 1 180.47 0.776142 180.47 0.5C180.47 0.223858 180.246 0 179.97 0V0.5V1ZM176.992 0C176.716 0 176.492 0.223858 176.492 0.5C176.492 0.776142 176.716 1 176.992 1V0.5V0ZM175.008 1C175.284 1 175.508 0.776142 175.508 0.5C175.508 0.223858 175.284 0 175.008 0V0.5V1ZM172.03 0C171.754 0 171.53 0.223858 171.53 0.5C171.53 0.776142 171.754 1 172.03 1V0.5V0ZM170.046 1C170.322 1 170.546 0.776142 170.546 0.5C170.546 0.223858 170.322 0 170.046 0V0.5V1ZM167.069 0C166.792 0 166.569 0.223858 166.569 0.5C166.569 0.776142 166.792 1 167.069 1V0.5V0ZM165.084 1C165.36 1 165.584 0.776142 165.584 0.5C165.584 0.223858 165.36 0 165.084 0V0.5V1ZM162.107 0C161.831 0 161.607 0.223858 161.607 0.5C161.607 0.776142 161.831 1 162.107 1V0.5V0ZM160.122 1C160.398 1 160.622 0.776142 160.622 0.5C160.622 0.223858 160.398 0 160.122 0V0.5V1ZM157.145 0C156.869 0 156.645 0.223858 156.645 0.5C156.645 0.776142 156.869 1 157.145 1V0.5V0ZM155.16 1C155.436 1 155.66 0.776142 155.66 0.5C155.66 0.223858 155.436 0 155.16 0V0.5V1ZM152.183 0C151.907 0 151.683 0.223858 151.683 0.5C151.683 0.776142 151.907 1 152.183 1V0.5V0ZM150.198 1C150.474 1 150.698 0.776142 150.698 0.5C150.698 0.223858 150.474 0 150.198 0V0.5V1ZM147.221 0C146.945 0 146.721 0.223858 146.721 0.5C146.721 0.776142 146.945 1 147.221 1V0.5V0ZM145.236 1C145.512 1 145.736 0.776142 145.736 0.5C145.736 0.223858 145.512 0 145.236 0V0.5V1ZM142.259 0C141.983 0 141.759 0.223858 141.759 0.5C141.759 0.776142 141.983 1 142.259 1V0.5V0ZM140.274 1C140.55 1 140.774 0.776142 140.774 0.5C140.774 0.223858 140.55 0 140.274 0V0.5V1ZM137.297 0C137.021 0 136.797 0.223858 136.797 0.5C136.797 0.776142 137.021 1 137.297 1V0.5V0ZM135.312 1C135.589 1 135.812 0.776142 135.812 0.5C135.812 0.223858 135.589 0 135.312 0V0.5V1ZM132.335 0C132.059 0 131.835 0.223858 131.835 0.5C131.835 0.776142 132.059 1 132.335 1V0.5V0ZM130.351 1C130.627 1 130.851 0.776142 130.851 0.5C130.851 0.223858 130.627 0 130.351 0V0.5V1ZM127.373 0C127.097 0 126.873 0.223858 126.873 0.5C126.873 0.776142 127.097 1 127.373 1V0.5V0ZM125.389 1C125.665 1 125.889 0.776142 125.889 0.5C125.889 0.223858 125.665 0 125.389 0V0.5V1ZM122.411 0C122.135 0 121.911 0.223858 121.911 0.5C121.911 0.776142 122.135 1 122.411 1V0.5V0ZM120.427 1C120.703 1 120.927 0.776142 120.927 0.5C120.927 0.223858 120.703 0 120.427 0V0.5V1ZM117.45 0C117.173 0 116.95 0.223858 116.95 0.5C116.95 0.776142 117.173 1 117.45 1V0.5V0ZM115.465 1C115.741 1 115.965 0.776142 115.965 0.5C115.965 0.223858 115.741 0 115.465 0V0.5V1ZM112.488 0C112.212 0 111.988 0.223858 111.988 0.5C111.988 0.776142 112.212 1 112.488 1V0.5V0ZM110.503 1C110.779 1 111.003 0.776142 111.003 0.5C111.003 0.223858 110.779 0 110.503 0V0.5V1ZM107.526 0C107.25 0 107.026 0.223858 107.026 0.5C107.026 0.776142 107.25 1 107.526 1V0.5V0ZM105.541 1C105.817 1 106.041 0.776142 106.041 0.5C106.041 0.223858 105.817 0 105.541 0V0.5V1ZM102.564 0C102.288 0 102.064 0.223858 102.064 0.5C102.064 0.776142 102.288 1 102.564 1V0.5V0ZM100.579 1C100.855 1 101.079 0.776142 101.079 0.5C101.079 0.223858 100.855 0 100.579 0V0.5V1ZM97.602 0C97.3259 0 97.102 0.223858 97.102 0.5C97.102 0.776142 97.3259 1 97.602 1V0.5V0ZM95.6172 1C95.8934 1 96.1172 0.776142 96.1172 0.5C96.1172 0.223858 95.8934 0 95.6172 0V0.5V1ZM92.6401 0C92.364 0 92.1401 0.223858 92.1401 0.5C92.1401 0.776142 92.364 1 92.6401 1V0.5V0ZM90.6553 1C90.9315 1 91.1553 0.776142 91.1553 0.5C91.1553 0.223858 90.9315 0 90.6553 0V0.5V1ZM87.6782 0C87.402 0 87.1782 0.223858 87.1782 0.5C87.1782 0.776142 87.402 1 87.6782 1V0.5V0ZM85.6935 1C85.9696 1 86.1935 0.776142 86.1935 0.5C86.1935 0.223858 85.9696 0 85.6935 0V0.5V1ZM82.7163 0C82.4402 0 82.2163 0.223858 82.2163 0.5C82.2163 0.776142 82.4402 1 82.7163 1V0.5V0ZM80.7315 1C81.0077 1 81.2315 0.776142 81.2315 0.5C81.2315 0.223858 81.0077 0 80.7315 0V0.5V1ZM77.7544 0C77.4783 0 77.2544 0.223858 77.2544 0.5C77.2544 0.776142 77.4783 1 77.7544 1V0.5V0ZM75.7696 1C76.0458 1 76.2696 0.776142 76.2696 0.5C76.2696 0.223858 76.0458 0 75.7696 0V0.5V1ZM72.7925 0C72.5164 0 72.2925 0.223858 72.2925 0.5C72.2925 0.776142 72.5164 1 72.7925 1V0.5V0ZM70.8077 1C71.0839 1 71.3077 0.776142 71.3077 0.5C71.3077 0.223858 71.0839 0 70.8077 0V0.5V1ZM67.8306 0C67.5545 0 67.3306 0.223858 67.3306 0.5C67.3306 0.776142 67.5545 1 67.8306 1V0.5V0ZM65.8458 1C66.122 1 66.3458 0.776142 66.3458 0.5C66.3458 0.223858 66.122 0 65.8458 0V0.5V1ZM62.8687 0C62.5925 0 62.3687 0.223858 62.3687 0.5C62.3687 0.776142 62.5925 1 62.8687 1V0.5V0ZM60.8839 1C61.16 1 61.3839 0.776142 61.3839 0.5C61.3839 0.223858 61.16 0 60.8839 0V0.5V1ZM57.9068 0C57.6306 0 57.4068 0.223858 57.4068 0.5C57.4068 0.776142 57.6306 1 57.9068 1V0.5V0ZM55.922 1C56.1981 1 56.422 0.776142 56.422 0.5C56.422 0.223858 56.1981 0 55.922 0V0.5V1ZM52.9448 0C52.6687 0 52.4448 0.223858 52.4448 0.5C52.4448 0.776142 52.6687 1 52.9448 1V0.5V0ZM50.9601 1C51.2362 1 51.4601 0.776142 51.4601 0.5C51.4601 0.223858 51.2362 0 50.9601 0V0.5V1ZM47.9829 0C47.7068 0 47.4829 0.223858 47.4829 0.5C47.4829 0.776142 47.7068 1 47.9829 1V0.5V0ZM45.9982 1C46.2743 1 46.4982 0.776142 46.4982 0.5C46.4982 0.223858 46.2743 0 45.9982 0V0.5V1ZM43.021 0C42.7449 0 42.521 0.223858 42.521 0.5C42.521 0.776142 42.7449 1 43.021 1V0.5V0ZM41.0362 1C41.3124 1 41.5362 0.776142 41.5362 0.5C41.5362 0.223858 41.3124 0 41.0362 0V0.5V1ZM38.0591 0C37.783 0 37.5591 0.223858 37.5591 0.5C37.5591 0.776142 37.783 1 38.0591 1V0.5V0ZM36.0743 1C36.3505 1 36.5743 0.776142 36.5743 0.5C36.5743 0.223858 36.3505 0 36.0743 0V0.5V1ZM33.0972 0C32.821 0 32.5972 0.223858 32.5972 0.5C32.5972 0.776142 32.821 1 33.0972 1V0.5V0ZM31.1124 1C31.3886 1 31.6124 0.776142 31.6124 0.5C31.6124 0.223858 31.3886 0 31.1124 0V0.5V1ZM28.1353 0C27.8591 0 27.6353 0.223858 27.6353 0.5C27.6353 0.776142 27.8591 1 28.1353 1V0.5V0ZM26.1505 1C26.4266 1 26.6505 0.776142 26.6505 0.5C26.6505 0.223858 26.4266 0 26.1505 0V0.5V1ZM23.1734 0C22.8972 0 22.6734 0.223858 22.6734 0.5C22.6734 0.776142 22.8972 1 23.1734 1V0.5V0ZM21.1886 1C21.4647 1 21.6886 0.776142 21.6886 0.5C21.6886 0.223858 21.4647 0 21.1886 0V0.5V1ZM18.4168 0.000370026C18.1407 0.000621796 17.917 0.224678 17.9173 0.50082C17.9175 0.776962 18.1416 1.00062 18.4177 1.00037L18.4173 0.50037L18.4168 0.000370026ZM16.7108 1.00543C16.987 1.00379 17.2095 0.778614 17.2079 0.502476C17.2062 0.226337 16.9811 0.00381088 16.7049 0.00544739L16.7079 0.50544L16.7108 1.00543ZM14.1296 0.0445366C13.8536 0.0523911 13.6362 0.282524 13.644 0.558556C13.6519 0.834583 13.882 1.05198 14.1581 1.04413L14.1438 0.544334L14.1296 0.0445366ZM12.4679 1.11808C12.7435 1.10078 12.9529 0.863342 12.9356 0.587742C12.9183 0.312141 12.6808 0.102749 12.4052 0.120045L12.4366 0.619064L12.4679 1.11808ZM9.80279 0.410694C9.53092 0.45908 9.34975 0.718697 9.39813 0.990566C9.44651 1.26244 9.70613 1.44361 9.978 1.39523L9.8904 0.902958L9.80279 0.410694ZM8.39234 1.78928C8.65422 1.70168 8.7955 1.41837 8.70791 1.15649C8.62031 0.894611 8.33701 0.753326 8.07513 0.840919L8.23373 1.3151L8.39234 1.78928ZM5.80214 1.9459C5.56899 2.09386 5.49992 2.40282 5.64789 2.63598C5.79585 2.86913 6.10481 2.9382 6.33796 2.79023L6.07005 2.36807L5.80214 1.9459ZM5.16962 3.6391C5.38239 3.46307 5.41218 3.1479 5.23616 2.93512C5.06013 2.72235 4.74496 2.69257 4.53219 2.86859L4.8509 3.25384L5.16962 3.6391ZM2.86859 4.53218C2.69256 4.74496 2.72235 5.06013 2.93512 5.23616C3.14789 5.41218 3.46307 5.38239 3.63909 5.16962L3.25384 4.8509L2.86859 4.53218ZM2.79023 6.33796C2.9382 6.10481 2.86913 5.79585 2.63598 5.64789C2.40282 5.49992 2.09386 5.56898 1.9459 5.80214L2.36807 6.07005L2.79023 6.33796ZM0.84092 8.07513C0.753325 8.33701 0.894611 8.62032 1.15649 8.70791C1.41837 8.79551 1.70168 8.65422 1.78928 8.39234L1.3151 8.23373L0.84092 8.07513ZM1.39522 9.978C1.44361 9.70613 1.26244 9.44651 0.990566 9.39813C0.718695 9.34975 0.459078 9.53092 0.410694 9.80279L0.90296 9.8904L1.39522 9.978ZM0.120046 12.4052C0.102747 12.6808 0.312142 12.9183 0.587742 12.9356C0.863342 12.9529 1.10078 12.7435 1.11808 12.4679L0.619064 12.4366L0.120046 12.4052ZM1.04413 14.1581C1.05198 13.882 0.834585 13.6519 0.558554 13.644C0.282523 13.6362 0.0523893 13.8536 0.0445353 14.1296L0.544333 14.1438L1.04413 14.1581ZM0.00544724 16.7049C0.00381061 16.9811 0.226338 17.2062 0.502475 17.2079C0.778613 17.2095 1.00379 16.987 1.00543 16.7108L0.505438 16.7079L0.00544724 16.7049ZM1.00037 18.4177C1.00062 18.1416 0.776963 17.9175 0.500821 17.9173C0.224679 17.917 0.000620157 18.1407 0.000371933 18.4168L0.500372 18.4173L1.00037 18.4177ZM0.5 19.7H0L0 21.16H0.5H1L1 19.7H0.5ZM0.5 23.1067H0L0 26.0267H0.5H1L1 23.1067H0.5ZM0.5 27.9733H0L0 30.8933H0.5H1L1 27.9733H0.5ZM0.5 32.84H0L0 34.3H0.5H1V32.84H0.5ZM0.5 34.3H0C0 34.7418 -5.96046e-08 35.1694 0.000371933 35.5832L0.500372 35.5827L1.00037 35.5823C1 35.169 1 34.7419 1 34.3H0.5ZM0.505438 37.2921L0.00544724 37.2951C0.010965 38.2261 0.0220807 39.0812 0.0445354 39.8704L0.544333 39.8562L1.04413 39.8419C1.02198 39.0633 1.01093 38.2164 1.00543 37.2892L0.505438 37.2921ZM0.619064 41.5635L0.120046 41.5948C0.180497 42.5579 0.271793 43.4167 0.410694 44.1972L0.90296 44.1096L1.39522 44.022C1.26499 43.2902 1.17703 42.4712 1.11808 41.5321L0.619064 41.5635ZM1.3151 45.7663L0.84092 45.9249C0.987504 46.3631 1.15984 46.7773 1.36242 47.1749L1.80792 46.9479L2.25343 46.7209C2.07452 46.3698 1.92102 46.0015 1.78928 45.6077L1.3151 45.7663ZM1.80792 46.9479L1.36242 47.1749C1.54131 47.526 1.73611 47.8673 1.9459 48.1979L2.36807 47.9299L2.79023 47.662C2.59723 47.3579 2.41801 47.0439 2.25343 46.7209L1.80792 46.9479ZM3.25384 49.1491L2.86859 49.4678C3.36958 50.0734 3.9266 50.6304 4.53219 51.1314L4.8509 50.7462L5.16962 50.3609C4.61248 49.9 4.10001 49.3875 3.63909 48.8304L3.25384 49.1491ZM6.07005 51.6319L5.80214 52.0541C6.13273 52.2639 6.47403 52.4587 6.82512 52.6376L7.05211 52.1921L7.27911 51.7466C6.95609 51.582 6.6421 51.4028 6.33796 51.2098L6.07005 51.6319ZM7.05211 52.1921L6.82512 52.6376C7.2227 52.8402 7.63689 53.0125 8.07513 53.1591L8.23373 52.6849L8.39234 52.2107C7.99847 52.079 7.63022 51.9255 7.27911 51.7466L7.05211 52.1921ZM9.8904 53.097L9.80279 53.5893C10.5833 53.7282 11.4421 53.8195 12.4052 53.88L12.4366 53.3809L12.4679 52.8819C11.5288 52.823 10.7098 52.735 9.97801 52.6048L9.8904 53.097ZM14.1439 53.4557L14.1296 53.9555C14.9188 53.9779 15.7739 53.989 16.7049 53.9946L16.7079 53.4946L16.7109 52.9946C15.7836 52.9891 14.9367 52.978 14.1581 52.9559L14.1439 53.4557ZM18.4173 53.4996L18.4168 53.9996C18.8306 54 19.2582 54 19.7 54V53.5V53C19.2581 53 18.831 53 18.4177 52.9996L18.4173 53.4996ZM19.7 53.5V54H21.1886V53.5V53H19.7V53.5ZM23.1734 53.5V54L26.1505 54V53.5V53L23.1734 53V53.5ZM28.1353 53.5V54H31.1124V53.5V53H28.1353V53.5ZM33.0972 53.5V54H36.0743V53.5V53H33.0972V53.5ZM38.0591 53.5V54H41.0362V53.5V53H38.0591V53.5ZM43.021 53.5V54H45.9981V53.5V53H43.021V53.5ZM47.9829 53.5V54H50.96V53.5V53H47.9829V53.5ZM52.9448 53.5V54H55.9219V53.5V53H52.9448V53.5ZM57.9067 53.5V54H60.8838V53.5V53H57.9067V53.5ZM62.8686 53.5V54H65.8457V53.5V53H62.8686V53.5ZM67.8305 53.5V54H70.8076V53.5V53H67.8305V53.5ZM72.7924 53.5V54L75.7695 54V53.5V53L72.7924 53V53.5ZM77.7543 53.5V54H80.7314V53.5V53H77.7543V53.5ZM82.7162 53.5V54H85.6933V53.5V53H82.7162V53.5ZM87.6781 53.5V54H90.6552V53.5V53H87.6781V53.5ZM92.64 53.5V54H95.6171V53.5V53H92.64V53.5ZM97.6019 53.5V54H100.579V53.5V53H97.6019V53.5ZM102.564 53.5V54H105.541V53.5V53H102.564V53.5ZM107.526 53.5V54H110.503V53.5V53H107.526V53.5ZM112.488 53.5V54H115.465V53.5V53H112.488V53.5ZM117.45 53.5V54H120.427V53.5V53H117.45V53.5ZM122.411 53.5V54L125.389 54V53.5V53L122.411 53V53.5ZM127.373 53.5V54H130.35V53.5V53H127.373V53.5ZM132.335 53.5V54H135.312V53.5V53H132.335V53.5ZM137.297 53.5V54H140.274V53.5V53H137.297V53.5ZM142.259 53.5V54H145.236V53.5V53H142.259V53.5ZM147.221 53.5V54H150.198V53.5V53H147.221V53.5ZM152.183 53.5V54H155.16V53.5V53H152.183V53.5ZM157.145 53.5V54H160.122V53.5V53H157.145V53.5ZM162.107 53.5V54H165.084V53.5V53H162.107V53.5ZM167.069 53.5V54H170.046V53.5V53H167.069V53.5ZM172.03 53.5V54L175.008 54V53.5V53L172.03 53V53.5ZM176.992 53.5V54H179.97V53.5V53H176.992V53.5ZM181.954 53.5V54H184.931V53.5V53H181.954V53.5ZM186.916 53.5V54H189.893V53.5V53H186.916V53.5ZM191.878 53.5V54H194.855V53.5V53H191.878V53.5ZM196.84 53.5V54H199.817V53.5V53H196.84V53.5ZM201.802 53.5V54H204.779V53.5V53H201.802V53.5ZM206.764 53.5V54H209.741V53.5V53H206.764V53.5ZM211.726 53.5V54H214.703V53.5V53H211.726V53.5ZM216.688 53.5V54H219.665V53.5V53H216.688V53.5ZM221.649 53.5V54L224.627 54V53.5V53L221.649 53V53.5ZM226.611 53.5V54H229.589V53.5V53H226.611V53.5ZM231.573 53.5V54H234.55V53.5V53H231.573V53.5ZM236.535 53.5V54H239.512V53.5V53H236.535V53.5ZM241.497 53.5V54H244.474V53.5V53H241.497V53.5ZM246.459 53.5V54H249.436V53.5V53H246.459V53.5ZM251.421 53.5V54H254.398V53.5V53H251.421V53.5ZM256.383 53.5V54H259.36V53.5V53H256.383V53.5ZM261.345 53.5V54H264.322V53.5V53H261.345V53.5ZM266.307 53.5V54H269.284V53.5V53H266.307V53.5ZM271.268 53.5V54L274.246 54V53.5V53L271.268 53V53.5ZM276.23 53.5V54H279.207V53.5V53H276.23V53.5ZM281.192 53.5V54H284.169V53.5V53H281.192V53.5ZM286.154 53.5V54H289.131V53.5V53H286.154V53.5ZM291.116 53.5V54H294.093V53.5V53H291.116V53.5ZM296.078 53.5V54H299.055V53.5V53H296.078V53.5ZM301.04 53.5V54H304.017V53.5V53H301.04V53.5ZM306.002 53.5V54H308.979V53.5V53H306.002V53.5ZM310.964 53.5V54H313.941V53.5V53H310.964V53.5ZM315.926 53.5V54H318.903V53.5V53H315.926V53.5ZM320.888 53.5V54L323.865 54V53.5V53L320.888 53V53.5ZM325.849 53.5V54H328.827V53.5V53H325.849V53.5ZM330.811 53.5V54H332.3V53.5V53H330.811V53.5ZM332.3 53.5V54C332.742 54 333.169 54 333.583 53.9996L333.583 53.4996L333.582 52.9996C333.169 53 332.742 53 332.3 53V53.5ZM335.292 53.4946L335.295 53.9946C336.226 53.989 337.081 53.9779 337.87 53.9555L337.856 53.4557L337.842 52.9559C337.063 52.978 336.216 52.9891 335.289 52.9946L335.292 53.4946ZM339.563 53.3809L339.595 53.88C340.558 53.8195 341.417 53.7282 342.197 53.5893L342.11 53.097L342.022 52.6048C341.29 52.735 340.471 52.823 339.532 52.8819L339.563 53.3809ZM343.766 52.6849L343.925 53.1591C344.363 53.0125 344.777 52.8402 345.175 52.6376L344.948 52.1921L344.721 51.7466C344.37 51.9255 344.002 52.079 343.608 52.2107L343.766 52.6849ZM344.948 52.1921L345.175 52.6376C345.526 52.4587 345.867 52.2639 346.198 52.0541L345.93 51.6319L345.662 51.2098C345.358 51.4028 345.044 51.582 344.721 51.7466L344.948 52.1921ZM347.149 50.7462L347.468 51.1314C348.073 50.6304 348.63 50.0734 349.131 49.4678L348.746 49.1491L348.361 48.8304C347.9 49.3875 347.388 49.9 346.83 50.3609L347.149 50.7462ZM349.632 47.9299L350.054 48.1979C350.264 47.8673 350.459 47.526 350.638 47.1749L350.192 46.9479L349.747 46.7209C349.582 47.0439 349.403 47.3579 349.21 47.662L349.632 47.9299ZM350.192 46.9479L350.638 47.1749C350.84 46.7773 351.012 46.3631 351.159 45.9249L350.685 45.7663L350.211 45.6077C350.079 46.0015 349.925 46.3698 349.747 46.7209L350.192 46.9479ZM351.097 44.1096L351.589 44.1972C351.728 43.4167 351.819 42.5579 351.88 41.5948L351.381 41.5635L350.882 41.5321C350.823 42.4712 350.735 43.2902 350.605 44.022L351.097 44.1096ZM351.456 39.8562L351.955 39.8704C351.978 39.0812 351.989 38.2261 351.995 37.2951L351.495 37.2921L350.995 37.2892C350.989 38.2164 350.978 39.0633 350.956 39.8419L351.456 39.8562ZM351.5 35.5827L352 35.5832C352 35.1694 352 34.7418 352 34.3H351.5H351C351 34.7419 351 35.169 351 35.5823L351.5 35.5827ZM351.5 34.3H352V32.84H351.5H351V34.3H351.5ZM351.5 30.8933H352V27.9733H351.5H351V30.8933H351.5ZM351.5 26.0267H352V23.1067H351.5H351V26.0267H351.5ZM351.5 21.16H352V19.7H351.5H351V21.16H351.5ZM351.5 19.7H352C352 19.2582 352 18.8306 352 18.4168L351.5 18.4173L351 18.4177C351 18.831 351 19.2581 351 19.7H351.5ZM351.495 16.7079L351.995 16.7049C351.989 15.7739 351.978 14.9188 351.955 14.1296L351.456 14.1438L350.956 14.1581C350.978 14.9367 350.989 15.7836 350.995 16.7108L351.495 16.7079ZM351.381 12.4366L351.88 12.4052C351.819 11.4421 351.728 10.5833 351.589 9.80279L351.097 9.8904L350.605 9.978C350.735 10.7098 350.823 11.5288 350.882 12.4679L351.381 12.4366ZM350.685 8.23373L351.159 8.07513C351.012 7.63689 350.84 7.2227 350.638 6.82512L350.192 7.05211L349.747 7.27911C349.925 7.63022 350.079 7.99847 350.211 8.39233L350.685 8.23373ZM350.192 7.05211L350.638 6.82512C350.459 6.47403 350.264 6.13273 350.054 5.80214L349.632 6.07005L349.21 6.33796C349.403 6.6421 349.582 6.95609 349.747 7.27911L350.192 7.05211ZM348.746 4.8509L349.131 4.53218C348.63 3.92661 348.073 3.36958 347.468 2.86859L347.149 3.25384L346.83 3.6391C347.388 4.10001 347.9 4.61248 348.361 5.16962L348.746 4.8509ZM345.93 2.36807L346.198 1.9459C345.867 1.73611 345.526 1.54131 345.175 1.36242L344.948 1.80792L344.721 2.25343C345.044 2.41801 345.358 2.59723 345.662 2.79023L345.93 2.36807ZM344.948 1.80792L345.175 1.36242C344.777 1.15984 344.363 0.987503 343.925 0.840919L343.766 1.3151L343.608 1.78928C344.002 1.92102 344.37 2.07452 344.721 2.25343L344.948 1.80792ZM342.11 0.902958L342.197 0.410694C341.417 0.271793 340.558 0.180496 339.595 0.120045L339.563 0.619064L339.532 1.11808C340.471 1.17702 341.29 1.26499 342.022 1.39523L342.11 0.902958ZM337.856 0.544334L337.87 0.0445366C337.081 0.0220795 336.226 0.0109634 335.295 0.00544739L335.292 0.50544L335.289 1.00543C336.216 1.01093 337.063 1.02198 337.842 1.04413L337.856 0.544334ZM333.583 0.50037L333.583 0.000370026C333.169 0 332.742 0 332.3 0V0.5V1C332.742 1 333.169 1 333.582 1.00037L333.583 0.50037ZM332.3 0.5V0H330.811V0.5V1H332.3V0.5ZM328.827 0.5V0H325.85V0.5V1H328.827V0.5ZM323.865 0.5V0L320.888 0V0.5V1L323.865 1V0.5ZM318.903 0.5V0H315.926V0.5V1H318.903V0.5ZM313.941 0.5V0H310.964V0.5V1H313.941V0.5ZM308.979 0.5V0H306.002V0.5V1H308.979V0.5ZM304.017 0.5V0H301.04V0.5V1H304.017V0.5ZM299.055 0.5V0H296.078V0.5V1H299.055V0.5ZM294.093 0.5V0H291.116V0.5V1H294.093V0.5ZM289.131 0.5V0H286.154V0.5V1H289.131V0.5ZM284.17 0.5V0H281.192V0.5V1H284.17V0.5ZM279.208 0.5V0H276.23V0.5V1H279.208V0.5ZM274.246 0.5V0L271.269 0V0.5V1L274.246 1V0.5ZM269.284 0.5V0H266.307V0.5V1H269.284V0.5ZM264.322 0.5V0H261.345V0.5V1H264.322V0.5ZM259.36 0.5V0H256.383V0.5V1H259.36V0.5ZM254.398 0.5V0H251.421V0.5V1H254.398V0.5ZM249.436 0.5V0H246.459V0.5V1H249.436V0.5ZM244.474 0.5V0H241.497V0.5V1H244.474V0.5ZM239.512 0.5V0H236.535V0.5V1H239.512V0.5ZM234.55 0.5V0H231.573V0.5V1H234.55V0.5ZM229.589 0.5V0H226.611V0.5V1H229.589V0.5ZM224.627 0.5V0L221.65 0V0.5V1L224.627 1V0.5ZM219.665 0.5V0H216.688V0.5V1H219.665V0.5ZM214.703 0.5V0H211.726V0.5V1H214.703V0.5ZM209.741 0.5V0H206.764V0.5V1H209.741V0.5ZM204.779 0.5V0H201.802V0.5V1H204.779V0.5ZM199.817 0.5V0H196.84V0.5V1H199.817V0.5ZM194.855 0.5V0H191.878V0.5V1H194.855V0.5ZM189.893 0.5V0H186.916V0.5V1H189.893V0.5ZM184.931 0.5V0H181.954V0.5V1H184.931V0.5ZM179.97 0.5V0H176.992V0.5V1H179.97V0.5ZM175.008 0.5V0L172.03 0V0.5V1L175.008 1V0.5ZM170.046 0.5V0H167.069V0.5V1H170.046V0.5ZM165.084 0.5V0H162.107V0.5V1H165.084V0.5ZM160.122 0.5V0H157.145V0.5V1H160.122V0.5ZM155.16 0.5V0H152.183V0.5V1H155.16V0.5ZM150.198 0.5V0H147.221V0.5V1H150.198V0.5ZM145.236 0.5V0H142.259V0.5V1H145.236V0.5ZM140.274 0.5V0H137.297V0.5V1H140.274V0.5ZM135.312 0.5V0H132.335V0.5V1H135.312V0.5ZM130.351 0.5V0H127.373V0.5V1H130.351V0.5ZM125.389 0.5V0L122.411 0V0.5V1L125.389 1V0.5ZM120.427 0.5V0H117.45V0.5V1H120.427V0.5ZM115.465 0.5V0H112.488V0.5V1H115.465V0.5ZM110.503 0.5V0H107.526V0.5V1H110.503V0.5ZM105.541 0.5V0H102.564V0.5V1H105.541V0.5ZM100.579 0.5V0H97.602V0.5V1H100.579V0.5ZM95.6172 0.5V0H92.6401V0.5V1H95.6172V0.5ZM90.6553 0.5V0H87.6782V0.5V1H90.6553V0.5ZM85.6935 0.5V0H82.7163V0.5V1H85.6935V0.5ZM80.7315 0.5V0H77.7544V0.5V1H80.7315V0.5ZM75.7696 0.5V0L72.7925 0V0.5V1L75.7696 1V0.5ZM70.8077 0.5V0H67.8306V0.5V1H70.8077V0.5ZM65.8458 0.5V0H62.8687V0.5V1H65.8458V0.5ZM60.8839 0.5V0H57.9068V0.5V1H60.8839V0.5ZM55.922 0.5V0H52.9448V0.5V1H55.922V0.5ZM50.9601 0.5V0H47.9829V0.5V1H50.9601V0.5ZM45.9982 0.5V0H43.021V0.5V1H45.9982V0.5ZM41.0362 0.5V0H38.0591V0.5V1H41.0362V0.5ZM36.0743 0.5V0H33.0972V0.5V1H36.0743V0.5ZM31.1124 0.5V0H28.1353V0.5V1H31.1124V0.5ZM26.1505 0.5V0L23.1734 0V0.5V1L26.1505 1V0.5ZM21.1886 0.5V0H19.7V0.5V1H21.1886V0.5ZM19.7 0.5V0C19.2582 0 18.8306 0 18.4168 0.000370026L18.4173 0.50037L18.4177 1.00037C18.831 1 19.2581 1 19.7 1V0.5ZM16.7079 0.50544L16.7049 0.00544739C15.7739 0.0109634 14.9188 0.0220795 14.1296 0.0445366L14.1438 0.544334L14.1581 1.04413C14.9367 1.02198 15.7836 1.01093 16.7108 1.00543L16.7079 0.50544ZM12.4366 0.619064L12.4052 0.120045C11.4421 0.180496 10.5833 0.271793 9.80279 0.410694L9.8904 0.902958L9.978 1.39523C10.7098 1.26499 11.5288 1.17702 12.4679 1.11808L12.4366 0.619064ZM8.23373 1.3151L8.07513 0.840919C7.63689 0.987503 7.2227 1.15984 6.82512 1.36242L7.05211 1.80792L7.27911 2.25343C7.63022 2.07452 7.99847 1.92102 8.39234 1.78928L8.23373 1.3151ZM7.05211 1.80792L6.82512 1.36242C6.47403 1.54131 6.13273 1.73611 5.80214 1.9459L6.07005 2.36807L6.33796 2.79023C6.6421 2.59723 6.95609 2.41801 7.27911 2.25343L7.05211 1.80792ZM4.8509 3.25384L4.53219 2.86859C3.9266 3.36958 3.36958 3.92661 2.86859 4.53218L3.25384 4.8509L3.63909 5.16962C4.10001 4.61248 4.61248 4.10001 5.16962 3.6391L4.8509 3.25384ZM2.36807 6.07005L1.9459 5.80214C1.73611 6.13273 1.54131 6.47403 1.36242 6.82512L1.80792 7.05211L2.25343 7.27911C2.41801 6.95609 2.59723 6.6421 2.79023 6.33796L2.36807 6.07005ZM1.80792 7.05211L1.36242 6.82512C1.15984 7.2227 0.987504 7.63689 0.84092 8.07513L1.3151 8.23373L1.78928 8.39234C1.92102 7.99847 2.07452 7.63022 2.25343 7.27911L1.80792 7.05211ZM0.90296 9.8904L0.410694 9.80279C0.271793 10.5833 0.180497 11.4421 0.120046 12.4052L0.619064 12.4366L1.11808 12.4679C1.17703 11.5288 1.26499 10.7098 1.39522 9.978L0.90296 9.8904ZM0.544333 14.1438L0.0445353 14.1296C0.0220807 14.9188 0.010965 15.7739 0.00544724 16.7049L0.505438 16.7079L1.00543 16.7108C1.01093 15.7836 1.02198 14.9367 1.04413 14.1581L0.544333 14.1438ZM0.500372 18.4173L0.000371933 18.4168C-5.96046e-08 18.8306 0 19.2582 0 19.7H0.5H1C1 19.2581 1 18.831 1.00037 18.4177L0.500372 18.4173Z" fill="#FFDDB1"/>
</svg>
