<svg xmlns="http://www.w3.org/2000/svg" fill="none" viewBox="4.157737816901409 376.19039999999995 357.73943661971833 52.826" style="max-height: 500px" width="357.73943661971833" height="52.826">
<path fill="#CBA670" d="M7.0592 27.8301C7.0592 21.1095 7.0592 17.7492 8.36713 15.1822C9.51761 12.9243 11.3534 11.0885 13.6113 9.93805C16.1783 8.63013 19.5386 8.63013 26.2592 8.63013H338.241C344.961 8.63013 348.322 8.63013 350.889 9.93805C353.147 11.0885 354.982 12.9243 356.133 15.1822C357.441 17.7492 357.441 21.1095 357.441 27.8301V404.698C357.441 411.419 357.441 414.779 356.133 417.346C354.982 419.604 353.147 421.44 350.889 422.59C348.322 423.898 344.961 423.898 338.241 423.898H26.2592C19.5386 423.898 16.1783 423.898 13.6113 422.59C11.3534 421.44 9.51761 419.604 8.36713 417.346C7.0592 414.779 7.0592 411.419 7.0592 404.698V27.8301Z"/>
<path fill="#A76A43" d="M6.06068 68.7132C6.04869 66.9131 6.11354 64.3721 6.11696 62.2486C6.13195 53.3527 6.17691 50.0563 6.20241 42.0075C6.21296 38.6811 6.21395 33.5301 6.21965 27.8301C6.37133 23.7014 5.67893 19.1625 7.64169 14.8126C8.92048 12.3043 11.0127 10.3604 13.2588 9.24625C17.0021 7.57396 20.3279 8.05978 22.6001 7.97863C24.8944 8.01334 26.2534 8.08997 26.2592 8.17651C26.2592 8.17653 26.2592 8.17654 26.2592 8.17655C26.2592 8.18097 26.2557 8.18543 26.2488 8.18996C26.1232 8.275 23.1112 8.37098 22.6619 8.47653C22.226 8.60378 22.5267 9.11189 18.3281 9.39554C17.0739 9.52222 15.4316 9.69498 13.8842 10.4737C11.9023 11.4568 9.98789 13.243 8.86875 15.4378C6.92082 19.9909 7.72894 25.3525 7.54783 27.0308C7.54831 27.2952 7.54955 27.5517 7.55134 27.8301C7.5651 29.9344 7.61081 32.4112 7.61977 34.9723C7.65238 44.2988 7.61071 49.1789 7.76552 57.5815C7.68394 60.9426 7.60235 64.3036 7.52077 67.6646C7.5586 72.0499 7.451 78.6961 7.45693 81.3603C7.4618 83.5459 7.52631 84.8269 7.52931 87.1048C7.53304 89.6597 7.4634 93.5834 7.47389 98.2308C7.49077 105.85 7.65906 107.205 7.68044 111.777C7.70255 116.517 7.61108 123.889 7.6703 129.938C7.68882 130.696 7.70733 131.455 7.72585 132.214C7.76772 131.67 7.80959 131.127 7.85146 130.583C7.87095 133.63 7.78514 134.94 7.78359 137.739C7.78171 141.033 7.86306 142.713 7.86269 144.93C7.86231 146.746 7.79708 149.207 7.80116 151.562C7.80679 154.994 7.90097 154.243 7.9186 156.09C7.92544 156.827 7.97742 170.452 7.97817 171.221C7.98188 177.067 7.85296 177.576 7.84169 182.237C7.81095 195.166 7.91512 208.438 7.95449 220.397C7.9721 225.738 7.96461 231.309 7.94399 236.634C7.61405 228.247 7.35727 246.808 7.87355 239.866C7.80011 245.791 7.93948 249.991 7.91591 255.608C7.90054 259.24 7.82895 261.754 7.83083 266.941C7.83461 276.145 8.03809 286.212 7.6703 288.859C7.73514 299.663 7.60173 309.02 7.92641 312.914C7.94624 315.7 7.75285 322.84 7.72658 325.965C7.70183 328.92 7.61451 351.594 7.60964 355.303C7.60476 359.013 7.59946 365.506 7.62795 368.63C7.66319 372.555 7.99991 375.298 7.60622 382.286C7.63808 390.411 7.62681 393.305 7.58107 400.862C7.5728 402.23 7.51435 402.385 7.5143 403.184C7.5143 403.615 7.51727 404.126 7.52174 404.698C7.53758 406.309 7.54589 408.406 7.61654 410.553C7.66574 414.326 8.42582 416.623 8.80718 417.122C8.90187 417.272 8.94306 417.292 8.92726 417.174C10.0352 419.258 11.8045 420.972 13.9067 422.011C14.4903 422.301 15.1137 422.512 15.7629 422.665C16.7775 422.952 17.862 423.105 18.9554 423.213C20.6309 423.279 22.3318 423.247 24.0293 423.215C23.2579 423.317 24.573 423.364 26.2592 423.364C28.9282 423.365 32.5117 423.268 30.1249 423.173C36.3015 423.229 42.4781 423.285 48.6547 423.341C47.7928 423.65 62.2166 423.377 61.0022 423.209C61.709 423.209 62.4157 423.209 63.1225 423.21C69.3099 423.292 74.992 423.225 82.5339 423.28C90.0751 423.335 89.3672 423.365 91.6605 423.507C93.4352 423.499 95.2097 423.491 96.9844 423.483C106.296 423.093 104.65 423.768 120.596 423.469C125.691 423.714 138.249 423.585 146.576 423.511C147.545 423.502 147.561 423.455 148.852 423.44C152.007 423.405 160.057 423.466 159.782 423.312C162.569 423.357 165.355 423.401 168.142 423.445C170.42 423.418 172.698 423.39 174.976 423.362C174.964 423.314 174.953 423.266 174.941 423.218C179.528 423.381 186.735 423.319 190.29 423.358C190.998 423.366 191.151 423.432 193.35 423.45C195.92 423.471 200.71 423.452 203.773 423.472C204.964 423.399 206.154 423.326 207.345 423.253C212.822 423.213 214.748 423.406 217.964 423.421C218.543 423.424 229.109 423.41 229.678 423.406C234.338 423.373 233.018 423.209 246.496 423.244C248.897 423.25 250.838 423.307 253.007 423.309C256.84 423.314 268.388 423.184 269.296 423.065C273.944 423.214 286.381 423.154 290.044 423.197C291.149 423.21 291.399 423.305 294.797 423.325C297.552 423.342 304.647 423.266 308.142 423.278C311.85 423.292 313.175 423.372 314.837 423.378C316.407 423.383 317.854 423.318 319.993 423.319C326.672 423.321 332.72 423.425 337.999 423.427C338.08 423.427 338.16 423.427 338.241 423.427C342.735 423.331 347.228 423.724 350.61 422.044C352.78 420.888 354.462 419.072 355.472 417.009C355.494 416.965 355.515 416.919 355.536 416.874C356.177 415.584 356.459 414.107 356.592 412.488C356.782 409.972 356.744 407.351 356.754 404.698C356.765 386.208 356.797 366.203 356.832 348.165C356.851 338.591 357.11 314.782 356.678 321.137C356.602 317.809 356.776 293.617 356.779 289.015C356.782 284.414 356.704 280.767 356.703 277.151C356.7 266.239 356.755 258.554 356.688 245.271C356.67 241.841 356.578 238.165 356.58 236.133C356.581 233.686 356.67 231.053 356.676 227.882C356.688 220.326 356.659 206.243 356.674 198.993C356.677 197.669 356.755 197.204 356.78 195.311C356.875 187.939 356.867 179.675 356.618 181.137C356.759 171.688 356.63 162.946 356.622 154.189C356.606 135.673 356.664 101.945 356.56 85.8145C356.494 75.6438 356.382 75.904 356.478 60.9294C356.5 57.6054 356.529 54.2961 356.554 50.2644C356.606 42.0454 356.769 34.417 356.647 27.8301C356.629 26.8411 356.604 25.8774 356.567 24.9458C356.53 21.4563 356.643 18.0651 355.396 15.5578C354.291 13.3651 352.524 11.6743 350.531 10.6402C347.94 9.34188 344.778 9.43658 341.883 9.27826C340.965 9.3206 340.053 9.3704 339.135 9.42092C338.833 9.42108 338.544 9.42138 338.241 9.42167C337.251 9.42264 336.262 9.42361 335.273 9.42458C334.871 9.37595 334.47 9.32733 334.068 9.2787C324.85 9.26561 313.155 9.46546 305.352 9.46401C292.269 9.46176 258.573 9.38411 246.167 9.3185C239.581 9.28365 239.226 9.3878 235.456 9.17372C233.983 9.18862 232.51 9.20351 231.036 9.2184C230.115 9.26528 229.193 9.31215 228.271 9.35903C219.821 9.3609 209.799 9.28809 201.749 9.28884C187.081 9.29033 165.055 9.41935 150.326 9.33461C146.632 9.31324 142.016 9.21658 138.399 9.21767C133.135 9.21917 131.856 9.37959 125.176 9.38259C113.663 9.38746 92.2219 9.2011 81.3401 9.21535C78.108 9.21948 76.6001 9.27917 74.3683 9.28554C65.0103 9.31291 57.3273 9.30805 48.354 9.40029C38.719 9.24656 39.5514 9.04813 36.5654 8.84792C34.3025 8.6968 27.3636 8.3466 26.3786 8.21425C25.6867 8.12127 28.2701 8.00166 27.3005 7.89931C38.844 7.81757 43.6937 7.90755 53.0671 8.05153C70.3774 8.04579 87.6876 8.04005 104.998 8.03432C106.573 8.09018 108.148 8.14605 109.723 8.20192C109.723 8.20204 109.723 8.20216 109.723 8.20228C116.37 8.26676 119.188 8.12288 122.773 8.09022C157.096 7.77752 224.652 8.02226 262.438 8.05751C270.581 8.06501 297.068 7.98972 302.655 8.08046C304.102 8.10409 304.504 8.19023 306.043 8.19398C316.776 8.154 327.508 8.11401 338.241 8.07402C341.263 8.08282 344.275 7.97496 347.359 8.33034C348.634 8.50328 349.948 8.8064 351.149 9.42712C353.488 10.6245 355.435 12.5792 356.622 14.9332C358.503 19.1708 357.831 23.5668 357.968 27.8301C357.952 48.416 358.013 69.2478 358.028 89.6979C358.084 166.778 358.152 243.089 358.131 318.907C358.127 333.559 358.191 352.154 358.15 366.499C358.133 372.486 357.994 374.98 358.097 382.845C358.06 382.928 358.023 383.01 357.986 383.093C358.031 389.956 358.115 394.342 358.124 402.037C358.125 402.792 358.126 403.69 358.126 404.698C357.953 408.133 358.782 412.964 356.748 417.66C355.491 420.158 353.377 422.115 351.201 423.204C348.607 424.46 346.234 424.392 344.76 424.501C341.756 424.59 342.877 424.483 340.098 424.502C339.55 424.504 338.925 424.505 338.241 424.508C333.052 424.526 324.467 424.601 318.686 424.601C312.76 424.601 302.77 424.521 298.214 424.532C281.807 424.574 263.935 424.693 246.45 424.661C241.62 424.652 235.408 424.561 233.895 424.564C230.941 424.569 230.061 424.657 228.076 424.668C217.995 424.725 202.281 424.621 192.399 424.617C160.2 424.603 126.089 424.642 94.0286 424.625C75.4215 424.616 45.5019 424.628 26.2592 424.579C24.5548 424.574 22.9282 424.572 21.399 424.537C17.3291 424.342 18.4083 424.475 14.9666 423.721C14.3768 423.547 13.8388 423.333 13.357 423.09C10.7973 421.754 9.59493 420.348 8.68697 419.098C8.37584 418.653 8.0774 418.164 7.80487 417.633C6.07235 414.121 6.49295 409.507 6.39568 404.698C6.36841 391.998 6.35098 376.672 6.39699 368.723C6.40973 366.539 6.48503 364.954 6.48476 363.646C6.48476 362.985 6.43337 361.489 6.42811 359.412C6.38162 341.065 6.41159 327.688 6.42921 309.711C6.46258 275.28 6.36698 235.387 6.41871 199.217C6.42996 191.337 6.57891 185.932 6.57741 184.824C6.5744 182.393 6.47422 180.836 6.44948 175.911C6.36814 159.535 6.47504 137.481 6.42482 121.906C6.40008 114.211 6.2729 103.637 6.24476 96.0643C6.22227 90.0162 6.27216 75.7326 6.21632 73.0519C6.18259 71.4209 6.07425 70.6664 6.06068 68.7132ZM7.74721 272.467C7.57399 271.389 7.71794 282.713 7.81093 278.465C7.83187 277.508 7.79217 272.745 7.74721 272.467ZM357.054 385.029C357.004 385.132 356.955 385.236 356.905 385.34C356.926 386.826 356.946 388.313 356.967 389.799C356.997 388.964 357.026 388.129 357.056 387.293C357.055 386.538 357.054 385.783 357.054 385.029Z"/>
<g filter="url(#filter0_d_66_2198)">
<path fill="#FBE7A0" d="M6.25 37.1327C6.25 33.1264 6.2482 29.6784 6.32429 26.8504C6.40269 23.9362 6.57542 21.0369 7.04339 18.2477C7.74162 14.0866 8.8561 10.7023 10.2264 8.58208C11.1449 7.16104 12.0997 6.63653 13.0594 6.39843C13.9907 6.16739 15.1262 6.17286 16.4455 6.17286H21.3581C22.0068 6.17286 22.3311 6.17286 22.562 6.30514C22.7647 6.42122 22.9203 6.60458 23.0019 6.82339C23.0949 7.07274 23.0422 7.39277 22.9369 8.03281L21.5255 16.6042C21.376 17.5121 21.3013 17.9661 21.1564 18.3448C20.6682 19.6215 19.562 20.5605 18.223 20.8347C17.8258 20.9161 17.3657 20.9161 16.4455 20.9161C15.0461 20.9161 14.1423 20.9231 13.4545 21.0937C12.7952 21.2573 12.5504 21.5343 12.4304 21.72C11.9738 22.4266 11.6026 23.5539 11.3699 24.9403C11.3088 25.3047 11.2175 26.048 11.1637 28.0502C11.1075 30.1387 11.1052 32.8831 11.1052 37.1327V45.035C11.1052 45.6614 11.1052 45.9747 11.0577 46.28C11.0156 46.5511 10.9457 46.8171 10.8491 47.0739C10.7403 47.3631 10.5864 47.6358 10.2784 48.1813L9.24331 50.0148C8.35867 51.5818 7.91635 52.3653 7.51535 52.4757C7.16956 52.5709 6.79928 52.4736 6.54495 52.2207C6.25 51.9275 6.25 51.0277 6.25 49.2283V37.1327Z"/>
<path fill="#A76A43" d="M6.00037 42.6715C5.99737 42.5369 6.01359 42.3469 6.01444 42.188C6.01819 41.5227 6.02943 41.2762 6.0358 40.6743C6.04527 39.7817 6.02396 37.1328 6.1366 37.1327C6.1366 37.1327 6.13661 37.1327 6.13661 37.1327C6.13771 37.1327 6.13883 37.133 6.13996 37.1335C6.16142 37.1428 6.18485 37.3681 6.20911 37.4015C6.23339 37.4349 6.39012 37.4099 6.39893 37.7299C6.41054 38.1939 6.37036 39.3069 6.37214 39.5543C6.37337 39.7235 6.38761 39.9318 6.39014 40.1481C6.3983 40.8456 6.38788 41.2106 6.42658 41.839C6.40619 42.0904 6.38579 42.3417 6.36539 42.5931C6.37485 42.9211 6.34795 43.4181 6.34943 43.6174C6.35065 43.7808 6.36678 43.8766 6.36753 44.047C6.36846 44.238 6.35105 44.5315 6.35368 44.8791C6.35789 45.4488 6.39997 45.5502 6.40531 45.8921C6.41084 46.2466 6.38797 46.798 6.40278 47.2503C6.40741 47.3071 6.41204 47.3638 6.41666 47.4205C6.42713 47.3799 6.4376 47.3392 6.44807 47.2986C6.45294 47.5264 6.43149 47.6244 6.4311 47.8338C6.43063 48.0801 6.45097 48.2058 6.45087 48.3716C6.45078 48.5073 6.43447 48.6915 6.43549 48.8675C6.4369 49.1242 6.46045 49.0681 6.46485 49.2062C6.46496 49.2098 6.46512 49.2173 6.46531 49.2283C6.46764 49.3903 6.48097 50.282 6.4834 50.3358C6.49081 50.7695 6.45877 50.8083 6.47356 51.1501C6.49278 51.4948 6.53243 51.9229 6.68511 52.0797C6.88941 52.2807 7.20029 52.349 7.45853 52.2693C7.57171 52.2369 7.72984 52.0609 7.85045 51.8955C8.07303 51.5907 8.28463 51.2325 8.48793 50.8948C8.24591 51.4757 8.99374 50.3111 8.62349 50.695C8.80419 50.4078 8.918 50.1704 9.05796 49.9102C9.10024 49.8315 9.14477 49.7509 9.19406 49.6664C9.33096 49.4317 9.43897 49.2768 9.62927 48.9388C9.79341 48.6471 9.95479 48.3363 10.0977 48.0793C10.249 47.8077 10.3767 47.5979 10.4652 47.532C10.5568 47.3528 10.6402 47.1824 10.701 47.0182C10.8075 46.7337 10.8687 46.4676 10.8908 46.254C10.9067 46.0995 10.8995 45.9714 10.8783 45.8815C10.8839 45.7123 10.9191 45.2984 10.9331 45.035C10.9355 44.9903 10.9374 44.9499 10.9383 44.9159C10.9445 44.6949 10.9663 42.9992 10.9676 42.7217C10.9688 42.4443 10.9701 41.9587 10.963 41.7251C10.9542 41.4315 10.87 41.2264 10.9684 40.7038C10.9605 40.0962 10.9633 39.8797 10.9747 39.3146C10.9768 39.2122 10.9914 39.2007 10.9914 39.1409C10.9914 39.0178 10.9806 38.8083 10.9793 38.5885C10.9771 38.227 11.0079 38.0208 10.9609 38.0611C10.953 37.8228 10.9452 37.5845 10.9373 37.3462C10.945 37.275 10.9527 37.2039 10.9604 37.1327C10.9618 37.1202 10.9631 37.1076 10.9645 37.095C10.9546 36.9663 10.9447 36.8399 10.9349 36.7129C11.0028 36.8619 10.9628 35.965 10.9238 36.2565C10.9379 35.7948 10.9521 35.3331 10.9665 34.8711C11.0436 34.9343 10.9764 33.856 10.9344 33.9472C10.9345 33.8951 10.9347 33.8415 10.9348 33.7884C10.9562 33.3256 10.9403 32.9 10.9562 32.337C10.9723 31.772 10.9798 31.8265 11.0162 31.6539C11.0149 31.5222 11.0136 31.3875 11.0125 31.2562C10.9206 30.5575 11.086 30.6833 11.027 29.4894C11.0774 29.2015 11.0805 28.5963 11.0813 28.048C11.0815 27.8684 11.0813 27.6985 11.0819 27.5451C11.0822 27.4735 11.0704 27.4696 11.0701 27.3742C11.0688 27.1365 11.1127 26.5367 11.0743 26.5537C11.0964 26.3464 11.1202 26.1372 11.1469 25.9291C11.1527 25.758 11.1602 25.5874 11.1715 25.4147C11.1595 25.4143 11.1475 25.4139 11.1355 25.4135C11.1676 25.2713 11.1961 25.094 11.2293 24.9167C11.2752 24.6701 11.3206 24.4239 11.3589 24.2715C11.3722 24.2194 11.39 24.2117 11.431 24.051C11.4786 23.8627 11.5636 23.5119 11.6365 23.2915C11.6448 23.2002 11.6545 23.1083 11.6655 23.0168C11.7896 22.6177 11.8938 22.4997 11.9958 22.2777C12.0073 22.2487 12.1853 21.8683 12.3281 21.6539C12.387 21.5611 12.4438 21.4994 12.4522 21.4894C12.7058 21.259 12.6225 21.1736 13.4148 20.9337C13.4809 20.9174 13.5534 20.9018 13.6328 20.8873C13.8163 20.8543 13.9659 20.8495 14.1304 20.833C14.4218 20.7958 15.2911 20.7415 15.3587 20.7132C15.5881 20.7337 16.0655 20.7339 16.4455 20.7356C16.6464 20.7364 16.8188 20.7368 16.913 20.7401C16.9958 20.7429 17.014 20.7675 17.267 20.7692C17.4624 20.7713 17.9444 20.7395 18.1918 20.6826C18.2048 20.68 18.2172 20.6774 18.2291 20.6751C18.4898 20.6202 18.5859 20.6051 18.7003 20.5682C18.8079 20.5315 18.8998 20.4789 19.0398 20.4146C19.4764 20.2134 19.8476 19.9695 20.1232 19.7026C20.5226 19.3148 20.752 18.8681 20.9145 18.4447C20.9401 18.3903 20.9659 18.3369 20.9905 18.2814C21.0116 18.2336 21.0313 18.1841 21.0479 18.1315C21.1915 17.6607 21.2643 17.1166 21.3589 16.5768C21.5376 15.5148 21.7233 14.4248 21.8959 13.4182C22.0169 12.7124 22.3701 10.966 22.1862 11.4174C22.208 11.1688 22.5449 9.3906 22.6015 9.05112C22.6581 8.71174 22.6832 8.43947 22.7269 8.17259C22.7363 8.11485 22.7457 8.05835 22.7549 8.00285C22.8149 7.58863 22.9282 7.18176 22.8334 6.88624C22.7726 6.72265 22.6522 6.5655 22.4706 6.46472C22.4113 6.43186 22.3386 6.40974 22.2503 6.39588C22.0287 6.36272 21.7497 6.39091 21.6009 6.38848C21.5236 6.388 21.4432 6.38389 21.3581 6.3791C21.2435 6.37265 21.1207 6.36499 20.9846 6.36418C20.4195 6.361 19.3662 6.3683 18.8241 6.36446C18.7251 6.36371 18.6903 6.34421 18.5487 6.33812C17.9973 6.31431 17.3793 6.31638 17.4887 6.37862C17.1297 6.36067 16.7843 6.36015 16.4455 6.36425C16.1173 6.36824 15.7959 6.37609 15.4754 6.38041C14.8356 6.39329 13.9418 6.39416 13.1086 6.59658C12.1416 6.80943 11.369 7.45373 10.9834 7.93565C10.6923 8.29325 10.6151 8.44049 10.4357 8.71735C10.3327 8.88155 10.1961 9.09487 9.99216 9.4473C9.87018 9.65918 9.75169 9.87243 9.61703 10.1374C9.30175 10.7589 9.01436 11.3389 8.88735 11.8622C8.60376 12.5871 8.43031 13.1841 8.21761 13.7246C8.2109 13.7935 8.20435 13.8628 8.19794 13.9322C8.17209 14.0248 8.14706 14.116 8.12199 14.2088C8.10237 14.2345 8.08276 14.2602 8.06316 14.2861C7.87923 14.9466 7.72891 15.8063 7.60963 16.3749C7.51889 16.7998 7.37146 17.5225 7.23908 18.2806C7.07256 19.2199 6.94107 20.211 6.87682 20.7194C6.8153 21.2066 6.8399 21.2355 6.75945 21.5103C6.75278 21.62 6.74644 21.7298 6.74042 21.8396C6.746 21.9091 6.7517 21.9787 6.75754 22.0481C6.70393 22.6758 6.63505 23.4205 6.60227 24.0204C6.55743 24.8144 6.53121 25.8994 6.50747 26.8553C6.49824 27.2154 6.48881 27.5568 6.47702 27.8576C6.46615 28.133 6.43604 28.4784 6.4323 28.7482C6.42695 29.1412 6.46568 29.2379 6.46087 29.7369C6.45193 30.5968 6.39731 32.1999 6.39936 33.0133C6.39979 33.2559 6.4145 33.3672 6.41577 33.5351C6.42137 34.2338 6.4198 34.8096 6.44266 35.48C6.40407 36.2007 6.35453 36.1379 6.30445 36.3619C6.26666 36.5306 6.17912 37.0495 6.14603 37.1238C6.12279 37.1757 6.09289 36.9819 6.0673 37.0546C6.04686 36.191 6.06932 35.8289 6.10559 35.1274C6.10479 33.8328 6.10508 32.5383 6.11139 31.2431C6.12607 31.1249 6.1408 31.0074 6.15558 30.8899C6.15561 30.8899 6.15564 30.8899 6.15567 30.8899C6.17533 30.3928 6.14145 30.1811 6.13592 29.9131C6.11941 29.0928 6.12227 28.0193 6.15087 26.8457C6.202 24.3421 6.4315 21.3836 6.71256 19.4735C6.7475 19.222 6.81418 18.7347 6.89835 18.2234C7.01507 17.5033 7.16636 16.7386 7.2299 16.5009C7.25775 16.3957 7.28474 16.3718 7.30982 16.2582C7.51212 15.2472 7.75058 14.2419 8.03825 13.2502C8.56227 11.634 9.17488 9.9803 10.1074 8.50517C10.3418 8.13874 10.6058 7.78808 10.909 7.4749C11.4741 6.87913 12.2233 6.43949 13.0226 6.25022C14.1655 5.97819 15.3162 6.02338 16.4455 6.01193C18.0871 6.00816 19.7244 6.00484 21.3581 6.00255C21.7676 6.0212 22.1713 5.93136 22.6474 6.15605C22.8832 6.29006 23.0692 6.50886 23.1635 6.76312C23.3088 7.27027 23.1551 7.65421 23.1078 8.06096C22.9296 9.14618 22.751 10.2298 22.5718 11.3119C22.3928 12.393 22.1828 13.7678 21.9982 14.8246C21.9212 15.2657 21.8567 15.4442 21.7866 16.0288C21.7764 16.0333 21.7662 16.0379 21.756 16.0425C21.7251 16.2603 21.7014 16.4448 21.6773 16.6292C21.6448 16.8759 21.6132 17.1215 21.5559 17.4484C21.5158 17.6585 21.4604 18.0259 21.3176 18.4065C21.1411 18.8847 20.8378 19.33 20.6767 19.5216C20.5278 19.699 20.571 19.6224 20.4253 19.7803C20.1838 20.0574 19.561 20.5587 19.0812 20.7473C18.8634 20.843 18.5556 20.9419 18.2562 20.997C17.967 21.0512 17.6981 21.0562 17.5302 21.0646C17.1731 21.0795 16.8128 21.0816 16.4455 21.0869C15.5361 21.1066 14.5789 21.0854 13.696 21.2359C13.6323 21.2476 13.566 21.2608 13.4997 21.2756C13.2091 21.3352 12.9397 21.4591 12.875 21.5079C12.7149 21.6205 12.6967 21.6801 12.6237 21.7781C12.6133 21.7932 12.6031 21.8088 12.593 21.8251C12.2033 22.4266 11.8486 23.4935 11.7 24.1845C11.6418 24.4429 11.591 24.7047 11.5463 24.9699C11.397 25.9614 11.3773 27.0141 11.3448 28.0551C11.3155 29.2079 11.3056 30.3594 11.2968 31.4789C11.2845 32.9915 11.2883 35.5103 11.2718 36.9077C11.2703 37.0279 11.2657 37.0881 11.2606 37.1327C11.2529 37.1993 11.2442 37.231 11.2442 37.3832C11.2442 37.664 11.2604 37.8161 11.2617 37.9473C11.2709 38.8556 11.2873 40.8606 11.2707 41.7182C11.2675 41.8815 11.2487 42 11.2488 42.0978C11.2488 42.1473 11.2616 42.2591 11.2629 42.4145C11.2712 43.3902 11.2698 44.1779 11.2667 45.035C11.2629 45.3841 11.2738 45.7419 11.2338 46.1473C11.2281 46.1994 11.2212 46.2518 11.2129 46.3041C11.1691 46.5813 11.0967 46.8585 10.9949 47.1287C10.8391 47.5339 10.6182 47.8889 10.4147 48.2583C10.0756 48.8611 9.73042 49.4764 9.3836 50.094C8.82471 50.9585 8.5865 51.9672 7.55863 52.633C7.22117 52.7271 6.8476 52.6556 6.57179 52.4528C6.52081 52.4158 6.47456 52.3754 6.43318 52.3331C6.20706 52.0668 6.21944 51.8332 6.19201 51.6724C6.17564 51.5078 6.17602 51.4034 6.17213 51.3649C6.15669 51.1806 6.12328 51.0638 6.10728 50.6926C6.08933 50.2446 6.08921 49.7432 6.0899 49.2283C6.09148 48.3287 6.0994 47.391 6.09141 46.6497C6.08522 46.0742 6.05343 45.2834 6.04639 44.717C6.04077 44.2647 6.05324 43.1965 6.03928 42.996C6.03085 42.874 6.00376 42.8176 6.00037 42.6715ZM9.85062 48.5892C9.84872 48.6806 10.2337 47.9255 10.0573 48.1907C10.0175 48.2505 9.85107 48.5655 9.85062 48.5892ZM21.5026 16.1475C21.4891 16.1531 21.4757 16.1588 21.4622 16.1644C21.4492 16.275 21.4362 16.3855 21.4233 16.496C21.4407 16.4356 21.4582 16.3751 21.4757 16.3147C21.4847 16.259 21.4936 16.2032 21.5026 16.1475Z"/>
<path fill="#FBE7A0" d="M12.7236 26.8306C12.7236 26.2783 13.1713 25.8306 13.7236 25.8306H15.7695C16.3218 25.8306 16.7695 26.2783 16.7695 26.8306V37.1166C16.7695 37.6689 16.3218 38.1166 15.7695 38.1166H13.7236C13.1713 38.1166 12.7236 37.6689 12.7236 37.1166V26.8306Z"/>
<path fill="#A76A43" d="M12.4757 26.7641C12.4749 26.7175 12.4981 26.655 12.5091 26.6024C12.561 26.3833 12.6091 26.3086 12.7219 26.1442C12.8043 26.0224 13.0171 25.8041 13.2624 25.7197C13.5049 25.628 13.7273 25.6621 13.7236 25.7172C13.7236 25.7172 13.7236 25.7172 13.7236 25.7172C13.7236 25.7183 13.7235 25.7194 13.7233 25.7205C13.7199 25.7415 13.6543 25.767 13.647 25.7925C13.6398 25.8179 13.6555 25.9714 13.5847 25.9907C13.4794 26.0076 13.2264 26.0907 13.183 26.1388C13.1515 26.165 13.1238 26.2087 13.0913 26.2478C12.99 26.375 12.9385 26.4542 12.9323 26.6017C12.897 26.6504 12.8662 26.7049 12.8414 26.7642C12.8423 26.7845 12.8414 26.8069 12.8402 26.8306C12.8366 26.9091 12.8219 26.9955 12.823 27.0363C12.8242 27.0811 12.8403 27.1073 12.8411 27.154C12.842 27.2063 12.8246 27.2867 12.8272 27.382C12.8315 27.5381 12.8735 27.5658 12.8789 27.6595C12.8844 27.7566 12.8615 27.9077 12.8763 28.0316C12.881 28.0472 12.8856 28.0627 12.8902 28.0783C12.9007 28.0671 12.9112 28.056 12.9216 28.0448C12.9265 28.1073 12.9051 28.1341 12.9047 28.1915C12.9042 28.259 12.9245 28.2934 12.9244 28.3388C12.9243 28.376 12.908 28.4264 12.9091 28.4747C12.9105 28.545 12.934 28.5296 12.9384 28.5675C12.9401 28.5826 12.9531 28.8617 12.9533 28.8775C12.9542 28.9973 12.922 29.0077 12.9192 29.1032C12.9115 29.3681 12.9375 29.6401 12.9474 29.8851C12.9518 29.9945 12.9499 30.1087 12.9448 30.2178C12.8623 30.0459 12.7981 30.4262 12.9272 30.284C12.9088 30.4054 12.9436 30.4915 12.9377 30.6065C12.9339 30.681 12.916 30.7325 12.9165 30.8387C12.9174 31.0273 12.9683 31.2336 12.8763 31.2878C12.8926 31.5092 12.8592 31.7009 12.9404 31.7807C12.9453 31.8378 12.897 31.9841 12.8904 32.0481C12.8842 32.1087 12.8624 32.5732 12.8612 32.6492C12.86 32.7253 12.8586 32.8583 12.8658 32.9223C12.8746 33.0027 12.9587 33.0589 12.8603 33.2021C12.8683 33.3686 12.8655 33.4279 12.854 33.5827C12.852 33.6107 12.8374 33.6139 12.8373 33.6303C12.8373 33.664 12.8481 33.7214 12.8495 33.7816C12.8516 33.8807 12.8209 33.9372 12.8678 33.9261C12.8757 33.9914 12.8836 34.0567 12.8915 34.122C12.8824 34.1449 12.8733 34.1678 12.8643 34.1907C12.8741 34.2256 12.884 34.2605 12.8939 34.2954C12.8259 34.2544 12.866 34.5001 12.905 34.4203C12.891 34.5469 12.8769 34.6734 12.8629 34.8C12.7856 34.7823 12.8539 35.0779 12.8959 35.053C12.8959 35.0675 12.8958 35.0819 12.8958 35.0964C12.8752 35.2232 12.892 35.3396 12.8782 35.4941C12.8645 35.6487 12.8569 35.6342 12.8214 35.6811C12.8234 35.7175 12.8255 35.7539 12.8275 35.7902C12.9249 35.981 12.7563 35.9473 12.831 36.274C12.7698 36.3784 12.8019 36.6357 12.8205 36.8063C12.8227 36.8262 12.8345 36.8265 12.8382 36.853C12.847 36.9176 12.8317 37.0826 12.8701 37.0769C12.8675 37.0901 12.8649 37.1034 12.8624 37.1166C12.8538 37.1547 12.8478 37.1934 12.8444 37.2332C12.8567 37.2733 12.8717 37.3121 12.8892 37.3491C12.9007 37.3457 12.9122 37.3423 12.9236 37.3389C12.9034 37.4269 12.9747 37.5389 13.0026 37.5944C13.008 37.6058 12.9953 37.6177 13.0157 37.6525C13.0391 37.6937 13.1021 37.7551 13.1418 37.7947C13.1703 37.795 13.1982 37.7939 13.2256 37.7914C13.3067 37.8374 13.3139 37.8931 13.3657 37.9216C13.3733 37.9313 13.5565 37.9839 13.5677 37.9797C13.629 37.9831 13.6358 37.9622 13.7236 37.9552C13.7623 37.9519 13.8149 37.9506 13.8898 37.953C13.9389 37.9546 13.9787 37.9688 14.0232 37.9694C14.1017 37.9704 14.3383 37.9381 14.3569 37.9083C14.4521 37.9456 14.707 37.9304 14.782 37.9412C14.8047 37.9445 14.8098 37.9682 14.8794 37.9733C14.9359 37.9774 15.0812 37.9584 15.1528 37.9616C15.2288 37.965 15.256 37.985 15.29 37.9864C15.3222 37.9877 15.3518 37.9716 15.3957 37.9717C15.5325 37.9723 15.6564 37.9982 15.7646 37.9987C15.7662 37.9987 15.7679 37.9987 15.7695 37.9987C15.9084 37.9981 16.0162 37.9214 16.1018 37.8599C16.1271 37.852 16.1552 37.8492 16.1798 37.8353C16.4238 37.7025 16.6089 37.4137 16.6113 37.1166C16.6133 37.0259 16.6153 36.9365 16.6174 36.8493C16.6221 36.6532 16.6869 36.1653 16.5788 36.2955C16.5599 36.2274 16.6035 35.7317 16.6041 35.6374C16.6048 35.5431 16.5854 35.4684 16.5851 35.3943C16.5843 35.1707 16.5982 35.0133 16.5813 34.7411C16.5769 34.6708 16.554 34.5955 16.5542 34.5539C16.5546 34.5037 16.5768 34.4498 16.5782 34.3848C16.5814 34.23 16.5741 33.9414 16.578 33.7929C16.5787 33.7658 16.5982 33.7562 16.6043 33.7174C16.6281 33.5664 16.626 33.3971 16.5638 33.427C16.5991 33.2334 16.5669 33.0543 16.5649 32.8749C16.5609 32.4955 16.5754 31.8044 16.5493 31.4739C16.5328 31.2655 16.5049 31.2709 16.5289 30.964C16.5343 30.8959 16.5415 30.8281 16.5479 30.7455C16.5629 30.5519 16.6144 30.3743 16.5523 30.2267C16.5684 30.0116 16.557 29.8403 16.6101 29.6808C16.5974 29.662 16.5846 29.6432 16.5719 29.6243C16.5716 29.598 16.5713 29.5716 16.5709 29.5452C16.5831 29.537 16.5952 29.5288 16.6074 29.5206C16.6107 29.3317 16.5607 29.0921 16.5611 28.9322C16.5616 28.6641 16.5811 27.9737 16.5975 27.7195C16.6062 27.5846 16.5801 27.5773 16.6337 27.5001C16.6299 27.4699 16.6262 27.4397 16.6225 27.4095C16.6108 27.3906 16.599 27.3717 16.5873 27.3528C16.5869 27.187 16.6036 26.9917 16.6048 26.8306C16.6049 26.8246 16.6048 26.8186 16.6047 26.8128C16.6144 26.5506 16.3783 26.2272 16.1616 26.1057C16.1103 26.0712 16.0443 26.0193 15.9822 26.0041C15.8964 25.9847 15.867 26.0163 15.7695 26.0183C15.7634 26.0185 15.757 26.0186 15.7503 26.0187C15.5144 26.0199 15.0751 25.9733 14.8521 25.9769C14.7859 25.9779 14.755 25.9928 14.7093 25.9944C14.5176 26.0013 14.3601 26 14.1763 26.0231C13.9789 25.9847 13.9959 25.9351 13.9347 25.885C13.8884 25.8472 13.7462 25.7597 13.726 25.7266C13.7118 25.7034 13.7648 25.6734 13.7449 25.6479C13.9814 25.6274 14.0808 25.6499 14.2729 25.6859C14.6275 25.6845 14.9822 25.683 15.3369 25.6816C15.3692 25.6956 15.4014 25.7095 15.4337 25.7235C15.4337 25.7235 15.4337 25.7236 15.4337 25.7236C15.5699 25.7397 15.6276 25.7038 15.7011 25.6956C15.7232 25.6931 15.7461 25.6908 15.7695 25.6886C16.2314 25.605 16.9753 26.1186 16.9377 26.8306C16.9297 27.2822 16.9165 27.7229 16.9127 28.0529C16.9108 28.2197 16.9296 28.7625 16.907 28.8769C16.9011 28.9066 16.8795 28.9148 16.8786 28.9464C16.8914 29.2281 16.9042 29.5098 16.917 29.7915C16.8835 30.3708 16.9112 30.9698 16.9163 31.5535C16.9303 33.1328 16.9473 34.6964 16.9421 36.2499C16.9412 36.5143 16.9536 36.8415 16.9495 37.1166C16.9489 37.1605 16.9456 37.203 16.94 37.2438C16.9158 37.3875 16.8731 37.4358 16.8213 37.6161C16.8121 37.6139 16.8028 37.6116 16.7936 37.6093C16.7319 37.7561 16.6875 37.8577 16.5541 37.9857C16.4512 38.1079 16.0664 38.2812 15.9246 38.2768C15.8534 38.2832 15.8784 38.2634 15.8133 38.2671C15.8004 38.2676 15.7857 38.2683 15.7695 38.2689C15.6632 38.2735 15.4873 38.2923 15.3689 38.2923C15.2475 38.2923 15.0428 38.2722 14.9494 38.2751C14.6132 38.2854 14.2471 38.3152 13.8888 38.3072C13.8355 38.306 13.7739 38.2989 13.7236 38.2926C13.673 38.2874 13.6331 38.2793 13.6165 38.2781C13.5464 38.2724 13.5219 38.2896 13.4737 38.2828C13.2209 38.2567 12.8974 38.0113 12.7695 37.8104C12.6264 37.6135 12.544 37.366 12.5442 37.1166C12.5427 36.652 12.539 36.1809 12.5418 35.7297C12.5443 35.3147 12.5405 34.625 12.557 34.2418C12.5605 34.1592 12.5846 34.1812 12.5846 34.1118C12.5846 34.0349 12.5683 33.9932 12.567 33.9573C12.5578 33.7085 12.5414 33.1591 12.558 32.9242C12.5612 32.8794 12.58 32.847 12.58 32.8202C12.58 32.8066 12.5671 32.776 12.5658 32.7334C12.5542 32.3575 12.5617 32.0834 12.5661 31.7151C12.5744 31.0096 12.5505 30.1922 12.5634 29.4511C12.5663 29.2897 12.6035 29.1789 12.6031 29.1562C12.6024 29.1064 12.5773 29.0745 12.5711 28.9736C12.5508 28.6381 12.5775 28.1862 12.565 27.8671C12.5588 27.7094 12.527 27.4927 12.52 27.3376C12.5143 27.2137 12.5268 26.921 12.5129 26.8661C12.5093 26.8521 12.5026 26.8413 12.4957 26.8306C12.486 26.812 12.4762 26.7932 12.4757 26.7641ZM12.8956 30.952C12.8523 30.9299 12.8883 31.1619 12.9115 31.0749C12.9167 31.0553 12.9068 30.9577 12.8956 30.952ZM16.5675 37.5401C16.5557 37.536 16.5439 37.5318 16.5322 37.5276C16.5241 37.5532 16.5148 37.5787 16.5043 37.6039C16.5188 37.5955 16.5333 37.5865 16.5475 37.577C16.5545 37.5649 16.5612 37.5525 16.5675 37.5401Z"/>
</g>
<g filter="url(#filter1_d_66_2198)">
<path fill="#FBE7A0" d="M6.25 395.396C6.25 399.402 6.2482 402.85 6.32429 405.678C6.40269 408.592 6.57542 411.492 7.04339 414.281C7.74162 418.442 8.8561 421.826 10.2264 423.946C11.1449 425.368 12.0997 425.892 13.0594 426.13C13.9907 426.361 15.1262 426.356 16.4455 426.356H21.3581C22.0068 426.356 22.3311 426.356 22.562 426.223C22.7647 426.107 22.9203 425.924 23.0019 425.705C23.0949 425.456 23.0422 425.136 22.9369 424.496L21.5255 415.924C21.376 415.016 21.3013 414.562 21.1564 414.184C20.6682 412.907 19.562 411.968 18.223 411.694C17.8258 411.612 17.3657 411.612 16.4455 411.612C15.0461 411.612 14.1423 411.606 13.4545 411.435C12.7952 411.271 12.5504 410.994 12.4304 410.809C11.9738 410.102 11.6026 408.975 11.3699 407.588C11.3088 407.224 11.2175 406.481 11.1637 404.478C11.1075 402.39 11.1052 399.645 11.1052 395.396V387.494C11.1052 386.867 11.1052 386.554 11.0577 386.249C11.0156 385.978 10.9457 385.711 10.8491 385.455C10.7403 385.165 10.5864 384.893 10.2784 384.347L9.24331 382.514C8.35867 380.947 7.91635 380.163 7.51535 380.053C7.16956 379.958 6.79928 380.055 6.54495 380.308C6.25 380.601 6.25 381.501 6.25 383.3V395.396Z"/>
<path fill="#A76A43" d="M6.00037 389.857C5.99737 389.992 6.01359 390.182 6.01444 390.341C6.01819 391.006 6.02943 391.252 6.0358 391.854C6.04527 392.747 6.02396 395.396 6.1366 395.396C6.1366 395.396 6.13661 395.396 6.13661 395.396C6.13771 395.396 6.13883 395.396 6.13996 395.395C6.16142 395.386 6.18485 395.16 6.20911 395.127C6.23339 395.094 6.39012 395.119 6.39893 394.799C6.41054 394.335 6.37036 393.222 6.37214 392.974C6.37337 392.805 6.38761 392.597 6.39014 392.38C6.3983 391.683 6.38788 391.318 6.42658 390.69C6.40619 390.438 6.38579 390.187 6.36539 389.935C6.37485 389.608 6.34795 389.11 6.34943 388.911C6.35065 388.748 6.36678 388.652 6.36753 388.482C6.36846 388.291 6.35105 387.997 6.35368 387.65C6.35789 387.08 6.39997 386.978 6.40531 386.636C6.41084 386.282 6.38797 385.731 6.40278 385.278C6.40741 385.221 6.41204 385.165 6.41666 385.108C6.42713 385.149 6.4376 385.189 6.44807 385.23C6.45294 385.002 6.43149 384.904 6.4311 384.695C6.43063 384.448 6.45097 384.323 6.45087 384.157C6.45078 384.021 6.43447 383.837 6.43549 383.661C6.4369 383.404 6.46045 383.46 6.46485 383.322C6.46496 383.319 6.46512 383.311 6.46531 383.3C6.46764 383.138 6.48097 382.247 6.4834 382.193C6.49081 381.759 6.45877 381.72 6.47356 381.378C6.49278 381.034 6.53243 380.606 6.68511 380.449C6.88941 380.248 7.20029 380.18 7.45853 380.259C7.57171 380.292 7.72984 380.468 7.85045 380.633C8.07303 380.938 8.28463 381.296 8.48793 381.634C8.24591 381.053 8.99374 382.217 8.62349 381.834C8.80419 382.121 8.918 382.358 9.05796 382.618C9.10024 382.697 9.14477 382.778 9.19406 382.862C9.33096 383.097 9.43897 383.252 9.62927 383.59C9.79341 383.881 9.95479 384.192 10.0977 384.449C10.249 384.721 10.3767 384.931 10.4652 384.997C10.5568 385.176 10.6402 385.346 10.701 385.51C10.8075 385.795 10.8687 386.061 10.8908 386.275C10.9067 386.429 10.8995 386.557 10.8783 386.647C10.8839 386.816 10.9191 387.23 10.9331 387.494C10.9355 387.538 10.9374 387.579 10.9383 387.613C10.9445 387.834 10.9663 389.529 10.9676 389.807C10.9688 390.084 10.9701 390.57 10.963 390.804C10.9542 391.097 10.87 391.302 10.9684 391.825C10.9605 392.432 10.9633 392.649 10.9747 393.214C10.9768 393.316 10.9914 393.328 10.9914 393.388C10.9914 393.511 10.9806 393.72 10.9793 393.94C10.9771 394.302 11.0079 394.508 10.9609 394.468C10.953 394.706 10.9452 394.944 10.9373 395.182C10.945 395.254 10.9527 395.325 10.9604 395.396C10.9618 395.408 10.9631 395.421 10.9645 395.434C10.9546 395.562 10.9447 395.689 10.9349 395.816C11.0028 395.667 10.9628 396.564 10.9238 396.272C10.9379 396.734 10.9521 397.195 10.9665 397.657C11.0436 397.594 10.9764 398.673 10.9344 398.581C10.9345 398.633 10.9347 398.687 10.9348 398.74C10.9562 399.203 10.9403 399.629 10.9562 400.192C10.9723 400.757 10.9798 400.702 11.0162 400.875C11.0149 401.006 11.0136 401.141 11.0125 401.272C10.9206 401.971 11.086 401.845 11.027 403.039C11.0774 403.327 11.0805 403.932 11.0813 404.481C11.0815 404.66 11.0813 404.83 11.0819 404.983C11.0822 405.055 11.0704 405.059 11.0701 405.154C11.0688 405.392 11.1127 405.992 11.0743 405.975C11.0964 406.182 11.1202 406.391 11.1469 406.599C11.1527 406.771 11.1602 406.941 11.1715 407.114C11.1595 407.114 11.1475 407.115 11.1355 407.115C11.1676 407.257 11.1961 407.435 11.2293 407.612C11.2752 407.858 11.3206 408.105 11.3589 408.257C11.3722 408.309 11.39 408.317 11.431 408.478C11.4786 408.666 11.5636 409.017 11.6365 409.237C11.6448 409.328 11.6545 409.42 11.6655 409.512C11.7896 409.911 11.8938 410.029 11.9958 410.251C12.0073 410.28 12.1853 410.66 12.3281 410.875C12.387 410.967 12.4438 411.029 12.4522 411.039C12.7058 411.27 12.6225 411.355 13.4148 411.595C13.4809 411.611 13.5534 411.627 13.6328 411.641C13.8163 411.674 13.9659 411.679 14.1304 411.696C14.4218 411.733 15.2911 411.787 15.3587 411.815C15.5881 411.795 16.0655 411.795 16.4455 411.793C16.6464 411.792 16.8188 411.792 16.913 411.788C16.9958 411.786 17.014 411.761 17.267 411.759C17.4624 411.757 17.9444 411.789 18.1918 411.846C18.2048 411.849 18.2172 411.851 18.2291 411.854C18.4898 411.908 18.5859 411.923 18.7003 411.96C18.8079 411.997 18.8998 412.05 19.0398 412.114C19.4764 412.315 19.8476 412.559 20.1232 412.826C20.5226 413.214 20.752 413.66 20.9145 414.084C20.9401 414.138 20.9659 414.192 20.9905 414.247C21.0116 414.295 21.0313 414.344 21.0479 414.397C21.1915 414.868 21.2643 415.412 21.3589 415.952C21.5376 417.014 21.7233 418.104 21.8959 419.11C22.0169 419.816 22.3701 421.563 22.1862 421.111C22.208 421.36 22.5449 423.138 22.6015 423.477C22.6581 423.817 22.6832 424.089 22.7269 424.356C22.7363 424.414 22.7457 424.47 22.7549 424.526C22.8149 424.94 22.9282 425.347 22.8334 425.642C22.7726 425.806 22.6522 425.963 22.4706 426.064C22.4113 426.097 22.3386 426.119 22.2503 426.133C22.0287 426.166 21.7497 426.138 21.6009 426.14C21.5236 426.141 21.4432 426.145 21.3581 426.149C21.2435 426.156 21.1207 426.164 20.9846 426.164C20.4195 426.168 19.3662 426.16 18.8241 426.164C18.7251 426.165 18.6903 426.184 18.5487 426.19C17.9973 426.214 17.3793 426.212 17.4887 426.15C17.1297 426.168 16.7843 426.168 16.4455 426.164C16.1173 426.16 15.7959 426.152 15.4754 426.148C14.8356 426.135 13.9418 426.134 13.1086 425.932C12.1416 425.719 11.369 425.075 10.9834 424.593C10.6923 424.235 10.6151 424.088 10.4357 423.811C10.3327 423.647 10.1961 423.434 9.99216 423.081C9.87018 422.869 9.75169 422.656 9.61703 422.391C9.30175 421.77 9.01436 421.19 8.88735 420.666C8.60376 419.942 8.43031 419.344 8.21761 418.804C8.2109 418.735 8.20435 418.666 8.19794 418.596C8.17209 418.504 8.14706 418.413 8.12199 418.32C8.10237 418.294 8.08276 418.268 8.06316 418.242C7.87923 417.582 7.72891 416.722 7.60963 416.154C7.51889 415.729 7.37146 415.006 7.23908 414.248C7.07256 413.309 6.94107 412.318 6.87682 411.809C6.8153 411.322 6.8399 411.293 6.75945 411.018C6.75278 410.909 6.74644 410.799 6.74042 410.689C6.746 410.619 6.7517 410.55 6.75754 410.48C6.70393 409.853 6.63505 409.108 6.60227 408.508C6.55743 407.714 6.53121 406.629 6.50747 405.673C6.49824 405.313 6.48881 404.972 6.47702 404.671C6.46615 404.396 6.43604 404.05 6.4323 403.78C6.42695 403.387 6.46568 403.291 6.46087 402.792C6.45193 401.932 6.39731 400.329 6.39936 399.515C6.39979 399.273 6.4145 399.161 6.41577 398.994C6.42137 398.295 6.4198 397.719 6.44266 397.049C6.40407 396.328 6.35453 396.391 6.30445 396.167C6.26666 395.998 6.17912 395.479 6.14603 395.405C6.12279 395.353 6.09289 395.547 6.0673 395.474C6.04686 396.338 6.06932 396.7 6.10559 397.401C6.10479 398.696 6.10508 399.99 6.11139 401.285C6.12607 401.404 6.1408 401.521 6.15558 401.639C6.15561 401.639 6.15564 401.639 6.15567 401.639C6.17533 402.136 6.14145 402.347 6.13592 402.615C6.11941 403.436 6.12227 404.509 6.15087 405.683C6.202 408.186 6.4315 411.145 6.71256 413.055C6.7475 413.307 6.81418 413.794 6.89835 414.305C7.01507 415.025 7.16636 415.79 7.2299 416.028C7.25775 416.133 7.28474 416.157 7.30982 416.27C7.51212 417.281 7.75058 418.287 8.03825 419.278C8.56227 420.895 9.17488 422.548 10.1074 424.023C10.3418 424.39 10.6058 424.74 10.909 425.054C11.4741 425.649 12.2233 426.089 13.0226 426.278C14.1655 426.55 15.3162 426.505 16.4455 426.517C18.0871 426.52 19.7244 426.524 21.3581 426.526C21.7676 426.507 22.1713 426.597 22.6474 426.373C22.8832 426.239 23.0692 426.02 23.1635 425.765C23.3088 425.258 23.1551 424.874 23.1078 424.468C22.9296 423.382 22.751 422.299 22.5718 421.217C22.3928 420.136 22.1828 418.761 21.9982 417.704C21.9212 417.263 21.8567 417.084 21.7866 416.5C21.7764 416.495 21.7662 416.491 21.756 416.486C21.7251 416.268 21.7014 416.084 21.6773 415.899C21.6448 415.653 21.6132 415.407 21.5559 415.08C21.5158 414.87 21.4604 414.503 21.3176 414.122C21.1411 413.644 20.8378 413.199 20.6767 413.007C20.5278 412.83 20.571 412.906 20.4253 412.748C20.1838 412.471 19.561 411.97 19.0812 411.781C18.8634 411.686 18.5556 411.587 18.2562 411.532C17.967 411.477 17.6981 411.472 17.5302 411.464C17.1731 411.449 16.8128 411.447 16.4455 411.442C15.5361 411.422 14.5789 411.443 13.696 411.293C13.6323 411.281 13.566 411.268 13.4997 411.253C13.2091 411.193 12.9397 411.07 12.875 411.021C12.7149 410.908 12.6967 410.848 12.6237 410.75C12.6133 410.735 12.6031 410.72 12.593 410.703C12.2033 410.102 11.8486 409.035 11.7 408.344C11.6418 408.086 11.591 407.824 11.5463 407.559C11.397 406.567 11.3773 405.515 11.3448 404.474C11.3155 403.321 11.3056 402.169 11.2968 401.05C11.2845 399.537 11.2883 397.018 11.2718 395.621C11.2703 395.501 11.2657 395.44 11.2606 395.396C11.2529 395.329 11.2442 395.298 11.2442 395.145C11.2442 394.865 11.2604 394.712 11.2617 394.581C11.2709 393.673 11.2873 391.668 11.2707 390.81C11.2675 390.647 11.2487 390.529 11.2488 390.431C11.2488 390.381 11.2616 390.269 11.2629 390.114C11.2712 389.138 11.2698 388.351 11.2667 387.494C11.2629 387.144 11.2738 386.787 11.2338 386.381C11.2281 386.329 11.2212 386.277 11.2129 386.224C11.1691 385.947 11.0967 385.67 10.9949 385.4C10.8391 384.995 10.6182 384.64 10.4147 384.27C10.0756 383.667 9.73042 383.052 9.3836 382.435C8.82471 381.57 8.5865 380.561 7.55863 379.896C7.22117 379.801 6.8476 379.873 6.57179 380.076C6.52081 380.113 6.47456 380.153 6.43318 380.195C6.20706 380.462 6.21944 380.695 6.19201 380.856C6.17564 381.021 6.17602 381.125 6.17213 381.164C6.15669 381.348 6.12328 381.465 6.10728 381.836C6.08933 382.284 6.08921 382.785 6.0899 383.3C6.09148 384.2 6.0994 385.138 6.09141 385.879C6.08522 386.454 6.05343 387.245 6.04639 387.812C6.04077 388.264 6.05324 389.332 6.03928 389.533C6.03085 389.655 6.00376 389.711 6.00037 389.857ZM9.85062 383.939C9.84872 383.848 10.2337 384.603 10.0573 384.338C10.0175 384.278 9.85107 383.963 9.85062 383.939ZM21.5026 416.381C21.4891 416.375 21.4757 416.37 21.4622 416.364C21.4492 416.254 21.4362 416.143 21.4233 416.033C21.4407 416.093 21.4582 416.153 21.4757 416.214C21.4847 416.27 21.4936 416.325 21.5026 416.381Z"/>
<path fill="#FBE7A0" d="M12.7236 405.698C12.7236 406.25 13.1713 406.698 13.7236 406.698H15.7695C16.3218 406.698 16.7695 406.25 16.7695 405.698V395.412C16.7695 394.859 16.3218 394.412 15.7695 394.412H13.7236C13.1713 394.412 12.7236 394.859 12.7236 395.412V405.698Z"/>
<path fill="#A76A43" d="M12.4757 405.764C12.4749 405.811 12.4981 405.873 12.5091 405.926C12.561 406.145 12.6091 406.22 12.7219 406.384C12.8043 406.506 13.0171 406.724 13.2624 406.809C13.5049 406.9 13.7273 406.866 13.7236 406.811C13.7236 406.811 13.7236 406.811 13.7236 406.811C13.7236 406.81 13.7235 406.809 13.7233 406.808C13.7199 406.787 13.6543 406.761 13.647 406.736C13.6398 406.71 13.6555 406.557 13.5847 406.538C13.4794 406.521 13.2264 406.438 13.183 406.39C13.1515 406.363 13.1238 406.32 13.0913 406.281C12.99 406.153 12.9385 406.074 12.9323 405.927C12.897 405.878 12.8662 405.823 12.8414 405.764C12.8423 405.744 12.8414 405.721 12.8402 405.698C12.8366 405.619 12.8219 405.533 12.823 405.492C12.8242 405.447 12.8403 405.421 12.8411 405.374C12.842 405.322 12.8246 405.242 12.8272 405.146C12.8315 404.99 12.8735 404.962 12.8789 404.869C12.8844 404.772 12.8615 404.621 12.8763 404.497C12.881 404.481 12.8856 404.466 12.8902 404.45C12.9007 404.461 12.9112 404.472 12.9216 404.483C12.9265 404.421 12.9051 404.394 12.9047 404.337C12.9042 404.269 12.9245 404.235 12.9244 404.19C12.9243 404.152 12.908 404.102 12.9091 404.054C12.9105 403.983 12.934 403.999 12.9384 403.961C12.9401 403.946 12.9531 403.667 12.9533 403.651C12.9542 403.531 12.922 403.521 12.9192 403.425C12.9115 403.16 12.9375 402.888 12.9474 402.643C12.9518 402.534 12.9499 402.42 12.9448 402.311C12.8623 402.482 12.7981 402.102 12.9272 402.244C12.9088 402.123 12.9436 402.037 12.9377 401.922C12.9339 401.847 12.916 401.796 12.9165 401.69C12.9174 401.501 12.9683 401.295 12.8763 401.24C12.8926 401.019 12.8592 400.827 12.9404 400.748C12.9453 400.691 12.897 400.544 12.8904 400.48C12.8842 400.42 12.8624 399.955 12.8612 399.879C12.86 399.803 12.8586 399.67 12.8658 399.606C12.8746 399.526 12.9587 399.469 12.8603 399.326C12.8683 399.16 12.8655 399.1 12.854 398.946C12.852 398.918 12.8374 398.914 12.8373 398.898C12.8373 398.864 12.8481 398.807 12.8495 398.747C12.8516 398.648 12.8209 398.591 12.8678 398.602C12.8757 398.537 12.8836 398.472 12.8915 398.406C12.8824 398.383 12.8733 398.361 12.8643 398.338C12.8741 398.303 12.884 398.268 12.8939 398.233C12.8259 398.274 12.866 398.028 12.905 398.108C12.891 397.981 12.8769 397.855 12.8629 397.728C12.7856 397.746 12.8539 397.45 12.8959 397.475C12.8959 397.461 12.8958 397.446 12.8958 397.432C12.8752 397.305 12.892 397.189 12.8782 397.034C12.8645 396.88 12.8569 396.894 12.8214 396.847C12.8234 396.811 12.8255 396.774 12.8275 396.738C12.9249 396.547 12.7563 396.581 12.831 396.254C12.7698 396.15 12.8019 395.893 12.8205 395.722C12.8227 395.702 12.8345 395.702 12.8382 395.675C12.847 395.611 12.8317 395.446 12.8701 395.451C12.8675 395.438 12.8649 395.425 12.8624 395.412C12.8538 395.374 12.8478 395.335 12.8444 395.295C12.8567 395.255 12.8717 395.216 12.8892 395.179C12.9007 395.183 12.9122 395.186 12.9236 395.189C12.9034 395.101 12.9747 394.989 13.0026 394.934C13.008 394.922 12.9953 394.911 13.0157 394.876C13.0391 394.835 13.1021 394.773 13.1418 394.734C13.1703 394.733 13.1982 394.734 13.2256 394.737C13.3067 394.691 13.3139 394.635 13.3657 394.607C13.3733 394.597 13.5565 394.544 13.5677 394.549C13.629 394.545 13.6358 394.566 13.7236 394.573C13.7623 394.576 13.8149 394.578 13.8898 394.575C13.9389 394.574 13.9787 394.56 14.0232 394.559C14.1017 394.558 14.3383 394.59 14.3569 394.62C14.4521 394.583 14.707 394.598 14.782 394.587C14.8047 394.584 14.8098 394.56 14.8794 394.555C14.9359 394.551 15.0812 394.57 15.1528 394.567C15.2288 394.563 15.256 394.543 15.29 394.542C15.3222 394.541 15.3518 394.557 15.3957 394.557C15.5325 394.556 15.6564 394.53 15.7646 394.53C15.7662 394.53 15.7679 394.53 15.7695 394.53C15.9084 394.53 16.0162 394.607 16.1018 394.668C16.1271 394.676 16.1552 394.679 16.1798 394.693C16.4238 394.826 16.6089 395.115 16.6113 395.412C16.6133 395.502 16.6153 395.592 16.6174 395.679C16.6221 395.875 16.6869 396.363 16.5788 396.233C16.5599 396.301 16.6035 396.797 16.6041 396.891C16.6048 396.985 16.5854 397.06 16.5851 397.134C16.5843 397.358 16.5982 397.515 16.5813 397.787C16.5769 397.858 16.554 397.933 16.5542 397.974C16.5546 398.025 16.5768 398.079 16.5782 398.144C16.5814 398.298 16.5741 398.587 16.578 398.735C16.5787 398.763 16.5982 398.772 16.6043 398.811C16.6281 398.962 16.626 399.131 16.5638 399.101C16.5991 399.295 16.5669 399.474 16.5649 399.653C16.5609 400.033 16.5754 400.724 16.5493 401.054C16.5328 401.263 16.5049 401.257 16.5289 401.564C16.5343 401.632 16.5415 401.7 16.5479 401.783C16.5629 401.976 16.6144 402.154 16.5523 402.302C16.5684 402.517 16.557 402.688 16.6101 402.848C16.5974 402.866 16.5846 402.885 16.5719 402.904C16.5716 402.93 16.5713 402.957 16.5709 402.983C16.5831 402.991 16.5952 403 16.6074 403.008C16.6107 403.197 16.5607 403.436 16.5611 403.596C16.5616 403.864 16.5811 404.555 16.5975 404.809C16.6062 404.944 16.5801 404.951 16.6337 405.028C16.6299 405.058 16.6262 405.089 16.6225 405.119C16.6108 405.138 16.599 405.157 16.5873 405.175C16.5869 405.341 16.6036 405.537 16.6048 405.698C16.6049 405.704 16.6048 405.71 16.6047 405.716C16.6144 405.978 16.3783 406.301 16.1616 406.423C16.1103 406.457 16.0443 406.509 15.9822 406.524C15.8964 406.544 15.867 406.512 15.7695 406.51C15.7634 406.51 15.757 406.51 15.7503 406.51C15.5144 406.508 15.0751 406.555 14.8521 406.551C14.7859 406.55 14.755 406.535 14.7093 406.534C14.5176 406.527 14.3601 406.528 14.1763 406.505C13.9789 406.544 13.9959 406.593 13.9347 406.643C13.8884 406.681 13.7462 406.769 13.726 406.802C13.7118 406.825 13.7648 406.855 13.7449 406.88C13.9814 406.901 14.0808 406.878 14.2729 406.842C14.6275 406.844 14.9822 406.845 15.3369 406.847C15.3692 406.833 15.4014 406.819 15.4337 406.805C15.4337 406.805 15.4337 406.805 15.4337 406.805C15.5699 406.789 15.6276 406.825 15.7011 406.833C15.7232 406.835 15.7461 406.838 15.7695 406.84C16.2314 406.923 16.9753 406.41 16.9377 405.698C16.9297 405.246 16.9165 404.805 16.9127 404.475C16.9108 404.309 16.9296 403.766 16.907 403.651C16.9011 403.622 16.8795 403.613 16.8786 403.582C16.8914 403.3 16.9042 403.019 16.917 402.737C16.8835 402.157 16.9112 401.559 16.9163 400.975C16.9303 399.395 16.9473 397.832 16.9421 396.278C16.9412 396.014 16.9536 395.687 16.9495 395.412C16.9489 395.368 16.9456 395.325 16.94 395.285C16.9158 395.141 16.8731 395.093 16.8213 394.912C16.8121 394.914 16.8028 394.917 16.7936 394.919C16.7319 394.772 16.6875 394.671 16.5541 394.543C16.4512 394.42 16.0664 394.247 15.9246 394.251C15.8534 394.245 15.8784 394.265 15.8133 394.261C15.8004 394.261 15.7857 394.26 15.7695 394.259C15.6632 394.255 15.4873 394.236 15.3689 394.236C15.2475 394.236 15.0428 394.256 14.9494 394.253C14.6132 394.243 14.2471 394.213 13.8888 394.221C13.8355 394.222 13.7739 394.229 13.7236 394.236C13.673 394.241 13.6331 394.249 13.6165 394.25C13.5464 394.256 13.5219 394.239 13.4737 394.246C13.2209 394.272 12.8974 394.517 12.7695 394.718C12.6264 394.915 12.544 395.162 12.5442 395.412C12.5427 395.876 12.539 396.347 12.5418 396.799C12.5443 397.214 12.5405 397.903 12.557 398.287C12.5605 398.369 12.5846 398.347 12.5846 398.416C12.5846 398.493 12.5683 398.535 12.567 398.571C12.5578 398.82 12.5414 399.369 12.558 399.604C12.5612 399.649 12.58 399.681 12.58 399.708C12.58 399.722 12.5671 399.752 12.5658 399.795C12.5542 400.171 12.5617 400.445 12.5661 400.813C12.5744 401.519 12.5505 402.336 12.5634 403.077C12.5663 403.239 12.6035 403.349 12.6031 403.372C12.6024 403.422 12.5773 403.454 12.5711 403.555C12.5508 403.89 12.5775 404.342 12.565 404.661C12.5588 404.819 12.527 405.036 12.52 405.191C12.5143 405.315 12.5268 405.607 12.5129 405.662C12.5093 405.676 12.5026 405.687 12.4957 405.698C12.486 405.716 12.4762 405.735 12.4757 405.764ZM12.8956 401.576C12.8523 401.598 12.8883 401.366 12.9115 401.453C12.9167 401.473 12.9068 401.571 12.8956 401.576ZM16.5675 394.988C16.5557 394.992 16.5439 394.997 16.5322 395.001C16.5241 394.975 16.5148 394.95 16.5043 394.924C16.5188 394.933 16.5333 394.942 16.5475 394.951C16.5545 394.963 16.5612 394.976 16.5675 394.988Z"/>
</g>
<g filter="url(#filter2_d_66_2198)">
<path fill="#FBE7A0" d="M358.25 37.1327C358.25 33.1264 358.252 29.6784 358.176 26.8504C358.097 23.9362 357.925 21.0369 357.457 18.2477C356.758 14.0866 355.644 10.7023 354.274 8.58208C353.355 7.16104 352.4 6.63653 351.441 6.39843C350.509 6.16739 349.374 6.17286 348.054 6.17286H343.142C342.493 6.17286 342.169 6.17286 341.938 6.30514C341.735 6.42122 341.58 6.60458 341.498 6.82339C341.405 7.07274 341.458 7.39277 341.563 8.03281L342.974 16.6042C343.124 17.5121 343.199 17.9661 343.344 18.3448C343.832 19.6215 344.938 20.5605 346.277 20.8347C346.674 20.9161 347.134 20.9161 348.054 20.9161C349.454 20.9161 350.358 20.9231 351.045 21.0937C351.705 21.2573 351.95 21.5343 352.07 21.72C352.526 22.4266 352.897 23.5539 353.13 24.9403C353.191 25.3047 353.282 26.048 353.336 28.0502C353.393 30.1387 353.395 32.8831 353.395 37.1327V45.035C353.395 45.6614 353.395 45.9747 353.442 46.28C353.484 46.5511 353.554 46.8171 353.651 47.0739C353.76 47.3631 353.914 47.6358 354.222 48.1813L355.257 50.0148C356.141 51.5818 356.584 52.3653 356.985 52.4757C357.33 52.5709 357.701 52.4736 357.955 52.2207C358.25 51.9275 358.25 51.0277 358.25 49.2283V37.1327Z"/>
<path fill="#A76A43" d="M358.5 42.6715C358.503 42.5369 358.486 42.3469 358.486 42.188C358.482 41.5227 358.471 41.2762 358.464 40.6743C358.455 39.7817 358.476 37.1328 358.363 37.1327C358.363 37.1327 358.363 37.1327 358.363 37.1327C358.362 37.1327 358.361 37.133 358.36 37.1335C358.339 37.1428 358.315 37.3681 358.291 37.4015C358.267 37.4349 358.11 37.4099 358.101 37.7299C358.089 38.1939 358.13 39.3069 358.128 39.5543C358.127 39.7235 358.112 39.9318 358.11 40.1481C358.102 40.8456 358.112 41.2106 358.073 41.839C358.094 42.0904 358.114 42.3417 358.135 42.5931C358.125 42.9211 358.152 43.4181 358.151 43.6174C358.149 43.7808 358.133 43.8766 358.132 44.047C358.132 44.238 358.149 44.5315 358.146 44.8791C358.142 45.4488 358.1 45.5502 358.095 45.8921C358.089 46.2466 358.112 46.798 358.097 47.2503C358.093 47.3071 358.088 47.3638 358.083 47.4205C358.073 47.3799 358.062 47.3392 358.052 47.2986C358.047 47.5264 358.069 47.6244 358.069 47.8338C358.069 48.0801 358.049 48.2058 358.049 48.3716C358.049 48.5073 358.066 48.6915 358.065 48.8675C358.063 49.1242 358.04 49.0681 358.035 49.2062C358.035 49.2098 358.035 49.2173 358.035 49.2283C358.032 49.3903 358.019 50.282 358.017 50.3358C358.009 50.7695 358.041 50.8083 358.026 51.1501C358.007 51.4948 357.968 51.9229 357.815 52.0797C357.611 52.2807 357.3 52.349 357.041 52.2693C356.928 52.2369 356.77 52.0609 356.65 51.8955C356.427 51.5907 356.215 51.2325 356.012 50.8948C356.254 51.4757 355.506 50.3111 355.877 50.695C355.696 50.4078 355.582 50.1704 355.442 49.9102C355.4 49.8315 355.355 49.7509 355.306 49.6664C355.169 49.4317 355.061 49.2768 354.871 48.9388C354.707 48.6471 354.545 48.3363 354.402 48.0793C354.251 47.8077 354.123 47.5979 354.035 47.532C353.943 47.3528 353.86 47.1824 353.799 47.0182C353.693 46.7337 353.631 46.4676 353.609 46.254C353.593 46.0995 353.6 45.9714 353.622 45.8815C353.616 45.7123 353.581 45.2984 353.567 45.035C353.564 44.9903 353.563 44.9499 353.562 44.9159C353.555 44.6949 353.534 42.9992 353.532 42.7217C353.531 42.4443 353.53 41.9587 353.537 41.7251C353.546 41.4315 353.63 41.2264 353.532 40.7038C353.54 40.0962 353.537 39.8797 353.525 39.3146C353.523 39.2122 353.509 39.2007 353.509 39.1409C353.509 39.0178 353.519 38.8083 353.521 38.5885C353.523 38.227 353.492 38.0208 353.539 38.0611C353.547 37.8228 353.555 37.5845 353.563 37.3462C353.555 37.275 353.547 37.2039 353.54 37.1327C353.538 37.1202 353.537 37.1076 353.536 37.095C353.545 36.9663 353.555 36.8399 353.565 36.7129C353.497 36.8619 353.537 35.965 353.576 36.2565C353.562 35.7948 353.548 35.3331 353.534 34.8711C353.456 34.9343 353.524 33.856 353.566 33.9472C353.565 33.8951 353.565 33.8415 353.565 33.7884C353.544 33.3256 353.56 32.9 353.544 32.337C353.528 31.772 353.52 31.8265 353.484 31.6539C353.485 31.5222 353.486 31.3875 353.488 31.2562C353.579 30.5575 353.414 30.6833 353.473 29.4894C353.423 29.2015 353.419 28.5963 353.419 28.048C353.419 27.8684 353.419 27.6985 353.418 27.5451C353.418 27.4735 353.43 27.4696 353.43 27.3742C353.431 27.1365 353.387 26.5367 353.426 26.5537C353.404 26.3464 353.38 26.1372 353.353 25.9291C353.347 25.758 353.34 25.5874 353.329 25.4147C353.341 25.4143 353.352 25.4139 353.364 25.4135C353.332 25.2713 353.304 25.094 353.271 24.9167C353.225 24.6701 353.179 24.4239 353.141 24.2715C353.128 24.2194 353.11 24.2117 353.069 24.051C353.021 23.8627 352.936 23.5119 352.864 23.2915C352.855 23.2002 352.845 23.1083 352.835 23.0168C352.71 22.6177 352.606 22.4997 352.504 22.2777C352.493 22.2487 352.315 21.8683 352.172 21.6539C352.113 21.5611 352.056 21.4994 352.048 21.4894C351.794 21.259 351.878 21.1736 351.085 20.9337C351.019 20.9174 350.947 20.9018 350.867 20.8873C350.684 20.8543 350.534 20.8495 350.37 20.833C350.078 20.7958 349.209 20.7415 349.141 20.7132C348.912 20.7337 348.434 20.7339 348.054 20.7356C347.854 20.7364 347.681 20.7368 347.587 20.7401C347.504 20.7429 347.486 20.7675 347.233 20.7692C347.038 20.7713 346.556 20.7395 346.308 20.6826C346.295 20.68 346.283 20.6774 346.271 20.6751C346.01 20.6202 345.914 20.6051 345.8 20.5682C345.692 20.5315 345.6 20.4789 345.46 20.4146C345.024 20.2134 344.652 19.9695 344.377 19.7026C343.977 19.3148 343.748 18.8681 343.585 18.4447C343.56 18.3903 343.534 18.3369 343.51 18.2814C343.488 18.2336 343.469 18.1841 343.452 18.1315C343.308 17.6607 343.236 17.1166 343.141 16.5768C342.962 15.5148 342.777 14.4248 342.604 13.4182C342.483 12.7124 342.13 10.966 342.314 11.4174C342.292 11.1688 341.955 9.3906 341.898 9.05112C341.842 8.71174 341.817 8.43947 341.773 8.17259C341.764 8.11485 341.754 8.05835 341.745 8.00285C341.685 7.58863 341.572 7.18176 341.667 6.88624C341.727 6.72265 341.848 6.5655 342.029 6.46472C342.089 6.43186 342.161 6.40974 342.25 6.39588C342.471 6.36272 342.75 6.39091 342.899 6.38848C342.976 6.388 343.057 6.38389 343.142 6.3791C343.256 6.37265 343.379 6.36499 343.515 6.36418C344.081 6.361 345.134 6.3683 345.676 6.36446C345.775 6.36371 345.81 6.34421 345.951 6.33812C346.503 6.31431 347.121 6.31638 347.011 6.37862C347.37 6.36067 347.716 6.36015 348.054 6.36425C348.383 6.36824 348.704 6.37609 349.025 6.38041C349.664 6.39329 350.558 6.39416 351.391 6.59658C352.358 6.80943 353.131 7.45373 353.517 7.93565C353.808 8.29325 353.885 8.44049 354.064 8.71735C354.167 8.88155 354.304 9.09487 354.508 9.4473C354.63 9.65918 354.748 9.87243 354.883 10.1374C355.198 10.7589 355.486 11.3389 355.613 11.8622C355.896 12.5871 356.07 13.1841 356.282 13.7246C356.289 13.7935 356.296 13.8628 356.302 13.9322C356.328 14.0248 356.353 14.116 356.378 14.2088C356.398 14.2345 356.417 14.2602 356.437 14.2861C356.621 14.9466 356.771 15.8063 356.89 16.3749C356.981 16.7998 357.129 17.5225 357.261 18.2806C357.427 19.2199 357.559 20.211 357.623 20.7194C357.685 21.2066 357.66 21.2355 357.741 21.5103C357.747 21.62 357.754 21.7298 357.76 21.8396C357.754 21.9091 357.748 21.9787 357.742 22.0481C357.796 22.6758 357.865 23.4205 357.898 24.0204C357.943 24.8144 357.969 25.8994 357.993 26.8553C358.002 27.2154 358.011 27.5568 358.023 27.8576C358.034 28.133 358.064 28.4784 358.068 28.7482C358.073 29.1412 358.034 29.2379 358.039 29.7369C358.048 30.5968 358.103 32.1999 358.101 33.0133C358.1 33.2559 358.086 33.3672 358.084 33.5351C358.079 34.2338 358.08 34.8096 358.057 35.48C358.096 36.2007 358.145 36.1379 358.196 36.3619C358.233 36.5306 358.321 37.0495 358.354 37.1238C358.377 37.1757 358.407 36.9819 358.433 37.0546C358.453 36.191 358.431 35.8289 358.394 35.1274C358.395 33.8328 358.395 32.5383 358.389 31.2431C358.374 31.1249 358.359 31.0074 358.344 30.8899C358.344 30.8899 358.344 30.8899 358.344 30.8899C358.325 30.3928 358.359 30.1811 358.364 29.9131C358.381 29.0928 358.378 28.0193 358.349 26.8457C358.298 24.3421 358.069 21.3836 357.787 19.4735C357.752 19.222 357.686 18.7347 357.602 18.2234C357.485 17.5033 357.334 16.7386 357.27 16.5009C357.242 16.3957 357.215 16.3718 357.19 16.2582C356.988 15.2472 356.749 14.2419 356.462 13.2502C355.938 11.634 355.325 9.9803 354.393 8.50517C354.158 8.13874 353.894 7.78808 353.591 7.4749C353.026 6.87913 352.277 6.43949 351.477 6.25022C350.334 5.97819 349.184 6.02338 348.054 6.01193C346.413 6.00816 344.776 6.00484 343.142 6.00255C342.732 6.0212 342.329 5.93136 341.853 6.15605C341.617 6.29006 341.431 6.50886 341.336 6.76312C341.191 7.27027 341.345 7.65421 341.392 8.06096C341.57 9.14618 341.749 10.2298 341.928 11.3119C342.107 12.393 342.317 13.7678 342.502 14.8246C342.579 15.2657 342.643 15.4442 342.713 16.0288C342.724 16.0333 342.734 16.0379 342.744 16.0425C342.775 16.2603 342.799 16.4448 342.823 16.6292C342.855 16.8759 342.887 17.1215 342.944 17.4484C342.984 17.6585 343.04 18.0259 343.182 18.4065C343.359 18.8847 343.662 19.33 343.823 19.5216C343.972 19.699 343.929 19.6224 344.075 19.7803C344.316 20.0574 344.939 20.5587 345.419 20.7473C345.637 20.843 345.944 20.9419 346.244 20.997C346.533 21.0512 346.802 21.0562 346.97 21.0646C347.327 21.0795 347.687 21.0816 348.054 21.0869C348.964 21.1066 349.921 21.0854 350.804 21.2359C350.868 21.2476 350.934 21.2608 351 21.2756C351.291 21.3352 351.56 21.4591 351.625 21.5079C351.785 21.6205 351.803 21.6801 351.876 21.7781C351.887 21.7932 351.897 21.8088 351.907 21.8251C352.297 22.4266 352.651 23.4935 352.8 24.1845C352.858 24.4429 352.909 24.7047 352.954 24.9699C353.103 25.9614 353.123 27.0141 353.155 28.0551C353.185 29.2079 353.194 30.3594 353.203 31.4789C353.216 32.9915 353.212 35.5103 353.228 36.9077C353.23 37.0279 353.234 37.0881 353.239 37.1327C353.247 37.1993 353.256 37.231 353.256 37.3832C353.256 37.664 353.24 37.8161 353.238 37.9473C353.229 38.8556 353.213 40.8606 353.229 41.7182C353.232 41.8815 353.251 42 353.251 42.0978C353.251 42.1473 353.238 42.2591 353.237 42.4145C353.229 43.3902 353.23 44.1779 353.233 45.035C353.237 45.3841 353.226 45.7419 353.266 46.1473C353.272 46.1994 353.279 46.2518 353.287 46.3041C353.331 46.5813 353.403 46.8585 353.505 47.1287C353.661 47.5339 353.882 47.8889 354.085 48.2583C354.424 48.8611 354.77 49.4764 355.116 50.094C355.675 50.9585 355.914 51.9672 356.941 52.633C357.279 52.7271 357.652 52.6556 357.928 52.4528C357.979 52.4158 358.025 52.3754 358.067 52.3331C358.293 52.0668 358.281 51.8332 358.308 51.6724C358.324 51.5078 358.324 51.4034 358.328 51.3649C358.343 51.1806 358.377 51.0638 358.393 50.6926C358.411 50.2446 358.411 49.7432 358.41 49.2283C358.409 48.3287 358.401 47.391 358.409 46.6497C358.415 46.0742 358.447 45.2834 358.454 44.717C358.459 44.2647 358.447 43.1965 358.461 42.996C358.469 42.874 358.496 42.8176 358.5 42.6715ZM354.649 48.5892C354.651 48.6806 354.266 47.9255 354.443 48.1907C354.482 48.2505 354.649 48.5655 354.649 48.5892ZM342.997 16.1475C343.011 16.1531 343.024 16.1588 343.038 16.1644C343.051 16.275 343.064 16.3855 343.077 16.496C343.059 16.4356 343.042 16.3751 343.024 16.3147C343.015 16.259 343.006 16.2032 342.997 16.1475Z"/>
<path fill="#FBE7A0" d="M351.776 26.8306C351.776 26.2783 351.329 25.8306 350.776 25.8306H348.73C348.178 25.8306 347.73 26.2783 347.73 26.8306V37.1166C347.73 37.6689 348.178 38.1166 348.73 38.1166H350.776C351.329 38.1166 351.776 37.6689 351.776 37.1166V26.8306Z"/>
<path fill="#A76A43" d="M352.024 26.7641C352.025 26.7175 352.002 26.655 351.991 26.6024C351.939 26.3833 351.891 26.3086 351.778 26.1442C351.696 26.0224 351.483 25.8041 351.238 25.7197C350.995 25.628 350.773 25.6621 350.776 25.7172C350.776 25.7172 350.776 25.7172 350.776 25.7172C350.776 25.7183 350.777 25.7194 350.777 25.7205C350.78 25.7415 350.846 25.767 350.853 25.7925C350.86 25.8179 350.845 25.9714 350.915 25.9907C351.021 26.0076 351.274 26.0907 351.317 26.1388C351.349 26.165 351.376 26.2087 351.409 26.2478C351.51 26.375 351.562 26.4542 351.568 26.6017C351.603 26.6504 351.634 26.7049 351.659 26.7642C351.658 26.7845 351.659 26.8069 351.66 26.8306C351.663 26.9091 351.678 26.9955 351.677 27.0363C351.676 27.0811 351.66 27.1073 351.659 27.154C351.658 27.2063 351.675 27.2867 351.673 27.382C351.669 27.5381 351.626 27.5658 351.621 27.6595C351.616 27.7566 351.638 27.9077 351.624 28.0316C351.619 28.0472 351.614 28.0627 351.61 28.0783C351.599 28.0671 351.589 28.056 351.578 28.0448C351.573 28.1073 351.595 28.1341 351.595 28.1915C351.596 28.259 351.575 28.2934 351.576 28.3388C351.576 28.376 351.592 28.4264 351.591 28.4747C351.59 28.545 351.566 28.5296 351.562 28.5675C351.56 28.5826 351.547 28.8617 351.547 28.8775C351.546 28.9973 351.578 29.0077 351.581 29.1032C351.588 29.3681 351.562 29.6401 351.553 29.8851C351.548 29.9945 351.55 30.1087 351.555 30.2178C351.638 30.0459 351.702 30.4262 351.573 30.284C351.591 30.4054 351.556 30.4915 351.562 30.6065C351.566 30.681 351.584 30.7325 351.584 30.8387C351.583 31.0273 351.532 31.2336 351.624 31.2878C351.607 31.5092 351.641 31.7009 351.56 31.7807C351.555 31.8378 351.603 31.9841 351.61 32.0481C351.616 32.1087 351.638 32.5732 351.639 32.6492C351.64 32.7253 351.641 32.8583 351.634 32.9223C351.625 33.0027 351.541 33.0589 351.64 33.2021C351.632 33.3686 351.635 33.4279 351.646 33.5827C351.648 33.6107 351.663 33.6139 351.663 33.6303C351.663 33.664 351.652 33.7214 351.651 33.7816C351.648 33.8807 351.679 33.9372 351.632 33.9261C351.624 33.9914 351.616 34.0567 351.609 34.122C351.618 34.1449 351.627 34.1678 351.636 34.1907C351.626 34.2256 351.616 34.2605 351.606 34.2954C351.674 34.2544 351.634 34.5001 351.595 34.4203C351.609 34.5469 351.623 34.6734 351.637 34.8C351.714 34.7823 351.646 35.0779 351.604 35.053C351.604 35.0675 351.604 35.0819 351.604 35.0964C351.625 35.2232 351.608 35.3396 351.622 35.4941C351.636 35.6487 351.643 35.6342 351.679 35.6811C351.677 35.7175 351.675 35.7539 351.672 35.7902C351.575 35.981 351.744 35.9473 351.669 36.274C351.73 36.3784 351.698 36.6357 351.68 36.8063C351.677 36.8262 351.665 36.8265 351.662 36.853C351.653 36.9176 351.668 37.0826 351.63 37.0769C351.633 37.0901 351.635 37.1034 351.638 37.1166C351.646 37.1547 351.652 37.1934 351.656 37.2332C351.643 37.2733 351.628 37.3121 351.611 37.3491C351.599 37.3457 351.588 37.3423 351.576 37.3389C351.597 37.4269 351.525 37.5389 351.497 37.5944C351.492 37.6058 351.505 37.6177 351.484 37.6525C351.461 37.6937 351.398 37.7551 351.358 37.7947C351.33 37.795 351.302 37.7939 351.274 37.7914C351.193 37.8374 351.186 37.8931 351.134 37.9216C351.127 37.9313 350.944 37.9839 350.932 37.9797C350.871 37.9831 350.864 37.9622 350.776 37.9552C350.738 37.9519 350.685 37.9506 350.61 37.953C350.561 37.9546 350.521 37.9688 350.477 37.9694C350.398 37.9704 350.162 37.9381 350.143 37.9083C350.048 37.9456 349.793 37.9304 349.718 37.9412C349.695 37.9445 349.69 37.9682 349.621 37.9733C349.564 37.9774 349.419 37.9584 349.347 37.9616C349.271 37.965 349.244 37.985 349.21 37.9864C349.178 37.9877 349.148 37.9716 349.104 37.9717C348.967 37.9723 348.844 37.9982 348.735 37.9987C348.734 37.9987 348.732 37.9987 348.73 37.9987C348.592 37.9981 348.484 37.9214 348.398 37.8599C348.373 37.852 348.345 37.8492 348.32 37.8353C348.076 37.7025 347.891 37.4137 347.889 37.1166C347.887 37.0259 347.885 36.9365 347.883 36.8493C347.878 36.6532 347.813 36.1653 347.921 36.2955C347.94 36.2274 347.897 35.7317 347.896 35.6374C347.895 35.5431 347.915 35.4684 347.915 35.3943C347.916 35.1707 347.902 35.0133 347.919 34.7411C347.923 34.6708 347.946 34.5955 347.946 34.5539C347.945 34.5037 347.923 34.4498 347.922 34.3848C347.919 34.23 347.926 33.9414 347.922 33.7929C347.921 33.7658 347.902 33.7562 347.896 33.7174C347.872 33.5664 347.874 33.3971 347.936 33.427C347.901 33.2334 347.933 33.0543 347.935 32.8749C347.939 32.4955 347.925 31.8044 347.951 31.4739C347.967 31.2655 347.995 31.2709 347.971 30.964C347.966 30.8959 347.959 30.8281 347.952 30.7455C347.937 30.5519 347.886 30.3743 347.948 30.2267C347.932 30.0116 347.943 29.8403 347.89 29.6808C347.903 29.662 347.915 29.6432 347.928 29.6243C347.928 29.598 347.929 29.5716 347.929 29.5452C347.917 29.537 347.905 29.5288 347.893 29.5206C347.889 29.3317 347.939 29.0921 347.939 28.9322C347.938 28.6641 347.919 27.9737 347.903 27.7195C347.894 27.5846 347.92 27.5773 347.866 27.5001C347.87 27.4699 347.874 27.4397 347.878 27.4095C347.889 27.3906 347.901 27.3717 347.913 27.3528C347.913 27.187 347.896 26.9917 347.895 26.8306C347.895 26.8246 347.895 26.8186 347.895 26.8128C347.886 26.5506 348.122 26.2272 348.338 26.1057C348.39 26.0712 348.456 26.0193 348.518 26.0041C348.604 25.9847 348.633 26.0163 348.73 26.0183C348.737 26.0185 348.743 26.0186 348.75 26.0187C348.986 26.0199 349.425 25.9733 349.648 25.9769C349.714 25.9779 349.745 25.9928 349.791 25.9944C349.982 26.0013 350.14 26 350.324 26.0231C350.521 25.9847 350.504 25.9351 350.565 25.885C350.612 25.8472 350.754 25.7597 350.774 25.7266C350.788 25.7034 350.735 25.6734 350.755 25.6479C350.519 25.6274 350.419 25.6499 350.227 25.6859C349.872 25.6845 349.518 25.683 349.163 25.6816C349.131 25.6956 349.099 25.7095 349.066 25.7235C349.066 25.7235 349.066 25.7236 349.066 25.7236C348.93 25.7397 348.872 25.7038 348.799 25.6956C348.777 25.6931 348.754 25.6908 348.73 25.6886C348.269 25.605 347.525 26.1186 347.562 26.8306C347.57 27.2822 347.584 27.7229 347.587 28.0529C347.589 28.2197 347.57 28.7625 347.593 28.8769C347.599 28.9066 347.62 28.9148 347.621 28.9464C347.609 29.2281 347.596 29.5098 347.583 29.7915C347.616 30.3708 347.589 30.9698 347.584 31.5535C347.57 33.1328 347.553 34.6964 347.558 36.2499C347.559 36.5143 347.546 36.8415 347.551 37.1166C347.551 37.1605 347.554 37.203 347.56 37.2438C347.584 37.3875 347.627 37.4358 347.679 37.6161C347.688 37.6139 347.697 37.6116 347.706 37.6093C347.768 37.7561 347.813 37.8577 347.946 37.9857C348.049 38.1079 348.434 38.2812 348.575 38.2768C348.647 38.2832 348.622 38.2634 348.687 38.2671C348.7 38.2676 348.714 38.2683 348.73 38.2689C348.837 38.2735 349.013 38.2923 349.131 38.2923C349.253 38.2923 349.457 38.2722 349.551 38.2751C349.887 38.2854 350.253 38.3152 350.611 38.3072C350.665 38.306 350.726 38.2989 350.776 38.2926C350.827 38.2874 350.867 38.2793 350.883 38.2781C350.954 38.2724 350.978 38.2896 351.026 38.2828C351.279 38.2567 351.603 38.0113 351.731 37.8104C351.874 37.6135 351.956 37.366 351.956 37.1166C351.957 36.652 351.961 36.1809 351.958 35.7297C351.956 35.3147 351.96 34.625 351.943 34.2418C351.939 34.1592 351.915 34.1812 351.915 34.1118C351.915 34.0349 351.932 33.9932 351.933 33.9573C351.942 33.7085 351.959 33.1591 351.942 32.9242C351.939 32.8794 351.92 32.847 351.92 32.8202C351.92 32.8066 351.933 32.776 351.934 32.7334C351.946 32.3575 351.938 32.0834 351.934 31.7151C351.926 31.0096 351.949 30.1922 351.937 29.4511C351.934 29.2897 351.897 29.1789 351.897 29.1562C351.898 29.1064 351.923 29.0745 351.929 28.9736C351.949 28.6381 351.922 28.1862 351.935 27.8671C351.941 27.7094 351.973 27.4927 351.98 27.3376C351.986 27.2137 351.973 26.921 351.987 26.8661C351.991 26.8521 351.997 26.8413 352.004 26.8306C352.014 26.812 352.024 26.7932 352.024 26.7641ZM351.604 30.952C351.648 30.9299 351.612 31.1619 351.588 31.0749C351.583 31.0553 351.593 30.9577 351.604 30.952ZM347.932 37.5401C347.944 37.536 347.956 37.5318 347.968 37.5276C347.976 37.5532 347.985 37.5787 347.996 37.6039C347.981 37.5955 347.967 37.5865 347.952 37.577C347.946 37.5649 347.939 37.5525 347.932 37.5401Z"/>
</g>
<g filter="url(#filter3_d_66_2198)">
<path fill="#FBE7A0" d="M358.25 395.396C358.25 399.402 358.252 402.85 358.176 405.678C358.097 408.592 357.925 411.492 357.457 414.281C356.758 418.442 355.644 421.826 354.274 423.946C353.355 425.368 352.4 425.892 351.441 426.13C350.509 426.361 349.374 426.356 348.054 426.356H343.142C342.493 426.356 342.169 426.356 341.938 426.223C341.735 426.107 341.58 425.924 341.498 425.705C341.405 425.456 341.458 425.136 341.563 424.496L342.974 415.924C343.124 415.016 343.199 414.562 343.344 414.184C343.832 412.907 344.938 411.968 346.277 411.694C346.674 411.612 347.134 411.612 348.054 411.612C349.454 411.612 350.358 411.606 351.045 411.435C351.705 411.271 351.95 410.994 352.07 410.809C352.526 410.102 352.897 408.975 353.13 407.588C353.191 407.224 353.282 406.481 353.336 404.478C353.393 402.39 353.395 399.645 353.395 395.396V387.494C353.395 386.867 353.395 386.554 353.442 386.249C353.484 385.978 353.554 385.711 353.651 385.455C353.76 385.165 353.914 384.893 354.222 384.347L355.257 382.514C356.141 380.947 356.584 380.163 356.985 380.053C357.33 379.958 357.701 380.055 357.955 380.308C358.25 380.601 358.25 381.501 358.25 383.3V395.396Z"/>
<path fill="#A76A43" d="M358.5 389.857C358.503 389.992 358.486 390.182 358.486 390.341C358.482 391.006 358.471 391.252 358.464 391.854C358.455 392.747 358.476 395.396 358.363 395.396C358.363 395.396 358.363 395.396 358.363 395.396C358.362 395.396 358.361 395.396 358.36 395.395C358.339 395.386 358.315 395.16 358.291 395.127C358.267 395.094 358.11 395.119 358.101 394.799C358.089 394.335 358.13 393.222 358.128 392.974C358.127 392.805 358.112 392.597 358.11 392.38C358.102 391.683 358.112 391.318 358.073 390.69C358.094 390.438 358.114 390.187 358.135 389.935C358.125 389.608 358.152 389.11 358.151 388.911C358.149 388.748 358.133 388.652 358.132 388.482C358.132 388.291 358.149 387.997 358.146 387.65C358.142 387.08 358.1 386.978 358.095 386.636C358.089 386.282 358.112 385.731 358.097 385.278C358.093 385.221 358.088 385.165 358.083 385.108C358.073 385.149 358.062 385.189 358.052 385.23C358.047 385.002 358.069 384.904 358.069 384.695C358.069 384.448 358.049 384.323 358.049 384.157C358.049 384.021 358.066 383.837 358.065 383.661C358.063 383.404 358.04 383.46 358.035 383.322C358.035 383.319 358.035 383.311 358.035 383.3C358.032 383.138 358.019 382.247 358.017 382.193C358.009 381.759 358.041 381.72 358.026 381.378C358.007 381.034 357.968 380.606 357.815 380.449C357.611 380.248 357.3 380.18 357.041 380.259C356.928 380.292 356.77 380.468 356.65 380.633C356.427 380.938 356.215 381.296 356.012 381.634C356.254 381.053 355.506 382.217 355.877 381.834C355.696 382.121 355.582 382.358 355.442 382.618C355.4 382.697 355.355 382.778 355.306 382.862C355.169 383.097 355.061 383.252 354.871 383.59C354.707 383.881 354.545 384.192 354.402 384.449C354.251 384.721 354.123 384.931 354.035 384.997C353.943 385.176 353.86 385.346 353.799 385.51C353.693 385.795 353.631 386.061 353.609 386.275C353.593 386.429 353.6 386.557 353.622 386.647C353.616 386.816 353.581 387.23 353.567 387.494C353.564 387.538 353.563 387.579 353.562 387.613C353.555 387.834 353.534 389.529 353.532 389.807C353.531 390.084 353.53 390.57 353.537 390.804C353.546 391.097 353.63 391.302 353.532 391.825C353.54 392.432 353.537 392.649 353.525 393.214C353.523 393.316 353.509 393.328 353.509 393.388C353.509 393.511 353.519 393.72 353.521 393.94C353.523 394.302 353.492 394.508 353.539 394.468C353.547 394.706 353.555 394.944 353.563 395.182C353.555 395.254 353.547 395.325 353.54 395.396C353.538 395.408 353.537 395.421 353.536 395.434C353.545 395.562 353.555 395.689 353.565 395.816C353.497 395.667 353.537 396.564 353.576 396.272C353.562 396.734 353.548 397.195 353.534 397.657C353.456 397.594 353.524 398.673 353.566 398.581C353.565 398.633 353.565 398.687 353.565 398.74C353.544 399.203 353.56 399.629 353.544 400.192C353.528 400.757 353.52 400.702 353.484 400.875C353.485 401.006 353.486 401.141 353.488 401.272C353.579 401.971 353.414 401.845 353.473 403.039C353.423 403.327 353.419 403.932 353.419 404.481C353.419 404.66 353.419 404.83 353.418 404.983C353.418 405.055 353.43 405.059 353.43 405.154C353.431 405.392 353.387 405.992 353.426 405.975C353.404 406.182 353.38 406.391 353.353 406.599C353.347 406.771 353.34 406.941 353.329 407.114C353.341 407.114 353.352 407.115 353.364 407.115C353.332 407.257 353.304 407.435 353.271 407.612C353.225 407.858 353.179 408.105 353.141 408.257C353.128 408.309 353.11 408.317 353.069 408.478C353.021 408.666 352.936 409.017 352.864 409.237C352.855 409.328 352.845 409.42 352.835 409.512C352.71 409.911 352.606 410.029 352.504 410.251C352.493 410.28 352.315 410.66 352.172 410.875C352.113 410.967 352.056 411.029 352.048 411.039C351.794 411.27 351.878 411.355 351.085 411.595C351.019 411.611 350.947 411.627 350.867 411.641C350.684 411.674 350.534 411.679 350.37 411.696C350.078 411.733 349.209 411.787 349.141 411.815C348.912 411.795 348.434 411.795 348.054 411.793C347.854 411.792 347.681 411.792 347.587 411.788C347.504 411.786 347.486 411.761 347.233 411.759C347.038 411.757 346.556 411.789 346.308 411.846C346.295 411.849 346.283 411.851 346.271 411.854C346.01 411.908 345.914 411.923 345.8 411.96C345.692 411.997 345.6 412.05 345.46 412.114C345.024 412.315 344.652 412.559 344.377 412.826C343.977 413.214 343.748 413.66 343.585 414.084C343.56 414.138 343.534 414.192 343.51 414.247C343.488 414.295 343.469 414.344 343.452 414.397C343.308 414.868 343.236 415.412 343.141 415.952C342.962 417.014 342.777 418.104 342.604 419.11C342.483 419.816 342.13 421.563 342.314 421.111C342.292 421.36 341.955 423.138 341.898 423.477C341.842 423.817 341.817 424.089 341.773 424.356C341.764 424.414 341.754 424.47 341.745 424.526C341.685 424.94 341.572 425.347 341.667 425.642C341.727 425.806 341.848 425.963 342.029 426.064C342.089 426.097 342.161 426.119 342.25 426.133C342.471 426.166 342.75 426.138 342.899 426.14C342.976 426.141 343.057 426.145 343.142 426.149C343.256 426.156 343.379 426.164 343.515 426.164C344.081 426.168 345.134 426.16 345.676 426.164C345.775 426.165 345.81 426.184 345.951 426.19C346.503 426.214 347.121 426.212 347.011 426.15C347.37 426.168 347.716 426.168 348.054 426.164C348.383 426.16 348.704 426.152 349.025 426.148C349.664 426.135 350.558 426.134 351.391 425.932C352.358 425.719 353.131 425.075 353.517 424.593C353.808 424.235 353.885 424.088 354.064 423.811C354.167 423.647 354.304 423.434 354.508 423.081C354.63 422.869 354.748 422.656 354.883 422.391C355.198 421.77 355.486 421.19 355.613 420.666C355.896 419.942 356.07 419.344 356.282 418.804C356.289 418.735 356.296 418.666 356.302 418.596C356.328 418.504 356.353 418.413 356.378 418.32C356.398 418.294 356.417 418.268 356.437 418.242C356.621 417.582 356.771 416.722 356.89 416.154C356.981 415.729 357.129 415.006 357.261 414.248C357.427 413.309 357.559 412.318 357.623 411.809C357.685 411.322 357.66 411.293 357.741 411.018C357.747 410.909 357.754 410.799 357.76 410.689C357.754 410.619 357.748 410.55 357.742 410.48C357.796 409.853 357.865 409.108 357.898 408.508C357.943 407.714 357.969 406.629 357.993 405.673C358.002 405.313 358.011 404.972 358.023 404.671C358.034 404.396 358.064 404.05 358.068 403.78C358.073 403.387 358.034 403.291 358.039 402.792C358.048 401.932 358.103 400.329 358.101 399.515C358.1 399.273 358.086 399.161 358.084 398.994C358.079 398.295 358.08 397.719 358.057 397.049C358.096 396.328 358.145 396.391 358.196 396.167C358.233 395.998 358.321 395.479 358.354 395.405C358.377 395.353 358.407 395.547 358.433 395.474C358.453 396.338 358.431 396.7 358.394 397.401C358.395 398.696 358.395 399.99 358.389 401.285C358.374 401.404 358.359 401.521 358.344 401.639C358.344 401.639 358.344 401.639 358.344 401.639C358.325 402.136 358.359 402.347 358.364 402.615C358.381 403.436 358.378 404.509 358.349 405.683C358.298 408.186 358.069 411.145 357.787 413.055C357.752 413.307 357.686 413.794 357.602 414.305C357.485 415.025 357.334 415.79 357.27 416.028C357.242 416.133 357.215 416.157 357.19 416.27C356.988 417.281 356.749 418.287 356.462 419.278C355.938 420.895 355.325 422.548 354.393 424.023C354.158 424.39 353.894 424.74 353.591 425.054C353.026 425.649 352.277 426.089 351.477 426.278C350.334 426.55 349.184 426.505 348.054 426.517C346.413 426.52 344.776 426.524 343.142 426.526C342.732 426.507 342.329 426.597 341.853 426.373C341.617 426.239 341.431 426.02 341.336 425.765C341.191 425.258 341.345 424.874 341.392 424.468C341.57 423.382 341.749 422.299 341.928 421.217C342.107 420.136 342.317 418.761 342.502 417.704C342.579 417.263 342.643 417.084 342.713 416.5C342.724 416.495 342.734 416.491 342.744 416.486C342.775 416.268 342.799 416.084 342.823 415.899C342.855 415.653 342.887 415.407 342.944 415.08C342.984 414.87 343.04 414.503 343.182 414.122C343.359 413.644 343.662 413.199 343.823 413.007C343.972 412.83 343.929 412.906 344.075 412.748C344.316 412.471 344.939 411.97 345.419 411.781C345.637 411.686 345.944 411.587 346.244 411.532C346.533 411.477 346.802 411.472 346.97 411.464C347.327 411.449 347.687 411.447 348.054 411.442C348.964 411.422 349.921 411.443 350.804 411.293C350.868 411.281 350.934 411.268 351 411.253C351.291 411.193 351.56 411.07 351.625 411.021C351.785 410.908 351.803 410.848 351.876 410.75C351.887 410.735 351.897 410.72 351.907 410.703C352.297 410.102 352.651 409.035 352.8 408.344C352.858 408.086 352.909 407.824 352.954 407.559C353.103 406.567 353.123 405.515 353.155 404.474C353.185 403.321 353.194 402.169 353.203 401.05C353.216 399.537 353.212 397.018 353.228 395.621C353.23 395.501 353.234 395.44 353.239 395.396C353.247 395.329 353.256 395.298 353.256 395.145C353.256 394.865 353.24 394.712 353.238 394.581C353.229 393.673 353.213 391.668 353.229 390.81C353.232 390.647 353.251 390.529 353.251 390.431C353.251 390.381 353.238 390.269 353.237 390.114C353.229 389.138 353.23 388.351 353.233 387.494C353.237 387.144 353.226 386.787 353.266 386.381C353.272 386.329 353.279 386.277 353.287 386.224C353.331 385.947 353.403 385.67 353.505 385.4C353.661 384.995 353.882 384.64 354.085 384.27C354.424 383.667 354.77 383.052 355.116 382.435C355.675 381.57 355.914 380.561 356.941 379.896C357.279 379.801 357.652 379.873 357.928 380.076C357.979 380.113 358.025 380.153 358.067 380.195C358.293 380.462 358.281 380.695 358.308 380.856C358.324 381.021 358.324 381.125 358.328 381.164C358.343 381.348 358.377 381.465 358.393 381.836C358.411 382.284 358.411 382.785 358.41 383.3C358.409 384.2 358.401 385.138 358.409 385.879C358.415 386.454 358.447 387.245 358.454 387.812C358.459 388.264 358.447 389.332 358.461 389.533C358.469 389.655 358.496 389.711 358.5 389.857ZM354.649 383.939C354.651 383.848 354.266 384.603 354.443 384.338C354.482 384.278 354.649 383.963 354.649 383.939ZM342.997 416.381C343.011 416.375 343.024 416.37 343.038 416.364C343.051 416.254 343.064 416.143 343.077 416.033C343.059 416.093 343.042 416.153 343.024 416.214C343.015 416.27 343.006 416.325 342.997 416.381Z"/>
<path fill="#FBE7A0" d="M351.776 405.698C351.776 406.25 351.329 406.698 350.776 406.698H348.73C348.178 406.698 347.73 406.25 347.73 405.698V395.412C347.73 394.859 348.178 394.412 348.73 394.412H350.776C351.329 394.412 351.776 394.859 351.776 395.412V405.698Z"/>
<path fill="#A76A43" d="M352.024 405.764C352.025 405.811 352.002 405.873 351.991 405.926C351.939 406.145 351.891 406.22 351.778 406.384C351.696 406.506 351.483 406.724 351.238 406.809C350.995 406.9 350.773 406.866 350.776 406.811C350.776 406.811 350.776 406.811 350.776 406.811C350.776 406.81 350.777 406.809 350.777 406.808C350.78 406.787 350.846 406.761 350.853 406.736C350.86 406.71 350.845 406.557 350.915 406.538C351.021 406.521 351.274 406.438 351.317 406.39C351.349 406.363 351.376 406.32 351.409 406.281C351.51 406.153 351.562 406.074 351.568 405.927C351.603 405.878 351.634 405.823 351.659 405.764C351.658 405.744 351.659 405.721 351.66 405.698C351.663 405.619 351.678 405.533 351.677 405.492C351.676 405.447 351.66 405.421 351.659 405.374C351.658 405.322 351.675 405.242 351.673 405.146C351.669 404.99 351.626 404.962 351.621 404.869C351.616 404.772 351.638 404.621 351.624 404.497C351.619 404.481 351.614 404.466 351.61 404.45C351.599 404.461 351.589 404.472 351.578 404.483C351.573 404.421 351.595 404.394 351.595 404.337C351.596 404.269 351.575 404.235 351.576 404.19C351.576 404.152 351.592 404.102 351.591 404.054C351.59 403.983 351.566 403.999 351.562 403.961C351.56 403.946 351.547 403.667 351.547 403.651C351.546 403.531 351.578 403.521 351.581 403.425C351.588 403.16 351.562 402.888 351.553 402.643C351.548 402.534 351.55 402.42 351.555 402.311C351.638 402.482 351.702 402.102 351.573 402.244C351.591 402.123 351.556 402.037 351.562 401.922C351.566 401.847 351.584 401.796 351.584 401.69C351.583 401.501 351.532 401.295 351.624 401.24C351.607 401.019 351.641 400.827 351.56 400.748C351.555 400.691 351.603 400.544 351.61 400.48C351.616 400.42 351.638 399.955 351.639 399.879C351.64 399.803 351.641 399.67 351.634 399.606C351.625 399.526 351.541 399.469 351.64 399.326C351.632 399.16 351.635 399.1 351.646 398.946C351.648 398.918 351.663 398.914 351.663 398.898C351.663 398.864 351.652 398.807 351.651 398.747C351.648 398.648 351.679 398.591 351.632 398.602C351.624 398.537 351.616 398.472 351.609 398.406C351.618 398.383 351.627 398.361 351.636 398.338C351.626 398.303 351.616 398.268 351.606 398.233C351.674 398.274 351.634 398.028 351.595 398.108C351.609 397.981 351.623 397.855 351.637 397.728C351.714 397.746 351.646 397.45 351.604 397.475C351.604 397.461 351.604 397.446 351.604 397.432C351.625 397.305 351.608 397.189 351.622 397.034C351.636 396.88 351.643 396.894 351.679 396.847C351.677 396.811 351.675 396.774 351.672 396.738C351.575 396.547 351.744 396.581 351.669 396.254C351.73 396.15 351.698 395.893 351.68 395.722C351.677 395.702 351.665 395.702 351.662 395.675C351.653 395.611 351.668 395.446 351.63 395.451C351.633 395.438 351.635 395.425 351.638 395.412C351.646 395.374 351.652 395.335 351.656 395.295C351.643 395.255 351.628 395.216 351.611 395.179C351.599 395.183 351.588 395.186 351.576 395.189C351.597 395.101 351.525 394.989 351.497 394.934C351.492 394.922 351.505 394.911 351.484 394.876C351.461 394.835 351.398 394.773 351.358 394.734C351.33 394.733 351.302 394.734 351.274 394.737C351.193 394.691 351.186 394.635 351.134 394.607C351.127 394.597 350.944 394.544 350.932 394.549C350.871 394.545 350.864 394.566 350.776 394.573C350.738 394.576 350.685 394.578 350.61 394.575C350.561 394.574 350.521 394.56 350.477 394.559C350.398 394.558 350.162 394.59 350.143 394.62C350.048 394.583 349.793 394.598 349.718 394.587C349.695 394.584 349.69 394.56 349.621 394.555C349.564 394.551 349.419 394.57 349.347 394.567C349.271 394.563 349.244 394.543 349.21 394.542C349.178 394.541 349.148 394.557 349.104 394.557C348.967 394.556 348.844 394.53 348.735 394.53C348.734 394.53 348.732 394.53 348.73 394.53C348.592 394.53 348.484 394.607 348.398 394.668C348.373 394.676 348.345 394.679 348.32 394.693C348.076 394.826 347.891 395.115 347.889 395.412C347.887 395.502 347.885 395.592 347.883 395.679C347.878 395.875 347.813 396.363 347.921 396.233C347.94 396.301 347.897 396.797 347.896 396.891C347.895 396.985 347.915 397.06 347.915 397.134C347.916 397.358 347.902 397.515 347.919 397.787C347.923 397.858 347.946 397.933 347.946 397.974C347.945 398.025 347.923 398.079 347.922 398.144C347.919 398.298 347.926 398.587 347.922 398.735C347.921 398.763 347.902 398.772 347.896 398.811C347.872 398.962 347.874 399.131 347.936 399.101C347.901 399.295 347.933 399.474 347.935 399.653C347.939 400.033 347.925 400.724 347.951 401.054C347.967 401.263 347.995 401.257 347.971 401.564C347.966 401.632 347.959 401.7 347.952 401.783C347.937 401.976 347.886 402.154 347.948 402.302C347.932 402.517 347.943 402.688 347.89 402.848C347.903 402.866 347.915 402.885 347.928 402.904C347.928 402.93 347.929 402.957 347.929 402.983C347.917 402.991 347.905 403 347.893 403.008C347.889 403.197 347.939 403.436 347.939 403.596C347.938 403.864 347.919 404.555 347.903 404.809C347.894 404.944 347.92 404.951 347.866 405.028C347.87 405.058 347.874 405.089 347.878 405.119C347.889 405.138 347.901 405.157 347.913 405.175C347.913 405.341 347.896 405.537 347.895 405.698C347.895 405.704 347.895 405.71 347.895 405.716C347.886 405.978 348.122 406.301 348.338 406.423C348.39 406.457 348.456 406.509 348.518 406.524C348.604 406.544 348.633 406.512 348.73 406.51C348.737 406.51 348.743 406.51 348.75 406.51C348.986 406.508 349.425 406.555 349.648 406.551C349.714 406.55 349.745 406.535 349.791 406.534C349.982 406.527 350.14 406.528 350.324 406.505C350.521 406.544 350.504 406.593 350.565 406.643C350.612 406.681 350.754 406.769 350.774 406.802C350.788 406.825 350.735 406.855 350.755 406.88C350.519 406.901 350.419 406.878 350.227 406.842C349.872 406.844 349.518 406.845 349.163 406.847C349.131 406.833 349.099 406.819 349.066 406.805C349.066 406.805 349.066 406.805 349.066 406.805C348.93 406.789 348.872 406.825 348.799 406.833C348.777 406.835 348.754 406.838 348.73 406.84C348.269 406.923 347.525 406.41 347.562 405.698C347.57 405.246 347.584 404.805 347.587 404.475C347.589 404.309 347.57 403.766 347.593 403.651C347.599 403.622 347.62 403.613 347.621 403.582C347.609 403.3 347.596 403.019 347.583 402.737C347.616 402.157 347.589 401.559 347.584 400.975C347.57 399.395 347.553 397.832 347.558 396.278C347.559 396.014 347.546 395.687 347.551 395.412C347.551 395.368 347.554 395.325 347.56 395.285C347.584 395.141 347.627 395.093 347.679 394.912C347.688 394.914 347.697 394.917 347.706 394.919C347.768 394.772 347.813 394.671 347.946 394.543C348.049 394.42 348.434 394.247 348.575 394.251C348.647 394.245 348.622 394.265 348.687 394.261C348.7 394.261 348.714 394.26 348.73 394.259C348.837 394.255 349.013 394.236 349.131 394.236C349.253 394.236 349.457 394.256 349.551 394.253C349.887 394.243 350.253 394.213 350.611 394.221C350.665 394.222 350.726 394.229 350.776 394.236C350.827 394.241 350.867 394.249 350.883 394.25C350.954 394.256 350.978 394.239 351.026 394.246C351.279 394.272 351.603 394.517 351.731 394.718C351.874 394.915 351.956 395.162 351.956 395.412C351.957 395.876 351.961 396.347 351.958 396.799C351.956 397.214 351.96 397.903 351.943 398.287C351.939 398.369 351.915 398.347 351.915 398.416C351.915 398.493 351.932 398.535 351.933 398.571C351.942 398.82 351.959 399.369 351.942 399.604C351.939 399.649 351.92 399.681 351.92 399.708C351.92 399.722 351.933 399.752 351.934 399.795C351.946 400.171 351.938 400.445 351.934 400.813C351.926 401.519 351.949 402.336 351.937 403.077C351.934 403.239 351.897 403.349 351.897 403.372C351.898 403.422 351.923 403.454 351.929 403.555C351.949 403.89 351.922 404.342 351.935 404.661C351.941 404.819 351.973 405.036 351.98 405.191C351.986 405.315 351.973 405.607 351.987 405.662C351.991 405.676 351.997 405.687 352.004 405.698C352.014 405.716 352.024 405.735 352.024 405.764ZM351.604 401.576C351.648 401.598 351.612 401.366 351.588 401.453C351.583 401.473 351.593 401.571 351.604 401.576ZM347.932 394.988C347.944 394.992 347.956 394.997 347.968 395.001C347.976 394.975 347.985 394.95 347.996 394.924C347.981 394.933 347.967 394.942 347.952 394.951C347.946 394.963 347.939 394.976 347.932 394.988Z"/>
</g>
<defs>
<filter color-interpolation-filters="sRGB" filterUnits="userSpaceOnUse" height="62.6738" width="33.2245" y="0" x="0" id="filter0_d_66_2198">
<feFlood result="BackgroundImageFix" flood-opacity="0"/>
<feColorMatrix result="hardAlpha" values="0 0 0 0 0 0 0 0 0 0 0 0 0 0 0 0 0 0 127 0" type="matrix" in="SourceAlpha"/>
<feOffset dy="2" dx="2"/>
<feGaussianBlur stdDeviation="4"/>
<feComposite operator="out" in2="hardAlpha"/>
<feColorMatrix values="0 0 0 0 0.654902 0 0 0 0 0.415686 0 0 0 0 0.262745 0 0 0 0.25 0" type="matrix"/>
<feBlend result="effect1_dropShadow_66_2198" in2="BackgroundImageFix" mode="normal"/>
<feBlend result="shape" in2="effect1_dropShadow_66_2198" in="SourceGraphic" mode="normal"/>
</filter>
<filter color-interpolation-filters="sRGB" filterUnits="userSpaceOnUse" height="62.6738" width="33.2245" y="369.855" x="0" id="filter1_d_66_2198">
<feFlood result="BackgroundImageFix" flood-opacity="0"/>
<feColorMatrix result="hardAlpha" values="0 0 0 0 0 0 0 0 0 0 0 0 0 0 0 0 0 0 127 0" type="matrix" in="SourceAlpha"/>
<feOffset dy="-2" dx="2"/>
<feGaussianBlur stdDeviation="4"/>
<feComposite operator="out" in2="hardAlpha"/>
<feColorMatrix values="0 0 0 0 0.654902 0 0 0 0 0.415686 0 0 0 0 0.262745 0 0 0 0.25 0" type="matrix"/>
<feBlend result="effect1_dropShadow_66_2198" in2="BackgroundImageFix" mode="normal"/>
<feBlend result="shape" in2="effect1_dropShadow_66_2198" in="SourceGraphic" mode="normal"/>
</filter>
<filter color-interpolation-filters="sRGB" filterUnits="userSpaceOnUse" height="62.6738" width="33.2245" y="4" x="335.276" id="filter2_d_66_2198">
<feFlood result="BackgroundImageFix" flood-opacity="0"/>
<feColorMatrix result="hardAlpha" values="0 0 0 0 0 0 0 0 0 0 0 0 0 0 0 0 0 0 127 0" type="matrix" in="SourceAlpha"/>
<feOffset dy="6" dx="2"/>
<feGaussianBlur stdDeviation="4"/>
<feComposite operator="out" in2="hardAlpha"/>
<feColorMatrix values="0 0 0 0 0.654902 0 0 0 0 0.415686 0 0 0 0 0.262745 0 0 0 0.25 0" type="matrix"/>
<feBlend result="effect1_dropShadow_66_2198" in2="BackgroundImageFix" mode="normal"/>
<feBlend result="shape" in2="effect1_dropShadow_66_2198" in="SourceGraphic" mode="normal"/>
</filter>
<filter color-interpolation-filters="sRGB" filterUnits="userSpaceOnUse" height="52.6738" width="23.2245" y="375.855" x="337.276" id="filter3_d_66_2198">
<feFlood result="BackgroundImageFix" flood-opacity="0"/>
<feColorMatrix result="hardAlpha" values="0 0 0 0 0 0 0 0 0 0 0 0 0 0 0 0 0 0 127 0" type="matrix" in="SourceAlpha"/>
<feOffset dy="-1" dx="-1"/>
<feGaussianBlur stdDeviation="1.5"/>
<feComposite operator="out" in2="hardAlpha"/>
<feColorMatrix values="0 0 0 0 0.654902 0 0 0 0 0.415686 0 0 0 0 0.262745 0 0 0 0.25 0" type="matrix"/>
<feBlend result="effect1_dropShadow_66_2198" in2="BackgroundImageFix" mode="normal"/>
<feBlend result="shape" in2="effect1_dropShadow_66_2198" in="SourceGraphic" mode="normal"/>
</filter>
</defs>
</svg>