<svg width="59" height="59" viewBox="0 0 59 59" fill="none" xmlns="http://www.w3.org/2000/svg">
<path d="M14.3128 13.3964C14.5333 13.185 14.8383 13.0866 15.1409 13.1282L15.2091 13.1372C17.7904 13.4922 20.423 12.7744 23.1453 11.8858C27.1324 10.5845 31.4596 10.6835 35.3623 12.1745C38.1984 13.258 40.9434 14.1721 43.6843 13.8837L43.8718 13.8648C44.1791 13.8325 44.4839 13.9441 44.6978 14.1671C44.9116 14.39 45.0108 14.6993 44.9658 15.0049L44.8944 15.4848C44.5084 18.1076 45.2359 20.7877 46.1186 23.5703C47.3254 27.3747 47.2447 31.4981 45.8965 35.2714C44.9641 37.8809 44.1973 40.403 44.4375 42.9134L44.5172 43.7411C44.5463 44.0454 44.4335 44.3465 44.213 44.5581C43.9925 44.7696 43.6875 44.8693 43.3848 44.8277C40.6118 44.4465 37.7967 45.3128 34.9099 46.3823C30.3567 48.069 25.2916 47.8903 20.8909 45.8588C18.7107 44.8524 16.5227 44.143 14.3629 44.3704C14.0557 44.4027 13.7508 44.2909 13.5369 44.0681C13.323 43.8452 13.2241 43.5359 13.2689 43.2303C13.5754 41.1469 12.9502 38.9965 11.9946 36.8697C9.79348 31.9709 9.88681 26.2995 12.2274 21.4419C13.3854 19.0387 14.2402 16.6221 14.01 14.2134L14.0047 14.0994C14.0097 13.8352 14.1199 13.5815 14.3128 13.3964Z" fill="#C6A46A" stroke="#895903" stroke-width="2" stroke-linejoin="round"/>
<ellipse cx="12.9214" cy="12.7959" rx="12.9214" ry="12.7959" transform="matrix(0.721544 -0.692369 0.692366 0.721546 10.5048 28.9658)" fill="#FAEDE3"/>
<g filter="url(#filter0_di_128_586)">
<path d="M15.0733 14.1283C17.9062 14.5179 20.7368 13.7236 23.4551 12.8364C27.2263 11.6054 31.3181 11.6998 35.0053 13.1085C37.8295 14.1875 40.782 15.1947 43.7887 14.8784L43.9763 14.8595L43.9056 15.3387C43.4821 18.2161 44.286 21.101 45.1654 23.8732C46.3056 27.4676 46.2296 31.3668 44.9544 34.9357C44.0232 37.5418 43.1782 40.2533 43.4417 43.0082L43.5206 43.8366C40.4743 43.418 37.4459 44.3766 34.5625 45.4447C30.2558 47.0401 25.4668 46.8691 21.3102 44.9503C19.0865 43.9237 16.6942 43.1194 14.2584 43.3757C14.6068 41.0075 13.8882 38.6431 12.9072 36.4596C10.8282 31.8327 10.9142 26.4701 13.128 21.8756C14.3028 19.4377 15.2618 16.8125 15.0045 14.1186L15.0733 14.1283ZM16.513 15.719C16.7324 18.1362 15.8672 20.4881 14.8038 22.6699C12.7903 26.8012 12.6836 31.6148 14.5247 35.7602C15.3975 37.7255 16.0372 39.8515 15.7142 41.9774C17.9015 41.7367 20.0543 42.4549 22.0563 43.3681C25.7824 45.0675 30.0826 45.1939 33.9554 43.7373C36.5368 42.7664 39.2498 41.9007 41.9838 42.2633L41.9552 41.9429C41.7057 39.1979 42.5724 36.5017 43.4428 33.8864C44.4267 30.93 44.509 27.7484 43.677 24.7791C42.896 21.9923 42.0842 19.1176 42.5192 16.2563C39.7112 16.5652 36.9487 15.6237 34.2937 14.6589C31.0496 13.4802 27.464 13.4308 24.1456 14.5179C21.6705 15.3289 19.095 16.0615 16.513 15.719Z" fill="#E6C987"/>
</g>
<path d="M17.4879 15.7148L19.9859 15.6931L20.9053 15.6851L20.99 16.6L21.2609 19.5071L21.378 20.759L20.1314 20.591L17.2386 20.1997L16.328 20.0773L16.3732 19.1597L16.4979 16.6647L16.545 15.7222L17.4879 15.7148Z" fill="url(#paint0_linear_128_586)" stroke="#C6A46A" stroke-width="2"/>
<path d="M42.3543 17.3757L42.3518 19.8724L42.3505 20.7737L41.4541 20.8664L38.543 21.1655L37.268 21.2967L37.451 20.0275L37.8706 17.1319L37.9995 16.2394L38.9001 16.2753L41.3948 16.3758L42.3562 16.4143L42.3543 17.3757Z" fill="url(#paint1_linear_128_586)" stroke="#C6A46A" stroke-width="2"/>
<path d="M42.0286 41.2896L42.1533 38.7946L42.1992 37.8763L41.2886 37.7539L38.3951 37.3633L37.1492 37.1947L37.2656 38.4472L37.5371 41.3537L37.6219 42.2685L38.5406 42.2612L41.0386 42.2395L41.9822 42.2314L42.0286 41.2896Z" fill="url(#paint2_linear_128_586)" stroke="#C6A46A" stroke-width="2"/>
<path d="M16.2575 42.4169L18.7523 42.5174L19.6529 42.5532L19.7825 41.6615L20.2014 38.7651L20.3851 37.4967L19.1094 37.6271L16.1989 37.9269L15.3019 38.0189L15.3006 38.9202L15.2981 41.417L15.2969 42.3791L16.2575 42.4169Z" fill="url(#paint3_linear_128_586)" stroke="#C6A46A" stroke-width="2"/>
<g filter="url(#filter1_n_128_586)">
<path fill-rule="evenodd" clip-rule="evenodd" d="M35.7194 23.6839C35.7398 23.8495 35.7144 24.0238 35.6755 24.1927C35.5996 24.5117 35.5117 24.8196 35.4119 25.1156C35.0121 26.2997 34.4205 27.2994 33.6366 28.1137C33.0523 28.7206 32.4557 29.3158 31.8476 29.8999C32.9622 31.3725 33.9435 32.9622 34.7922 34.6683C34.9224 34.93 35.0502 35.1951 35.1741 35.4622C35.2489 35.6249 35.2908 35.8076 35.2698 35.9876C35.2487 36.1675 35.168 36.3297 35.0384 36.4437C34.9086 36.5577 34.7373 36.6179 34.556 36.6156C34.3745 36.6134 34.199 36.5477 34.0472 36.4525C33.7981 36.2953 33.5517 36.1348 33.3089 35.9721C31.7421 34.922 30.3065 33.7563 29.0001 32.4772C27.5962 33.675 26.1369 34.8196 24.6204 35.909C24.3871 36.0766 24.1523 36.2431 23.9163 36.4081C23.7656 36.5131 23.5846 36.579 23.3978 36.5761C23.2109 36.5731 23.0348 36.5032 22.9046 36.3779C22.7744 36.2525 22.6978 36.0791 22.6878 35.8925C22.6778 35.706 22.7361 35.5226 22.8352 35.3681C22.9912 35.126 23.1492 34.8849 23.3078 34.6454C24.3816 33.0239 25.5169 31.4616 26.7129 29.9578C25.3763 28.2974 24.2163 26.4813 23.2351 24.5087C23.105 24.2472 22.978 23.9828 22.8542 23.7158C22.7793 23.553 22.7373 23.3706 22.7584 23.1904C22.7795 23.0103 22.8602 22.8483 22.9899 22.7343C23.1195 22.6203 23.2911 22.5602 23.4723 22.5624C23.6536 22.5647 23.8293 22.6303 23.9811 22.7255C24.2301 22.8827 24.4756 23.0432 24.7184 23.2059C26.3818 24.3207 27.8994 25.5635 29.2694 26.9362C29.7558 26.3956 30.2506 25.863 30.7546 25.3394C31.5386 24.525 32.5151 23.8951 33.6833 23.4506C33.9752 23.3395 34.2794 23.2397 34.5953 23.1517C34.7626 23.1064 34.9351 23.0751 35.1012 23.0892C35.2673 23.1034 35.4146 23.1627 35.5241 23.2679C35.6334 23.3732 35.6988 23.5184 35.7194 23.6839Z" fill="#7E938D"/>
<path fill-rule="evenodd" clip-rule="evenodd" d="M35.7194 23.6839L36.1164 23.635L36.1163 23.6346L35.7194 23.6839ZM35.6755 24.1927L36.0646 24.2853L36.0653 24.2826L35.6755 24.1927ZM35.4119 25.1156L35.7908 25.2435L35.7908 25.2435L35.4119 25.1156ZM33.6366 28.1137L33.9248 28.3911L33.9248 28.3911L33.6366 28.1137ZM31.8476 29.8999L31.5705 29.6114L31.3141 29.8578L31.5287 30.1413L31.8476 29.8999ZM34.7922 34.6683L35.1504 34.4902L35.1504 34.4902L34.7922 34.6683ZM35.1741 35.4622L35.5375 35.2952L35.537 35.294L35.1741 35.4622ZM35.2698 35.9876L35.6671 36.0342L35.6671 36.034L35.2698 35.9876ZM35.0384 36.4437L35.3024 36.7442L35.3026 36.744L35.0384 36.4437ZM34.556 36.6156L34.561 36.2156L34.5608 36.2156L34.556 36.6156ZM34.0472 36.4525L33.8337 36.7908L33.8347 36.7914L34.0472 36.4525ZM33.3089 35.9721L33.0862 36.3044L33.0862 36.3044L33.3089 35.9721ZM29.0001 32.4772L29.2799 32.1914L29.0187 31.9355L28.7405 32.1729L29.0001 32.4772ZM24.6204 35.909L24.8538 36.2339L24.8538 36.2339L24.6204 35.909ZM23.9163 36.4081L24.145 36.7363L24.1456 36.7359L23.9163 36.4081ZM23.3978 36.5761L23.3915 36.976L23.3915 36.976L23.3978 36.5761ZM22.9046 36.3779L22.6272 36.666L22.6272 36.6661L22.9046 36.3779ZM22.6878 35.8925L22.2884 35.9139L22.2884 35.914L22.6878 35.8925ZM22.8352 35.3681L22.4989 35.1515L22.4985 35.1522L22.8352 35.3681ZM23.3078 34.6454L22.9743 34.4246L22.9743 34.4246L23.3078 34.6454ZM26.7129 29.9578L27.0259 30.2067L27.2252 29.9562L27.0245 29.7069L26.7129 29.9578ZM23.2351 24.5087L22.8769 24.6868L22.8769 24.6868L23.2351 24.5087ZM22.8542 23.7158L22.4908 23.8829L22.4913 23.884L22.8542 23.7158ZM22.7584 23.1904L23.1557 23.2369L23.1557 23.2368L22.7584 23.1904ZM22.9899 22.7343L22.7258 22.4338L22.7256 22.434L22.9899 22.7343ZM23.4723 22.5624L23.4773 22.1624L23.4771 22.1624L23.4723 22.5624ZM23.9811 22.7255L24.1946 22.3872L24.1935 22.3866L23.9811 22.7255ZM24.7184 23.2059L24.9411 22.8736L24.9411 22.8736L24.7184 23.2059ZM29.2694 26.9362L28.9862 27.2187L29.2844 27.5175L29.5667 27.2037L29.2694 26.9362ZM30.7546 25.3394L30.4665 25.062L30.4665 25.062L30.7546 25.3394ZM33.6833 23.4506L33.541 23.0767L33.541 23.0767L33.6833 23.4506ZM34.5953 23.1517L34.4907 22.7656L34.488 22.7664L34.5953 23.1517ZM35.1012 23.0892L35.1352 22.6906L35.135 22.6906L35.1012 23.0892ZM35.5241 23.2679L35.8015 22.9797L35.8012 22.9795L35.5241 23.2679ZM35.7194 23.6839L35.3224 23.7328C35.3343 23.8294 35.321 23.9499 35.2857 24.1028L35.6755 24.1927L36.0653 24.2826C36.1079 24.0977 36.1453 23.8696 36.1164 23.635L35.7194 23.6839ZM35.6755 24.1927L35.2863 24.1001C35.2131 24.4079 35.1286 24.704 35.0329 24.9876L35.4119 25.1156L35.7908 25.2435C35.8949 24.9353 35.9861 24.6155 36.0646 24.2853L35.6755 24.1927ZM35.4119 25.1156L35.0329 24.9876C34.65 26.1219 34.0872 27.0689 33.3484 27.8363L33.6366 28.1137L33.9248 28.3911C34.7538 27.5299 35.3743 26.4774 35.7908 25.2435L35.4119 25.1156ZM33.6366 28.1137L33.3484 27.8363C32.7679 28.4393 32.1749 29.0308 31.5705 29.6114L31.8476 29.8999L32.1248 30.1884C32.7364 29.6008 33.3367 29.002 33.9248 28.3911L33.6366 28.1137ZM31.8476 29.8999L31.5287 30.1413C32.6278 31.5934 33.5961 33.1618 34.4341 34.8465L34.7922 34.6683L35.1504 34.4902C34.2909 32.7625 33.2967 31.1516 32.1666 29.6585L31.8476 29.8999ZM34.7922 34.6683L34.4341 34.8465C34.5628 35.1052 34.689 35.367 34.8112 35.6305L35.1741 35.4622L35.537 35.294C35.4114 35.0232 35.282 34.7548 35.1504 34.4902L34.7922 34.6683ZM35.1741 35.4622L34.8107 35.6293C34.8633 35.7438 34.8829 35.852 34.8725 35.9412L35.2698 35.9876L35.6671 36.034C35.6987 35.7631 35.6344 35.5059 35.5375 35.2952L35.1741 35.4622ZM35.2698 35.9876L34.8725 35.9411C34.8619 36.0318 34.8231 36.1003 34.7742 36.1434L35.0384 36.4437L35.3026 36.744C35.5128 36.5591 35.6356 36.3033 35.6671 36.0342L35.2698 35.9876ZM35.0384 36.4437L34.7744 36.1432C34.7244 36.1871 34.6511 36.2168 34.561 36.2156L34.556 36.6156L34.551 37.0156C34.8236 37.019 35.0928 36.9284 35.3024 36.7442L35.0384 36.4437ZM34.556 36.6156L34.5608 36.2156C34.4718 36.2145 34.3675 36.1812 34.2596 36.1136L34.0472 36.4525L33.8347 36.7914C34.0306 36.9142 34.2772 37.0122 34.5511 37.0156L34.556 36.6156ZM34.0472 36.4525L34.2607 36.1143C34.0148 35.9591 33.7714 35.8006 33.5316 35.6398L33.3089 35.9721L33.0862 36.3044C33.3319 36.4691 33.5814 36.6315 33.8337 36.7908L34.0472 36.4525ZM33.3089 35.9721L33.5316 35.6398C31.9848 34.6032 30.5684 33.4528 29.2799 32.1914L29.0001 32.4772L28.7203 32.763C30.0446 34.0597 31.4995 35.2409 33.0862 36.3044L33.3089 35.9721ZM29.0001 32.4772L28.7405 32.1729C27.345 33.3635 25.8944 34.5012 24.387 35.5842L24.6204 35.909L24.8538 36.2339C26.3793 35.1379 27.8475 33.9865 29.2597 32.7815L29.0001 32.4772ZM24.6204 35.909L24.387 35.5842C24.1552 35.7507 23.9216 35.9162 23.6871 36.0803L23.9163 36.4081L24.1456 36.7359C24.3829 36.5699 24.6191 36.4025 24.8538 36.2339L24.6204 35.909ZM23.9163 36.4081L23.6877 36.0799C23.5932 36.1457 23.4929 36.1775 23.4041 36.1761L23.3978 36.5761L23.3915 36.976C23.6764 36.9805 23.938 36.8805 24.145 36.7363L23.9163 36.4081ZM23.3978 36.5761L23.4041 36.1761C23.3127 36.1747 23.2352 36.1409 23.182 36.0897L22.9046 36.3779L22.6272 36.6661C22.8344 36.8655 23.1091 36.9716 23.3915 36.976L23.3978 36.5761ZM22.9046 36.3779L23.1821 36.0897C23.1289 36.0385 23.0921 35.9623 23.0872 35.871L22.6878 35.8925L22.2884 35.914C22.3035 36.196 22.42 36.4665 22.6272 36.666L22.9046 36.3779ZM22.6878 35.8925L23.0872 35.8711C23.0824 35.7816 23.1104 35.68 23.1719 35.584L22.8352 35.3681L22.4985 35.1522C22.3619 35.3653 22.2731 35.6305 22.2884 35.9139L22.6878 35.8925ZM22.8352 35.3681L23.1715 35.5847C23.3263 35.3444 23.4834 35.1048 23.6413 34.8663L23.3078 34.6454L22.9743 34.4246C22.8151 34.6651 22.656 34.9076 22.4989 35.1515L22.8352 35.3681ZM23.3078 34.6454L23.6413 34.8663C24.7087 33.2544 25.8372 31.7014 27.0259 30.2067L26.7129 29.9578L26.3998 29.7088C25.1966 31.2217 24.0545 32.7935 22.9743 34.4246L23.3078 34.6454ZM26.7129 29.9578L27.0245 29.7069C25.7065 28.0697 24.5619 26.2781 23.5932 24.3306L23.2351 24.5087L22.8769 24.6868C23.8706 26.6845 25.0461 28.5251 26.4013 30.2086L26.7129 29.9578ZM23.2351 24.5087L23.5932 24.3306C23.4648 24.0723 23.3394 23.8112 23.217 23.5475L22.8542 23.7158L22.4913 23.884C22.6166 24.1543 22.7452 24.422 22.8769 24.6868L23.2351 24.5087ZM22.8542 23.7158L23.2176 23.5486C23.1648 23.4339 23.1453 23.3261 23.1557 23.2369L22.7584 23.1904L22.3612 23.1438C22.3294 23.415 22.3938 23.672 22.4908 23.8829L22.8542 23.7158ZM22.7584 23.1904L23.1557 23.2368C23.1663 23.1462 23.205 23.0778 23.2541 23.0346L22.9899 22.7343L22.7256 22.434C22.5155 22.6189 22.3926 22.8745 22.3611 23.144L22.7584 23.1904ZM22.9899 22.7343L23.2539 23.0348C23.3036 22.9911 23.3772 22.9613 23.4675 22.9624L23.4723 22.5624L23.4771 22.1624C23.2049 22.1592 22.9354 22.2496 22.7258 22.4338L22.9899 22.7343ZM23.4723 22.5624L23.4673 22.9624C23.5564 22.9635 23.661 22.9969 23.7686 23.0644L23.9811 22.7255L24.1935 22.3866C23.9977 22.2638 23.7508 22.1659 23.4773 22.1624L23.4723 22.5624ZM23.9811 22.7255L23.7675 23.0637C24.013 23.2187 24.2554 23.3772 24.4957 23.5382L24.7184 23.2059L24.9411 22.8736C24.6958 22.7092 24.4472 22.5467 24.1946 22.3872L23.9811 22.7255ZM24.7184 23.2059L24.4957 23.5382C26.1382 24.639 27.6355 25.8653 28.9862 27.2187L29.2694 26.9362L29.5525 26.6536C28.1634 25.2617 26.6254 24.0024 24.9411 22.8736L24.7184 23.2059ZM29.2694 26.9362L29.5667 27.2037C30.0502 26.6663 30.542 26.137 31.0428 25.6168L30.7546 25.3394L30.4665 25.062C29.9592 25.589 29.4613 26.1248 28.972 26.6686L29.2694 26.9362ZM30.7546 25.3394L31.0428 25.6168C31.7817 24.8492 32.7066 24.2502 33.8255 23.8244L33.6833 23.4506L33.541 23.0767C32.3235 23.54 31.2955 24.2008 30.4665 25.062L30.7546 25.3394ZM33.6833 23.4506L33.8255 23.8244C34.1056 23.7179 34.3981 23.6219 34.7027 23.5371L34.5953 23.1517L34.488 22.7664C34.1607 22.8575 33.8448 22.9612 33.541 23.0767L33.6833 23.4506ZM34.5953 23.1517L34.7 23.5378C34.8502 23.4971 34.9699 23.4795 35.0675 23.4878L35.1012 23.0892L35.135 22.6906C34.9002 22.6707 34.6749 22.7157 34.4907 22.7656L34.5953 23.1517ZM35.1012 23.0892L35.0672 23.4878C35.1596 23.4956 35.2152 23.5258 35.2469 23.5563L35.5241 23.2679L35.8012 22.9795C35.6141 22.7997 35.3751 22.7111 35.1352 22.6906L35.1012 23.0892ZM35.5241 23.2679L35.2467 23.5561C35.2786 23.5868 35.3111 23.6417 35.3225 23.7332L35.7194 23.6839L36.1163 23.6346C36.0866 23.3952 35.9883 23.1595 35.8015 22.9797L35.5241 23.2679Z" fill="#D6B588" fill-opacity="0.7"/>
</g>
<defs>
<filter id="filter0_di_128_586" x="7.40576" y="11.9778" width="42.5631" height="42.5493" filterUnits="userSpaceOnUse" color-interpolation-filters="sRGB">
<feFlood flood-opacity="0" result="BackgroundImageFix"/>
<feColorMatrix in="SourceAlpha" type="matrix" values="0 0 0 0 0 0 0 0 0 0 0 0 0 0 0 0 0 0 127 0" result="hardAlpha"/>
<feOffset dy="4"/>
<feGaussianBlur stdDeviation="2"/>
<feComposite in2="hardAlpha" operator="out"/>
<feColorMatrix type="matrix" values="0 0 0 0 0 0 0 0 0 0 0 0 0 0 0 0 0 0 0.1 0"/>
<feBlend mode="normal" in2="BackgroundImageFix" result="effect1_dropShadow_128_586"/>
<feBlend mode="normal" in="SourceGraphic" in2="effect1_dropShadow_128_586" result="shape"/>
<feColorMatrix in="SourceAlpha" type="matrix" values="0 0 0 0 0 0 0 0 0 0 0 0 0 0 0 0 0 0 127 0" result="hardAlpha"/>
<feOffset dy="4"/>
<feGaussianBlur stdDeviation="2"/>
<feComposite in2="hardAlpha" operator="arithmetic" k2="-1" k3="1"/>
<feColorMatrix type="matrix" values="0 0 0 0 1 0 0 0 0 1 0 0 0 0 1 0 0 0 0.25 0"/>
<feBlend mode="normal" in2="shape" result="effect2_innerShadow_128_586"/>
</filter>
<filter id="filter1_n_128_586" x="22.2867" y="22.1624" width="13.8399" height="14.8533" filterUnits="userSpaceOnUse" color-interpolation-filters="sRGB">
<feFlood flood-opacity="0" result="BackgroundImageFix"/>
<feBlend mode="normal" in="SourceGraphic" in2="BackgroundImageFix" result="shape"/>
<feTurbulence type="fractalNoise" baseFrequency="5 5" stitchTiles="stitch" numOctaves="3" result="noise" seed="2616" />
<feColorMatrix in="noise" type="luminanceToAlpha" result="alphaNoise" />
<feComponentTransfer in="alphaNoise" result="coloredNoise1">
<feFuncA type="discrete" tableValues="0 0 0 0 0 0 0 0 0 0 0 0 0 0 1 1 1 1 1 1 1 1 1 1 1 1 1 1 1 1 1 1 1 1 1 0 0 0 0 0 0 0 0 0 0 0 0 0 0 0 0 0 0 0 0 0 0 0 0 0 0 0 0 0 0 0 0 0 0 0 0 0 0 0 0 0 0 0 0 0 0 0 0 0 0 0 0 0 0 0 0 0 0 0 0 0 0 0 0 0 "/>
</feComponentTransfer>
<feComposite operator="in" in2="shape" in="coloredNoise1" result="noise1Clipped" />
<feFlood flood-color="#5C5F4B" result="color1Flood" />
<feComposite operator="in" in2="noise1Clipped" in="color1Flood" result="color1" />
<feMerge result="effect1_noise_128_586">
<feMergeNode in="shape" />
<feMergeNode in="color1" />
</feMerge>
</filter>
<linearGradient id="paint0_linear_128_586" x1="17.4968" y1="16.7146" x2="20.2654" y2="19.5998" gradientUnits="userSpaceOnUse">
<stop stop-color="#FFF2A3"/>
<stop offset="1" stop-color="#CE9D46"/>
</linearGradient>
<linearGradient id="paint1_linear_128_586" x1="41.3546" y1="17.3748" x2="38.4411" y2="20.1705" gradientUnits="userSpaceOnUse">
<stop stop-color="#FFF2A3"/>
<stop offset="1" stop-color="#CE9D46"/>
</linearGradient>
<linearGradient id="paint2_linear_128_586" x1="41.03" y1="41.2395" x2="38.2614" y2="38.3542" gradientUnits="userSpaceOnUse">
<stop stop-color="#FFF2A3"/>
<stop offset="1" stop-color="#CE9D46"/>
</linearGradient>
<linearGradient id="paint3_linear_128_586" x1="16.2979" y1="41.418" x2="19.2115" y2="38.6223" gradientUnits="userSpaceOnUse">
<stop stop-color="#FFF2A3"/>
<stop offset="1" stop-color="#CE9D46"/>
</linearGradient>
</defs>
</svg>
